<?xml version="1.0" standalone="no"?><!DOCTYPE svg PUBLIC "-//W3C//DTD SVG 1.1//EN"
        "http://www.w3.org/Graphics/SVG/1.1/DTD/svg11.dtd"><svg viewBox="0 0 1024 1024" version="1.1" xmlns="http://www.w3.org/2000/svg" xmlns:xlink="http://www.w3.org/1999/xlink"><path transform="scale(1, -1) translate(0, -1024)" d="M355.84 304.64c-2.56-5.12-7.68-7.68-12.8-10.24-2.56 10.24-7.68 23.04-12.8 33.28-30.72-10.24-66.56-23.04-97.28-40.96-2.56 64 0 163.84 5.12 217.6-2.56 0-7.68-2.56-10.24-5.12v15.36c0 2.56 2.56 5.12 7.68 7.68 15.36 7.68 58.88 15.36 76.8 12.8 10.24-2.56 17.92-7.68 20.48-12.8 5.12-7.68 5.12-17.92 7.68-28.16 2.56-30.72 2.56-56.32 2.56-87.04-30.72 0-61.44-2.56-89.6-10.24v-76.8c23.04 10.24 46.08 20.48 69.12 28.16-5.12 12.8-10.24 23.04-17.92 35.84 5.12 2.56 12.8 5.12 17.92 7.68 15.36-23.04 28.16-46.08 35.84-71.68 0-7.68 0-12.8-2.56-15.36z m-35.84 158.72c-20.48 0-48.64-5.12-66.56-10.24v-38.4c20.48 5.12 46.08 7.68 69.12 10.24-2.56 10.24-2.56 25.6-2.56 38.4z m-2.56 43.52c0 7.68-7.68 12.8-15.36 12.8-15.36 0-30.72-2.56-46.08-5.12 0-12.8-2.56-25.6-2.56-38.4 20.48 5.12 43.52 7.68 66.56 7.68 0 5.12-2.56 12.8-2.56 23.04z m156.16-181.76c-2.56-5.12-7.68-10.24-15.36-12.8-7.68-2.56-17.92-2.56-28.16-2.56-5.12 0-7.68 5.12-10.24 7.68-2.56 5.12-2.56 10.24-2.56 12.8 10.24 0 17.92-2.56 28.16 0 5.12 0 7.68 5.12 7.68 10.24 2.56 48.64 2.56 112.64-5.12 158.72-2.56 10.24-7.68 15.36-17.92 15.36-10.24 0-30.72-2.56-38.4-5.12-5.12-66.56-7.68-166.4-2.56-232.96h-20.48c-2.56 69.12-2.56 158.72 2.56 225.28-5.12-2.56-10.24-2.56-15.36-7.68v15.36c0 5.12 2.56 7.68 7.68 7.68 15.36 7.68 51.2 17.92 74.24 15.36 10.24 0 15.36-5.12 23.04-10.24 7.68-7.68 7.68-17.92 10.24-28.16 5.12-53.76 7.68-99.84 5.12-156.16 0-2.56-2.56-7.68-2.56-12.8zM404.48 266.24H358.4v12.8 10.24c-2.56-2.56-5.12-2.56-10.24-5.12l-15.36-7.68-2.56 12.8c-2.56 7.68-5.12 15.36-7.68 20.48-25.6-10.24-56.32-20.48-84.48-35.84l-17.92-10.24v20.48c-2.56 56.32 0 143.36 2.56 197.12l-7.68-2.56-2.56 17.92c0 5.12 0 15.36 2.56 20.48 2.56 5.12 7.68 10.24 12.8 12.8 20.48 10.24 64 15.36 84.48 12.8 15.36-2.56 25.6-7.68 30.72-20.48 2.56-2.56 2.56-5.12 5.12-7.68 2.56 5.12 7.68 10.24 12.8 12.8 17.92 7.68 56.32 20.48 81.92 15.36 12.8 0 23.04-5.12 30.72-15.36 10.24-10.24 10.24-23.04 12.8-35.84 5.12-51.2 7.68-94.72 5.12-156.16 0-7.68 0-15.36-2.56-20.48-5.12-10.24-10.24-15.36-20.48-20.48-10.24-2.56-23.04-5.12-35.84-2.56-7.68 0-15.36 7.68-20.48 15.36-2.56 5.12-2.56 10.24-2.56 15.36l-2.56 15.36h15.36c7.68 0 15.36-2.56 23.04 0 2.56 46.08 2.56 110.08-5.12 156.16 0 2.56 0 5.12-5.12 5.12-7.68 0-17.92-2.56-25.6-2.56-5.12-64-7.68-158.72-2.56-222.72l-2.56-7.68z m-140.8 120.32v-48.64c12.8 5.12 28.16 10.24 40.96 15.36-2.56 7.68-7.68 15.36-10.24 20.48l-7.68 12.8 10.24 5.12c-12.8-2.56-23.04-2.56-33.28-5.12z m69.12 7.68c7.68-12.8 15.36-25.6 20.48-35.84 0 40.96 0 84.48 2.56 122.88l-5.12-2.56c2.56-23.04 0-46.08 0-71.68v-12.8h-12.8-5.12z m-66.56 48.64v-12.8c12.8 2.56 28.16 5.12 43.52 5.12v12.8c-15.36 0-33.28-2.56-43.52-5.12z m2.56 58.88v-12.8c12.8 2.56 25.6 5.12 38.4 5.12 0 2.56 0 7.68-2.56 10.24-12.8 0-23.04 0-35.84-2.56zM698.88 496.64c-23.04 0-46.08 0-69.12-2.56-20.48-15.36-40.96-30.72-61.44-51.2 17.92 2.56 38.4 5.12 56.32 5.12 10.24 7.68 30.72 23.04 38.4 30.72 5.12-2.56 12.8-7.68 17.92-12.8-48.64-38.4-94.72-76.8-140.8-117.76-2.56 2.56-5.12 7.68-7.68 12.8 0 2.56 0 7.68 2.56 10.24 20.48 20.48 40.96 38.4 64 56.32-20.48-2.56-38.4-5.12-56.32-10.24-2.56 5.12-2.56 7.68-5.12 12.8 0 5.12 0 7.68 2.56 10.24 17.92 17.92 35.84 33.28 56.32 48.64-23.04-2.56-46.08-5.12-66.56-10.24 0 5.12 0 10.24 2.56 15.36 0 2.56 2.56 7.68 10.24 7.68 23.04 5.12 43.52 7.68 66.56 7.68-2.56 5.12-5.12 12.8-7.68 20.48 5.12 2.56 12.8 5.12 17.92 7.68 2.56-7.68 7.68-17.92 10.24-25.6 25.6 0 46.08 2.56 71.68 0-2.56-2.56-2.56-12.8-2.56-15.36z m-17.92-220.16c-20.48 25.6-40.96 48.64-64 71.68-20.48-15.36-53.76-48.64-76.8-69.12-2.56 2.56-5.12 7.68-7.68 10.24 0 5.12-2.56 7.68 2.56 12.8 25.6 23.04 89.6 79.36 135.68 117.76 2.56-2.56 10.24-7.68 15.36-12.8-15.36-12.8-40.96-35.84-53.76-46.08 20.48-20.48 43.52-43.52 56.32-58.88 2.56-2.56 5.12-10.24 0-15.36 0-5.12-5.12-7.68-7.68-10.24z m53.76 48.64c-5.12 0-15.36-2.56-20.48-2.56-2.56 69.12-2.56 133.12 0 202.24h20.48c-2.56-66.56-7.68-133.12 0-199.68z m51.2 215.04c5.12-79.36 7.68-174.08 0-235.52 0-10.24-7.68-15.36-15.36-20.48-10.24-5.12-25.6-2.56-33.28-2.56-5.12 0-7.68 5.12-7.68 10.24 0 2.56-2.56 7.68-2.56 10.24 10.24-2.56 20.48-2.56 30.72-2.56 5.12 0 7.68 5.12 7.68 10.24 5.12 53.76 5.12 153.6 0 230.4h20.48zM678.4 258.56l-7.68 10.24c-15.36 20.48-33.28 40.96-53.76 61.44-17.92-15.36-46.08-40.96-66.56-61.44l-7.68-7.68-7.68 7.68c-2.56 2.56-7.68 7.68-10.24 17.92-2.56 10.24 0 20.48 5.12 25.6 25.6 25.6 92.16 81.92 135.68 117.76l7.68 7.68 7.68-7.68 7.68-7.68 10.24-10.24v53.76l-12.8-10.24c-46.08-35.84-92.16-74.24-140.8-117.76l-10.24-10.24-7.68 12.8c-2.56 2.56-5.12 10.24-7.68 15.36-2.56 7.68-2.56 17.92 5.12 23.04 10.24 10.24 20.48 17.92 28.16 25.6-2.56 0-7.68-2.56-10.24-2.56l-10.24-2.56-5.12 10.24c-2.56 5.12-5.12 10.24-5.12 17.92 0 10.24 2.56 17.92 7.68 20.48 7.68 7.68 15.36 12.8 20.48 20.48-7.68-2.56-15.36-2.56-20.48-5.12l-17.92-5.12 2.56 17.92c0 5.12 0 10.24 2.56 17.92 2.56 10.24 10.24 15.36 20.48 17.92 15.36 2.56 30.72 5.12 48.64 7.68v2.56l-5.12 15.36 15.36 7.68 15.36 7.68 12.8 5.12 7.68-15.36c2.56-5.12 5.12-7.68 5.12-12.8 20.48 0 40.96 2.56 64 0h2.56v10.24h48.64l-2.56-38.4c-2.56-56.32-5.12-117.76 0-176.64v-12.8H742.4h12.8c5.12 51.2 5.12 148.48 0 225.28v12.8h46.08v-12.8c5.12-107.52 5.12-186.88 0-238.08 0-10.24-5.12-23.04-20.48-30.72-15.36-7.68-38.4-5.12-43.52-2.56-12.8 2.56-17.92 15.36-17.92 20.48 0 5.12-2.56 10.24-2.56 12.8v10.24h-10.24v12.8c0 25.6-2.56 51.2-2.56 76.8l-2.56-2.56c-10.24-10.24-30.72-25.6-43.52-38.4l2.56-2.56c17.92-17.92 35.84-35.84 46.08-48.64 5.12-7.68 7.68-20.48 2.56-30.72-2.56-2.56-5.12-7.68-12.8-12.8l-17.92-5.12z m76.8 53.76z m-120.32 168.96c-10.24-7.68-17.92-12.8-28.16-20.48h10.24c5.12 5.12 15.36 10.24 23.04 17.92l5.12 2.56h-10.24z m46.08 2.56c2.56-2.56 5.12-2.56 7.68-5.12l12.8-10.24v15.36H680.96z"/></svg>