<?xml version="1.0" standalone="no"?><!DOCTYPE svg PUBLIC "-//W3C//DTD SVG 1.1//EN"
        "http://www.w3.org/Graphics/SVG/1.1/DTD/svg11.dtd"><svg viewBox="0 0 1024 1024" version="1.1" xmlns="http://www.w3.org/2000/svg" xmlns:xlink="http://www.w3.org/1999/xlink"><path transform="scale(1, -1) translate(0, -1024)" d="M640.1 704a64 64 0 1 0-128 0 64 64 0 1 0 128 0z m42.2-160C734.1 578.4 768.1 637.2 768.1 704c0 106-86 192-192 192s-192-86-192-192c0-66.8 34-125.6 85.8-160H448.1c-35.4 0-64-28.6-64-64s28.6-64 64-64h64v-416h-96c-106 0-192 86-192 192v12.2l14-14c18.8-18.8 49.2-18.8 67.8 0s18.8 49.2 0 67.8L194.1 370c-18.8 18.8-49.2 18.8-67.8 0L14.1 258c-18.8-18.8-18.8-49.2 0-67.8s49.2-18.8 67.8 0l14 14v-12.2c0-176.8 143.2-320 320-320h320c176.8 0 320 143.2 320 320v12.2l14-14c18.8-18.8 49.2-18.8 67.8 0s18.8 49.2 0 67.8l-112 112c-18.8 18.8-49.2 18.8-67.8 0l-112-112c-18.8-18.8-18.8-49.2 0-67.8s49.2-18.8 67.8 0l14 14v-12.2c0-106-86-192-192-192H640.1V416h64c35.4 0 64 28.6 64 64s-28.6 64-64 64h-21.8z"/></svg>