<?xml version="1.0" standalone="no"?><!DOCTYPE svg PUBLIC "-//W3C//DTD SVG 1.1//EN"
        "http://www.w3.org/Graphics/SVG/1.1/DTD/svg11.dtd"><svg viewBox="0 0 1024 1024" version="1.1" xmlns="http://www.w3.org/2000/svg" xmlns:xlink="http://www.w3.org/1999/xlink"><path transform="scale(1, -1) translate(0, -1024)" d="M511.4 418l272 272c18.8 18.8 49.2 18.8 67.8 0l45.2-45.2c18.8-18.8 18.8-49.2 0-67.8L703.8 384l192.8-192.8c18.8-18.8 18.8-49.2 0-67.8L851.4 78c-18.8-18.8-49.2-18.8-67.8 0l-272 272c-19 18.8-19 49.2-0.2 68z m-384-68l272-272c18.8-18.8 49.2-18.8 67.8 0l45.2 45.2c18.8 18.8 18.8 49.2 0 67.8L319.8 384l192.8 192.8c18.8 18.8 18.8 49.2 0 67.8L467.4 690c-18.8 18.8-49.2 18.8-67.8 0l-272-272c-19-18.8-19-49.2-0.2-68z"/></svg>