<?xml version="1.0" standalone="no"?><!DOCTYPE svg PUBLIC "-//W3C//DTD SVG 1.1//EN"
        "http://www.w3.org/Graphics/SVG/1.1/DTD/svg11.dtd"><svg viewBox="0 0 1024 1024" version="1.1" xmlns="http://www.w3.org/2000/svg" xmlns:xlink="http://www.w3.org/1999/xlink"><path transform="scale(1, -1) translate(0, -1024)" d="M478 383.4L206 655.4c-18.8 18.8-18.8 49.2 0 67.8l45.2 45.2c18.8 18.8 49.2 18.8 67.8 0l192.8-192.8 192.8 192.8c18.8 18.8 49.2 18.8 67.8 0L818 723.4c18.8-18.8 18.8-49.2 0-67.8l-272-272c-18.8-19-49.2-19-68-0.2z m68-384l272 272c18.8 18.8 18.8 49.2 0 67.8l-45.2 45.2c-18.8 18.8-49.2 18.8-67.8 0L512 191.8l-192.8 192.8c-18.8 18.8-49.2 18.8-67.8 0L206 339.4c-18.8-18.8-18.8-49.2 0-67.8l272-272c18.8-19 49.2-19 68-0.2z"/></svg>