<?xml version="1.0" standalone="no"?><!DOCTYPE svg PUBLIC "-//W3C//DTD SVG 1.1//EN"
        "http://www.w3.org/Graphics/SVG/1.1/DTD/svg11.dtd"><svg viewBox="0 0 1024 1024" version="1.1" xmlns="http://www.w3.org/2000/svg" xmlns:xlink="http://www.w3.org/1999/xlink"><path transform="scale(1, -1) translate(0, -1024)" d="M941.2 338.8c25 25 25 65.6 0 90.6l-320 320c-25 25-65.6 25-90.6 0s-25-65.6 0-90.6L805.4 384 530.8 109.2c-25-25-25-65.6 0-90.6s65.6-25 90.6 0l320 320z m-704-320l320 320c25 25 25 65.6 0 90.6l-320 320c-25 25-65.6 25-90.6 0s-25-65.6 0-90.6L421.4 384 146.8 109.2c-25-25-25-65.6 0-90.6s65.6-25 90.6 0z"/></svg>