<?xml version="1.0" standalone="no"?><!DOCTYPE svg PUBLIC "-//W3C//DTD SVG 1.1//EN"
        "http://www.w3.org/Graphics/SVG/1.1/DTD/svg11.dtd"><svg viewBox="0 0 1024 1024" version="1.1" xmlns="http://www.w3.org/2000/svg" xmlns:xlink="http://www.w3.org/1999/xlink"><path transform="scale(1, -1) translate(0, -1024)" d="M813.35 146.8l192 192c25 25 25 65.6 0 90.6l-192 192c-25 25-65.6 25-90.6 0s-25-65.6 0-90.6l82.8-82.8H218.55l82.8 82.8c25 25 25 65.6 0 90.6s-65.6 25-90.6 0l-192-192c-25-25-25-65.6 0-90.6l192-192c25-25 65.6-25 90.6 0s25 65.6 0 90.6L218.75 320h587l-82.8-82.8c-25-25-25-65.6 0-90.6s65.6-25 90.6 0z"/></svg>