<?xml version="1.0" standalone="no"?><!DOCTYPE svg PUBLIC "-//W3C//DTD SVG 1.1//EN"
        "http://www.w3.org/Graphics/SVG/1.1/DTD/svg11.dtd"><svg viewBox="0 0 1024 1024" version="1.1" xmlns="http://www.w3.org/2000/svg" xmlns:xlink="http://www.w3.org/1999/xlink"><path transform="scale(1, -1) translate(0, -1024)" d="M511.90002 896c35.393087 0 63.987502-28.594415 63.987502-63.987502v-63.987503h63.987502c25.794962 0 49.190393-15.596954 59.18844-39.592267s4.399141-51.389963-13.797305-69.78637l-127.975005-127.975005c-24.995118-24.995118-65.58719-24.995118-90.582308 0l-127.975005 127.975005c-18.396407 18.396407-23.795352 45.791056-13.797305 69.78637S358.130053 768.024995 384.124976 768.024995h63.987502V832.012498c0 35.393087 28.594415 63.987502 63.987502 63.987502z m-173.166179-786.646358l127.975005 127.975005c24.995118 24.995118 65.58719 24.995118 90.582308 0l127.975005-127.975005c18.396407-18.396407 23.795352-45.791056 13.797305-69.78637S665.869947-0.024995 639.875024-0.024995h-63.987502v-63.987503c0-35.393087-28.594415-63.987502-63.987502-63.987502s-63.987502 28.594415-63.987503 63.987502V0.174966h-63.987502c-25.794962 0-49.190393 15.596954-59.18844 39.592267s-4.399141 51.389963 13.797305 69.78637zM63.987502 448.087483h63.987503v63.987502c0 25.794962 15.596954 49.190393 39.592267 59.18844s51.389963 4.399141 69.78637-13.797305l127.975005-127.975005c24.995118-24.995118 24.995118-65.58719 0-90.582308l-127.975005-127.975005c-18.396407-18.396407-45.791056-23.795352-69.78637-13.797305S127.975005 230.330014 127.975005 256.324937V320.112478H63.987502c-35.393087 0-63.987502 28.594415-63.987502 63.987502s28.594415 63.987502 63.987502 63.987503z m594.683851-109.178676c-24.995118 24.995118-24.995118 65.58719 0 90.582308l127.975005 127.975005c18.396407 18.396407 45.791056 23.795352 69.78637 13.797305s39.592267-33.193517 39.592267-59.18844v-63.987502h63.987503c35.393087 0 63.987502-28.594415 63.987502-63.987503s-28.594415-63.987502-63.987502-63.987502H895.825034v-63.987502c0-25.794962-15.596954-49.190393-39.592267-59.18844s-51.389963-4.399141-69.78637 13.797305l-127.975005 127.975005zM511.90002 448.087483a63.987502 63.987502 0 1 0 0-127.975005 63.987502 63.987502 0 1 0 0 127.975005z"/></svg>