<?xml version="1.0" standalone="no"?><!DOCTYPE svg PUBLIC "-//W3C//DTD SVG 1.1//EN"
        "http://www.w3.org/Graphics/SVG/1.1/DTD/svg11.dtd"><svg viewBox="0 0 1024 1024" version="1.1" xmlns="http://www.w3.org/2000/svg" xmlns:xlink="http://www.w3.org/1999/xlink"><path transform="scale(1, -1) translate(0, -1024)" d="M210.2 490.8c15.4 43.6 40.4 84.6 75.6 119.6 125 125 327.6 125 452.6 0l34.2-34.4H672c-35.4 0-64-28.6-64-64s28.6-64 64-64h255.8c35.4 0 64 28.6 64 64V768c0 35.4-28.6 64-64 64s-64-28.6-64-64v-102.4l-35 35.2c-175 175-458.6 175-633.6 0-48.8-48.8-84-106.2-105.6-167.6-11.8-33.4 5.8-69.8 39-81.6s69.8 5.8 81.6 39zM78 317.4c-10-3-19.6-8.4-27.4-16.4-8-8-13.4-17.6-16.2-28-0.6-2.4-1.2-5-1.6-7.6-0.6-3.4-0.8-6.8-0.8-10.2V0c0-35.4 28.6-64 64-64s64 28.6 64 64v102.2l35.2-35c175-174.8 458.6-174.8 633.4 0 48.8 48.8 84.2 106.2 105.8 167.4 11.8 33.4-5.8 69.8-39 81.6s-69.8-5.8-81.6-39c-15.4-43.6-40.4-84.6-75.6-119.6-125-125-327.6-125-452.6 0l-0.2 0.2-34.2 34.2H352c35.4 0 64 28.6 64 64s-28.6 64-64 64H96.8c-3.2 0-6.4-0.2-9.6-0.6s-6.2-1-9.2-2z"/></svg>