<?xml version="1.0" standalone="no"?><!DOCTYPE svg PUBLIC "-//W3C//DTD SVG 1.1//EN"
        "http://www.w3.org/Graphics/SVG/1.1/DTD/svg11.dtd"><svg viewBox="0 0 1024 1024" version="1.1" xmlns="http://www.w3.org/2000/svg" xmlns:xlink="http://www.w3.org/1999/xlink"><path transform="scale(1, -1) translate(0, -1024)" d="M928 576c17.6 0 32-14.4 32-32v-320c0-17.6-14.4-32-32-32H160c-17.6 0-32 14.4-32 32V544c0 17.6 14.4 32 32 32h768zM160 704c-88.4 0-160-71.6-160-160v-320c0-88.4 71.6-160 160-160h768c88.4 0 160 71.6 160 160v32c35.4 0 64 28.6 64 64v128c0 35.4-28.6 64-64 64v32c0 88.4-71.6 160-160 160H160z m416-192H192v-256h384V512z"/></svg>