<?xml version="1.0" standalone="no"?><!DOCTYPE svg PUBLIC "-//W3C//DTD SVG 1.1//EN"
        "http://www.w3.org/Graphics/SVG/1.1/DTD/svg11.dtd"><svg viewBox="0 0 1024 1024" version="1.1" xmlns="http://www.w3.org/2000/svg" xmlns:xlink="http://www.w3.org/1999/xlink"><path transform="scale(1, -1) translate(0, -1024)" d="M977.2 687.8c33.4-36.2 48.8-79.4 46.6-131.4v-404.8c-0.8-52.8-18.4-96.2-53-130.2-34.4-34-78.2-51.8-131-53.4H184.04c-52.9 1.6-96.42 19.6-130.56 54.4C19.364 57.2 1.534 103 0 159.6V556.4c1.534 52 19.364 95.2 53.48 131.4C87.62 720.5 131.14 738.46 184.04 740h58.76L192.1 791.62c-11.5 11.46-17.26 26-17.26 43.58 0 17.6 5.76 32.12 17.26 43.594C203.6 890.264 218.2 896 235.8 896s32.2-5.736 43.8-17.206L426.2 740h176l149 138.794C763.4 890.264 778.4 896 796 896c17.6 0 32.2-5.736 43.8-17.206 11.4-11.474 17.2-25.994 17.2-43.594 0-17.58-5.8-32.12-17.2-43.58L789.2 740h58.6c52.8-1.54 96-19.5 129.4-52.2z m-77.6-139.4c-0.8 19.2-7.4 34.8-21.4 47-10.4 12.2-28 18.8-45.4 19.6H192.1c-19.18-0.8-34.9-7.4-47.16-19.6-12.28-12.2-18.8-27.8-19.56-47v-388.8c0-18.4 6.52-34 19.56-47s28.76-19.6 47.16-19.6H832.8c18.4 0 34 6.6 46.6 19.6 12.6 13 19.4 28.6 20.2 47V548.4z m-528.6-85.4c12.6-12.6 19.4-28.2 20.2-46.4V350c-0.8-18.4-7.4-33.8-19.6-46.4-12.4-12.6-28-19-47.2-19-19.2 0-35 6.4-47.2 19-12.2 12.6-18.8 28-19.6 46.4v66.6c0.8 18.2 7.6 33.8 20.2 46.4 12.6 12.6 26.4 19.2 46.6 20 18.4-0.8 34-7.4 46.6-20z m383 0c12.6-12.6 19.4-28.2 20.2-46.4V350c-0.8-18.4-7.4-33.8-19.6-46.4-12.2-12.6-28-19-47.2-19-19.2 0-34.8 6.4-47.2 19-14 12.6-18.8 28-19.4 46.4v66.6c0.6 18.2 7.4 33.8 20 46.4 12.6 12.6 28.2 19.2 46.6 20 18.4-0.8 34-7.4 46.6-20z"/></svg>