<?xml version="1.0" standalone="no"?><!DOCTYPE svg PUBLIC "-//W3C//DTD SVG 1.1//EN"
        "http://www.w3.org/Graphics/SVG/1.1/DTD/svg11.dtd"><svg viewBox="0 0 1024 1024" version="1.1" xmlns="http://www.w3.org/2000/svg" xmlns:xlink="http://www.w3.org/1999/xlink"><path transform="scale(1, -1) translate(0, -1024)" d="M499.2-47c21.6-7.6 44.8 8.2 44.8 31V738.8c0 8.4-3.2 16.8-10 22C494.8 792 404.8 832 288 832 187 832 92.6 805.4 36.2 783.8 13.6 775 0 752.6 0 728.4v-740.6c0-23.8 25.6-40.4 48.2-33C111.2-24.2 211 0 288 0c67.8 0 158-28 211.2-47z m153.6 0C706-28 796.2 0 864 0c77 0 176.8-24.2 239.8-45.2 22.6-7.6 48.2 9.2 48.2 33V728.4c0 24.2-13.6 46.6-36.2 55.2C1059.4 805.4 965 832 864 832c-116.8 0-206.8-40-246-71.2-6.6-5.2-10-13.6-10-22V-16c0-22.8 23.4-38.6 44.8-31z"/></svg>