<?xml version="1.0" standalone="no"?><!DOCTYPE svg PUBLIC "-//W3C//DTD SVG 1.1//EN"
        "http://www.w3.org/Graphics/SVG/1.1/DTD/svg11.dtd"><svg viewBox="0 0 1024 1024" version="1.1" xmlns="http://www.w3.org/2000/svg" xmlns:xlink="http://www.w3.org/1999/xlink"><path transform="scale(1, -1) translate(0, -1024)" d="M256 896C150 896 64 810 64 704v-640c0-106 86-192 192-192h640c35.4 0 64 28.6 64 64s-28.6 64-64 64v128c35.4 0 64 28.6 64 64V832c0 35.4-28.6 64-64 64H256z m0-768h512v-128H256c-35.4 0-64 28.6-64 64s28.6 64 64 64z m64 480c0 17.6 14.4 32 32 32h384c17.6 0 32-14.4 32-32s-14.4-32-32-32H352c-17.6 0-32 14.4-32 32z m32-96h384c17.6 0 32-14.4 32-32s-14.4-32-32-32H352c-17.6 0-32 14.4-32 32s14.4 32 32 32z"/></svg>