<?xml version="1.0" standalone="no"?><!DOCTYPE svg PUBLIC "-//W3C//DTD SVG 1.1//EN"
        "http://www.w3.org/Graphics/SVG/1.1/DTD/svg11.dtd"><svg viewBox="0 0 1024 1024" version="1.1" xmlns="http://www.w3.org/2000/svg" xmlns:xlink="http://www.w3.org/1999/xlink"><path transform="scale(1, -1) translate(0, -1024)" d="M64 832h896c35.4 0 64-28.6 64-64v-64c0-35.4-28.6-64-64-64H64c-35.4 0-64 28.6-64 64V768c0 35.4 28.6 64 64 64z m0-256h896v-512c0-70.6-57.4-128-128-128H192c-70.6 0-128 57.4-128 128V576z m256-160c0-17.6 14.4-32 32-32h320c17.6 0 32 14.4 32 32s-14.4 32-32 32H352c-17.6 0-32-14.4-32-32z"/></svg>