<?xml version="1.0" standalone="no"?><!DOCTYPE svg PUBLIC "-//W3C//DTD SVG 1.1//EN"
        "http://www.w3.org/Graphics/SVG/1.1/DTD/svg11.dtd"><svg viewBox="0 0 1024 1024" version="1.1" xmlns="http://www.w3.org/2000/svg" xmlns:xlink="http://www.w3.org/1999/xlink"><path transform="scale(1, -1) translate(0, -1024)" d="M959.89563 831.89563c0 25.797195-15.598304 49.194651-39.595695 59.193564S868.905523 895.488716 850.507524 877.290694L763.317004 789.900196c-95.989563-95.989563-226.175408-149.983692-361.960644-149.983692H127.986084c-70.592324 0-127.986084-57.39376-127.986084-127.986084v-191.979126c0-70.592324 57.39376-127.986084 127.986084-127.986084v-255.972168c0-35.396151 28.596891-63.993042 63.993042-63.993042h127.986084c35.396151 0 63.993042 28.596891 63.993042 63.993042V191.96521h17.398108c135.785236 0 265.971081-53.994129 361.960644-149.983692l87.19052-87.19052c18.398-18.398 45.795021-23.797412 69.792411-13.7985s39.595695 33.196391 39.595695 59.193564V295.15399c37.195956 17.598087 63.993042 64.992933 63.993042 120.786867s-26.797086 103.18878-63.993042 120.786867V831.89563z m-127.986084-153.383322v-525.142901C714.322331 260.357774 560.939009 319.951294 401.35636 319.951294H383.958252v191.979126h17.398108c159.582649 0 312.965971 59.59352 430.553186 166.581888z"/></svg>