<?xml version="1.0" standalone="no"?><!DOCTYPE svg PUBLIC "-//W3C//DTD SVG 1.1//EN"
        "http://www.w3.org/Graphics/SVG/1.1/DTD/svg11.dtd"><svg viewBox="0 0 1024 1024" version="1.1" xmlns="http://www.w3.org/2000/svg" xmlns:xlink="http://www.w3.org/1999/xlink"><path transform="scale(1, -1) translate(0, -1024)" d="M512 85.333333a42.666667 42.666667 0 1 1-42.666667 42.666667 42.666667 42.666667 0 0 1 42.666667-42.666667z m213.333333 0a42.666667 42.666667 0 1 1-42.666666 42.666667 42.666667 42.666667 0 0 1 42.666666-42.666667z m0 170.666667a42.666667 42.666667 0 1 1-42.666666 42.666667 42.666667 42.666667 0 0 1 42.666666-42.666667z m-213.333333 0a42.666667 42.666667 0 1 1-42.666667 42.666667 42.666667 42.666667 0 0 1 42.666667-42.666667z m298.666667 512h-42.666667V810.666667a42.666667 42.666667 0 0 1-85.333333 0v-42.666667H341.333333V810.666667a42.666667 42.666667 0 0 1-85.333333 0v-42.666667H213.333333a128 128 0 0 1-128-128v-597.333333a128 128 0 0 1 128-128h597.333334a128 128 0 0 1 128 128V640a128 128 0 0 1-128 128z m42.666666-725.333333a42.666667 42.666667 0 0 0-42.666666-42.666667H213.333333a42.666667 42.666667 0 0 0-42.666666 42.666667v384h682.666666z m0 469.333333H170.666667V640a42.666667 42.666667 0 0 0 42.666666 42.666667h42.666667v-42.666667a42.666667 42.666667 0 0 1 85.333333 0V682.666667h341.333334v-42.666667a42.666667 42.666667 0 0 1 85.333333 0V682.666667h42.666667a42.666667 42.666667 0 0 0 42.666666-42.666667zM298.666667 256a42.666667 42.666667 0 1 1-42.666667 42.666667 42.666667 42.666667 0 0 1 42.666667-42.666667z m0-170.666667a42.666667 42.666667 0 1 1-42.666667 42.666667 42.666667 42.666667 0 0 1 42.666667-42.666667z"/></svg>