<?xml version="1.0" standalone="no"?><!DOCTYPE svg PUBLIC "-//W3C//DTD SVG 1.1//EN"
        "http://www.w3.org/Graphics/SVG/1.1/DTD/svg11.dtd"><svg viewBox="0 0 1024 1024" version="1.1" xmlns="http://www.w3.org/2000/svg" xmlns:xlink="http://www.w3.org/1999/xlink"><path transform="scale(1, -1) translate(0, -1024)" d="M368 848c0 26.6-21.4 48-48 48s-48-21.4-48-48v-80H192C121.4 768 64 710.6 64 640v-640c0-70.6 57.4-128 128-128h640c70.6 0 128 57.4 128 128V640c0 70.6-57.4 128-128 128h-80V848c0 26.6-21.4 48-48 48s-48-21.4-48-48v-80H368V848zM160 512h160v-112H160v112z m0-208h160v-128H160v128z m256 0h192v-128h-192v128z m288 0h160v-128h-160v128z m160 96h-160v112h160v-112z m0-320v-80c0-17.6-14.4-32-32-32h-128v112h160z m-256 0v-112h-192v112h192z m-288 0v-112H192c-17.6 0-32 14.4-32 32v80h160z m288 320h-192v112h192v-112z"/></svg>