<?xml version="1.0" standalone="no"?><!DOCTYPE svg PUBLIC "-//W3C//DTD SVG 1.1//EN"
        "http://www.w3.org/Graphics/SVG/1.1/DTD/svg11.dtd"><svg viewBox="0 0 1024 1024" version="1.1" xmlns="http://www.w3.org/2000/svg" xmlns:xlink="http://www.w3.org/1999/xlink"><path transform="scale(1, -1) translate(0, -1024)" d="M128 768c0 35.4-28.6 64-64 64S0 803.4 0 768v-672c0-88.4 71.6-160 160-160h800c35.4 0 64 28.6 64 64s-28.6 64-64 64H160c-17.6 0-32 14.4-32 32V768z m813.2-173.2c25 25 25 65.6 0 90.6s-65.6 25-90.6 0L640 474.6l-114.8 114.8c-25 25-65.6 25-90.6 0l-224-224c-25-25-25-65.6 0-90.6s65.6-25 90.6 0l178.8 178.6 114.8-114.8c25-25 65.6-25 90.6 0l256 256z"/></svg>