<?xml version="1.0" standalone="no"?><!DOCTYPE svg PUBLIC "-//W3C//DTD SVG 1.1//EN"
        "http://www.w3.org/Graphics/SVG/1.1/DTD/svg11.dtd"><svg viewBox="0 0 1024 1024" version="1.1" xmlns="http://www.w3.org/2000/svg" xmlns:xlink="http://www.w3.org/1999/xlink"><path transform="scale(1, -1) translate(0, -1024)" d="M512-128a512 512 0 1 1 0 1024 512 512 0 1 1 0-1024z m-80 352h48v128h-48c-26.6 0-48 21.4-48 48s21.4 48 48 48h96c26.6 0 48-21.4 48-48v-176h16c26.6 0 48-21.4 48-48s-21.4-48-48-48h-160c-26.6 0-48 21.4-48 48s21.4 48 48 48z m80 416a64 64 0 1 0 0-128 64 64 0 1 0 0 128z"/></svg>