<?xml version="1.0" standalone="no"?><!DOCTYPE svg PUBLIC "-//W3C//DTD SVG 1.1//EN"
        "http://www.w3.org/Graphics/SVG/1.1/DTD/svg11.dtd"><svg viewBox="0 0 1024 1024" version="1.1" xmlns="http://www.w3.org/2000/svg" xmlns:xlink="http://www.w3.org/1999/xlink"><path transform="scale(1, -1) translate(0, -1024)" d="M0 384a512 512 0 1 1 1024 0 512 512 0 1 1-1024 0z m562-258c-18.8-18.8-49.2-18.8-67.8 0s-18.8 49.2 0 67.8l142 142L272 336c-26.6 0-48 21.4-48 48s21.4 48 48 48h364.2l-142 142c-18.8 18.8-18.8 49.2 0 67.8s49.2 18.8 67.8 0L786 418c18.8-18.8 18.8-49.2 0-67.8L562 126z"/></svg>