<?xml version="1.0" standalone="no"?><!DOCTYPE svg PUBLIC "-//W3C//DTD SVG 1.1//EN"
        "http://www.w3.org/Graphics/SVG/1.1/DTD/svg11.dtd"><svg viewBox="0 0 1024 1024" version="1.1" xmlns="http://www.w3.org/2000/svg" xmlns:xlink="http://www.w3.org/1999/xlink"><path transform="scale(1, -1) translate(0, -1024)" d="M725.44 753.6c204.16-117.76 273.92-378.88 156.16-582.72-117.76-204.16-378.88-273.92-582.72-156.16-127.68 73.6-208.32 208.32-213.12 355.52V384v13.76c7.68 235.52 204.8 420.16 440.32 412.48 70.08-2.24 138.56-21.76 199.36-56.96zM640 554.88h-261.12c-21.44-2.88-37.76-21.12-37.76-42.56v-5.12c2.88-21.44 21.12-37.76 42.56-37.76h152.96l-183.04-183.04-3.52-4.16c-14.4-18.56-10.88-45.44 7.68-59.84 16.96-13.12 40.96-11.52 56.32 3.52l183.04 183.04v-158.08c3.2-23.36 24.32-40 47.68-37.44 21.44 2.56 37.76 20.8 37.76 42.24v261.44l-1.6 6.4-1.6 4.48-2.24 4.8-2.88 4.8c-1.28 1.6-2.56 3.2-4.16 4.8l-3.84 3.52-4.16 2.88-4.16 2.24-4.8 1.92-4.8 1.28-5.44 0.64h-3.2z"/></svg>