<?xml version="1.0" standalone="no"?><!DOCTYPE svg PUBLIC "-//W3C//DTD SVG 1.1//EN"
        "http://www.w3.org/Graphics/SVG/1.1/DTD/svg11.dtd"><svg viewBox="0 0 1024 1024" version="1.1" xmlns="http://www.w3.org/2000/svg" xmlns:xlink="http://www.w3.org/1999/xlink"><path transform="scale(1, -1) translate(0, -1024)" d="M512.1039 0c282.8 0 512 186.2 512 416S794.9039 832 512.1039 832 0.1039 645.8 0.1039 416c0-90.2 35.4-173.6 95.4-241.8-3.8-49-22.8-92.6-42.8-125.8-11-18.4-22.2-33.2-30.4-43.2-4.2-5-7.4-8.8-9.8-11.4-1.2-1.2-2-2.2-2.6-2.8l-0.6-0.6c-9.2-9.2-11.8-22.8-6.8-34.8 5-12 16.6-19.8 29.6-19.8 57.4 0 115.2 17.8 163.2 38.6 45.8 20 84.8 43.8 108.6 61.2 63.6-23 134-35.8 208.2-35.8z m-64 576c0 17.6 14.4 32 32 32h64c17.6 0 32-14.4 32-32v-96h96c17.6 0 32-14.4 32-32v-64c0-17.6-14.4-32-32-32h-96v-96c0-17.6-14.4-32-32-32h-64c-17.6 0-32 14.4-32 32v96h-96c-17.6 0-32 14.4-32 32v64c0 17.6 14.4 32 32 32h96v96z"/></svg>