<?xml version="1.0" standalone="no"?><!DOCTYPE svg PUBLIC "-//W3C//DTD SVG 1.1//EN"
        "http://www.w3.org/Graphics/SVG/1.1/DTD/svg11.dtd"><svg viewBox="0 0 1024 1024" version="1.1" xmlns="http://www.w3.org/2000/svg" xmlns:xlink="http://www.w3.org/1999/xlink"><path transform="scale(1, -1) translate(0, -1024)" d="M0 384a512 512 0 1 0 1024 0 512 512 0 1 0-1024 0z m512-64a64 64 0 1 0 0 128 64 64 0 1 0 0-128z m-192 64a192 192 0 1 1 384 0 192 192 0 1 1-384 0z m-128 32c0 70 35 142.2 90.4 197.6S410 704 480 704c17.6 0 32 14.4 32 32s-14.4 32-32 32c-90.8 0-178.4-44.6-243-109S128 506.8 128 416c0-17.6 14.4-32 32-32s32 14.4 32 32z"/></svg>