<?xml version="1.0" standalone="no"?><!DOCTYPE svg PUBLIC "-//W3C//DTD SVG 1.1//EN"
        "http://www.w3.org/Graphics/SVG/1.1/DTD/svg11.dtd"><svg viewBox="0 0 1024 1024" version="1.1" xmlns="http://www.w3.org/2000/svg" xmlns:xlink="http://www.w3.org/1999/xlink"><path transform="scale(1, -1) translate(0, -1024)" d="M512-128a512 512 0 1 1 0 1024 512 512 0 1 1 0-1024z m-113.2 398.8c62.4-62.4 163.8-62.4 226.2 0 18.8 18.8 49.2 18.8 67.8 0s18.8-49.2 0-67.8c-100-100-262-100-362 0s-100 262 0 362 262 100 362 0c18.8-18.8 18.8-49.2 0-67.8s-49.2-18.8-67.8 0c-62.4 62.4-163.8 62.4-226.2 0s-62.4-163.8 0-226.2z"/></svg>