<?xml version="1.0" standalone="no"?><!DOCTYPE svg PUBLIC "-//W3C//DTD SVG 1.1//EN"
        "http://www.w3.org/Graphics/SVG/1.1/DTD/svg11.dtd"><svg viewBox="0 0 1024 1024" version="1.1" xmlns="http://www.w3.org/2000/svg" xmlns:xlink="http://www.w3.org/1999/xlink"><path transform="scale(1, -1) translate(0, -1024)" d="M694.954667 493.738667A213.290667 213.290667 0 0 1 298.666667 384a213.290667 213.290667 0 0 1 396.288-109.738667l-73.173334 43.861334A128 128 0 1 0 512 512c46.634667 0 87.466667-24.917333 109.781333-62.165333l73.173334 43.946666zM938.666667 384c0 235.52-191.146667 426.666667-426.666667 426.666667S85.333333 619.52 85.333333 384s191.146667-426.666667 426.666667-426.666667 426.666667 191.146667 426.666667 426.666667zM170.666667 384c0 188.586667 152.746667 341.333333 341.333333 341.333333s341.333333-152.746667 341.333333-341.333333-152.746667-341.333333-341.333333-341.333333-341.333333 152.746667-341.333333 341.333333z"/></svg>