<?xml version="1.0" standalone="no"?><!DOCTYPE svg PUBLIC "-//W3C//DTD SVG 1.1//EN"
        "http://www.w3.org/Graphics/SVG/1.1/DTD/svg11.dtd"><svg viewBox="0 0 1024 1024" version="1.1" xmlns="http://www.w3.org/2000/svg" xmlns:xlink="http://www.w3.org/1999/xlink"><path transform="scale(1, -1) translate(0, -1024)" d="M544 896h248.2C817.6 896 842 885.8 860 867.8L995.8 732c18-18 28.2-42.4 28.2-67.8V224c0-53-43-96-96-96H544c-53 0-96 43-96 96V800c0 53 43 96 96 96zM96 640h288v-128H128v-512h384v64h128v-96c0-53-43-96-96-96H96c-53 0-96 43-96 96V544c0 53 43 96 96 96z"/></svg>