<?xml version="1.0" standalone="no"?><!DOCTYPE svg PUBLIC "-//W3C//DTD SVG 1.1//EN"
        "http://www.w3.org/Graphics/SVG/1.1/DTD/svg11.dtd"><svg viewBox="0 0 1024 1024" version="1.1" xmlns="http://www.w3.org/2000/svg" xmlns:xlink="http://www.w3.org/1999/xlink"><path transform="scale(1, -1) translate(0, -1024)" d="M512 810.666667C276.352 810.666667 85.333333 619.648 85.333333 384s191.018667-426.666667 426.666667-426.666667 426.666667 191.018667 426.666667 426.666667S747.648 810.666667 512 810.666667zM302.677333 653.653333A341.333333 341.333333 0 0 0 781.653333 174.72l-91.904 91.904A106.666667 106.666667 0 0 1 597.333333 426.666667h-170.666666a21.333333 21.333333 0 0 0 0 42.709333h234.666666V554.666667H554.666667V640h-85.333334v-85.333333h-42.666666c-7.765333 0-15.317333-0.853333-22.613334-2.389334L302.677333 653.653333zM242.346667 593.322667L334.293333 501.333333A106.666667 106.666667 0 0 1 426.666667 341.333333h170.666666a21.333333 21.333333 0 0 0 0-42.709333H362.666667v-85.333333H469.333333v-85.333334h85.333334v85.333334h42.666666c7.765333 0 15.317333 0.853333 22.613334 2.389333l101.376-101.376A341.333333 341.333333 0 0 0 242.346667 593.28z"/></svg>