<?xml version="1.0" standalone="no"?><!DOCTYPE svg PUBLIC "-//W3C//DTD SVG 1.1//EN"
        "http://www.w3.org/Graphics/SVG/1.1/DTD/svg11.dtd"><svg viewBox="0 0 1024 1024" version="1.1" xmlns="http://www.w3.org/2000/svg" xmlns:xlink="http://www.w3.org/1999/xlink"><path transform="scale(1, -1) translate(0, -1024)" d="M597.333333 597.333333a85.333333 85.333333 0 1 0-170.666666 0 85.333333 85.333333 0 0 0 170.666666 0z m42.666667-170.666666a42.666667 42.666667 0 0 1-42.666667 42.666666h-170.666666a42.666667 42.666667 0 0 1-42.666667-42.666666v-170.666667h64v-170.666667h128v170.666667H640v170.666667z m-128 384C276.352 810.666667 85.333333 619.648 85.333333 384s191.018667-426.666667 426.666667-426.666667 426.666667 191.018667 426.666667 426.666667S747.648 810.666667 512 810.666667zM170.666667 384a341.333333 341.333333 0 1 0 682.666666 0 341.333333 341.333333 0 0 0-682.666666 0z"/></svg>