<?xml version="1.0" standalone="no"?><!DOCTYPE svg PUBLIC "-//W3C//DTD SVG 1.1//EN"
        "http://www.w3.org/Graphics/SVG/1.1/DTD/svg11.dtd"><svg viewBox="0 0 1024 1024" version="1.1" xmlns="http://www.w3.org/2000/svg" xmlns:xlink="http://www.w3.org/1999/xlink"><path transform="scale(1, -1) translate(0, -1024)" d="M469 884.6c27.8 10 58.2 10 86.2 0l384-137.2c50.8-18.2 84.8-66.4 84.8-120.6v-485.6c0-54-34-102.4-85-120.6l-384-137.2c-27.8-10-58.2-10-86.2 0l-384 137.2C34 38.8 0 87 0 141.2V626.8c0 54 34 102.4 85 120.6l384 137.2zM512 764L164.6 640 512 516l347.4 124L512 764z m64-737.2l320 114.2v376l-320-114.2v-376z"/></svg>