<?xml version="1.0" standalone="no"?><!DOCTYPE svg PUBLIC "-//W3C//DTD SVG 1.1//EN"
        "http://www.w3.org/Graphics/SVG/1.1/DTD/svg11.dtd"><svg viewBox="0 0 1024 1024" version="1.1" xmlns="http://www.w3.org/2000/svg" xmlns:xlink="http://www.w3.org/1999/xlink"><path transform="scale(1, -1) translate(0, -1024)" d="M549.8 827.4c-56.2 56.2-147.4 56.2-203.6 0L68.6 549.8c-56.2-56.2-56.2-147.4 0-203.6l277.6-277.6c56.2-56.2 147.4-56.2 203.6 0l277.6 277.6c56.2 56.2 56.2 147.4 0 203.6L549.8 827.4zM400 448a48 48 0 1 0 96 0 48 48 0 1 0-96 0zM192 496a48 48 0 1 0 0-96 48 48 0 1 0 0 96z m256-352a48 48 0 1 0 0 96 48 48 0 1 0 0-96z m256 352a48 48 0 1 0 0-96 48 48 0 1 0 0 96z m-256 160a48 48 0 1 0 0 96 48 48 0 1 0 0-96z m192-656c0-70.6 57.4-128 128-128h384c70.6 0 128 57.4 128 128V384c0 70.6-57.4 128-128 128H923.4c23.2-72 6.2-154-50.8-211L640 68.4V0z m320 240a48 48 0 1 0 0-96 48 48 0 1 0 0 96z"/></svg>