<?xml version="1.0" standalone="no"?><!DOCTYPE svg PUBLIC "-//W3C//DTD SVG 1.1//EN"
        "http://www.w3.org/Graphics/SVG/1.1/DTD/svg11.dtd"><svg viewBox="0 0 1024 1024" version="1.1" xmlns="http://www.w3.org/2000/svg" xmlns:xlink="http://www.w3.org/1999/xlink"><path transform="scale(1, -1) translate(0, -1024)" d="M321.6 703c28-34 62-61.8 99-84.4 51.8-31.6 107.4-51.8 155.4-63.2v63c-44.4 60.6-76 134.6-78.8 221.6-0.8 22.6-15 43-36.8 48.8-15.2 4-31.6 0.4-42-11.6-26.6-30.8-65.4-89.2-96.8-174.4zM640 608v-128c-121.6 10.2-370 87.6-438.6 314.4C194.8 816 175.8 832 153.2 832c-15.8 0-30.6-7.8-37.6-22C93.6 764.2 64 671.8 64 544c0-233.8 160.2-361 236.8-405.6L23.6 62.8C13.4 60 5.2 52.4 1.8 42.4s-1.6-21.2 4.6-29.6C43.4-36.4 154.6-128 320-128c7.2 0 14.4 2.4 20 7l151.2 121H640c176.8 0 320 143.2 320 320V640l59.8 89.8c2.6 4 4.2 8.8 4.2 13.6 0 13.6-11 24.6-24.6 24.6H800c-88.4 0-160-71.6-160-160z m160 32a32 32 0 1 0 0-64 32 32 0 1 0 0 64z"/></svg>