<?xml version="1.0" standalone="no"?><!DOCTYPE svg PUBLIC "-//W3C//DTD SVG 1.1//EN"
        "http://www.w3.org/Graphics/SVG/1.1/DTD/svg11.dtd"><svg viewBox="0 0 1024 1024" version="1.1" xmlns="http://www.w3.org/2000/svg" xmlns:xlink="http://www.w3.org/1999/xlink"><path transform="scale(1, -1) translate(0, -1024)" d="M576 832c0 35.4-28.6 64-64 64s-64-28.6-64-64v-485.4l-146.8 146.8c-25 25-65.6 25-90.6 0s-25-65.6 0-90.6l256-256c25-25 65.6-25 90.6 0l256 256c25 25 25 65.6 0 90.6s-65.6 25-90.6 0L576 346.6V832zM128 192c-70.6 0-128-57.4-128-128v-64c0-70.6 57.4-128 128-128h768c70.6 0 128 57.4 128 128v64c0 70.6-57.4 128-128 128H693l-90.6-90.6c-50-50-131-50-181 0L331 192H128z m736-112a48 48 0 1 0 0-96 48 48 0 1 0 0 96z"/></svg>