<?xml version="1.0" standalone="no"?><!DOCTYPE svg PUBLIC "-//W3C//DTD SVG 1.1//EN"
        "http://www.w3.org/Graphics/SVG/1.1/DTD/svg11.dtd"><svg viewBox="0 0 1024 1024" version="1.1" xmlns="http://www.w3.org/2000/svg" xmlns:xlink="http://www.w3.org/1999/xlink"><path transform="scale(1, -1) translate(0, -1024)" d="M96 768C43 768 0 725 0 672c0-30.2 14.2-58.6 38.4-76.8l435.2-326.4c22.8-17 54-17 76.8 0l435.2 326.4c24.2 18.2 38.4 46.6 38.4 76.8 0 53-43 96-96 96H96zM0 544v-416c0-70.6 57.4-128 128-128h768c70.6 0 128 57.4 128 128V544L588.8 217.6a127.8 127.8 0 0 0-153.6 0L0 544z"/></svg>