<?xml version="1.0" standalone="no"?><!DOCTYPE svg PUBLIC "-//W3C//DTD SVG 1.1//EN"
        "http://www.w3.org/Graphics/SVG/1.1/DTD/svg11.dtd"><svg viewBox="0 0 1024 1024" version="1.1" xmlns="http://www.w3.org/2000/svg" xmlns:xlink="http://www.w3.org/1999/xlink"><path transform="scale(1, -1) translate(0, -1024)" d="M430.8 704H192v-354.8L0.4 491c3.2 36.2 21.8 69.8 51.4 91.6L96 615.4V704c0 53 43 96 96 96h153.2l99.8 73.8C464.4 888.2 487.8 896 512 896s47.6-7.8 67-22l99.8-74H832c53 0 96-43 96-96v-88.6l44.2-32.8c29.6-21.8 48.2-55.4 51.4-91.6L832 349.2V704H430.8zM0 0V411.8l435.2-322.4c22.2-16.4 49.2-25.4 76.8-25.4s54.6 8.8 76.8 25.4L1024 411.8V0c0-70.6-57.4-128-128-128H128c-70.6 0-128 57.4-128 128z m352 576h320c17.6 0 32-14.4 32-32s-14.4-32-32-32H352c-17.6 0-32 14.4-32 32s14.4 32 32 32z m0-128h320c17.6 0 32-14.4 32-32s-14.4-32-32-32H352c-17.6 0-32 14.4-32 32s14.4 32 32 32z"/></svg>