<?xml version="1.0" standalone="no"?><!DOCTYPE svg PUBLIC "-//W3C//DTD SVG 1.1//EN"
        "http://www.w3.org/Graphics/SVG/1.1/DTD/svg11.dtd"><svg viewBox="0 0 1024 1024" version="1.1" xmlns="http://www.w3.org/2000/svg" xmlns:xlink="http://www.w3.org/1999/xlink"><path transform="scale(1, -1) translate(0, -1024)" d="M512 512a128 128 0 0 0 128-128 128 128 0 0 0-128-128 128 128 0 0 0-128 128 128 128 0 0 0 128 128m0 192c213.333333 0 395.52-132.693333 469.333333-320-73.813333-187.306667-256-320-469.333333-320S116.48 196.693333 42.666667 384c73.813333 187.306667 256 320 469.333333 320M135.68 384a419.029333 419.029333 0 0 1 752.64 0 419.029333 419.029333 0 0 1-752.64 0z"/></svg>