<?xml version="1.0" standalone="no"?><!DOCTYPE svg PUBLIC "-//W3C//DTD SVG 1.1//EN"
        "http://www.w3.org/Graphics/SVG/1.1/DTD/svg11.dtd"><svg viewBox="0 0 1024 1024" version="1.1" xmlns="http://www.w3.org/2000/svg" xmlns:xlink="http://www.w3.org/1999/xlink"><path transform="scale(1, -1) translate(0, -1024)" d="M517.2 896c-3.4 0-6.8-0.2-10.2-1C336 862 231.2 691.4 261 517.4c5.8-34 16.8-65.8 31.8-94.8L64 448h-5.2C26.4 448 0 421.6 0 389.2c0-3.4 0.2-6.8 1-10.2C34 208 204.6 103.2 378.6 133c34 5.8 65.8 16.8 94.8 31.8L448-64v-5.2c0-32.4 26.4-58.8 58.8-58.8 3.4 0 6.8 0.2 10.2 1 171 33 275.8 203.6 246 377.6-5.8 34-16.8 65.8-31.8 94.8L960 320h5.2c32.4 0 58.8 26.4 58.8 58.8 0 3.4-0.2 6.8-1 10.2-33 171-203.6 275.8-377.6 246-34-5.8-65.8-16.8-94.8-31.8L576 832v5.2C576 869.6 549.6 896 517.2 896zM512 448a64 64 0 1 0 0-128 64 64 0 1 0 0 128z"/></svg>