<?xml version="1.0" standalone="no"?><!DOCTYPE svg PUBLIC "-//W3C//DTD SVG 1.1//EN"
        "http://www.w3.org/Graphics/SVG/1.1/DTD/svg11.dtd"><svg viewBox="0 0 1024 1024" version="1.1" xmlns="http://www.w3.org/2000/svg" xmlns:xlink="http://www.w3.org/1999/xlink"><path transform="scale(1, -1) translate(0, -1024)" d="M256 896C185.4 896 128 838.6 128 768v-768c0-70.6 57.4-128 128-128h512c70.6 0 128 57.4 128 128V576H640c-35.4 0-64 28.6-64 64V896H256z m384 0v-256h256L640 896zM320 800c0 17.6 14.4 32 32 32h64c17.6 0 32-14.4 32-32s-14.4-32-32-32h-64c-17.6 0-32 14.4-32 32z m0-128c0 17.6 14.4 32 32 32h64c17.6 0 32-14.4 32-32s-14.4-32-32-32h-64c-17.6 0-32 14.4-32 32z m0-128c0 17.6 14.4 32 32 32h64c17.6 0 32-14.4 32-32s-14.4-32-32-32h-64c-17.6 0-32 14.4-32 32z m-12.6-143.6c7.4 28 32.8 47.6 61.8 47.6h29.6c29 0 54.4-19.4 61.8-47.6l47-176.4c2.8-10.8 4.2-21.8 4.2-32.8 0-70.4-57.6-127.4-128-127.4s-128 57-128 127.4c0 11 1.4 22.2 4.2 32.8l47 176.4zM352 224c-17.6 0-32-14.4-32-32s14.4-32 32-32h64c17.6 0 32 14.4 32 32s-14.4 32-32 32h-64z"/></svg>