<?xml version="1.0" standalone="no"?><!DOCTYPE svg PUBLIC "-//W3C//DTD SVG 1.1//EN"
        "http://www.w3.org/Graphics/SVG/1.1/DTD/svg11.dtd"><svg viewBox="0 0 1024 1024" version="1.1" xmlns="http://www.w3.org/2000/svg" xmlns:xlink="http://www.w3.org/1999/xlink"><path transform="scale(1, -1) translate(0, -1024)" d="M256 896C185.4 896 128 838.6 128 768v-768c0-70.6 57.4-128 128-128h512c70.6 0 128 57.4 128 128V576H640c-35.4 0-64 28.6-64 64V896H256z m384 0v-256h256L640 896zM400 416h136c84 0 152-68 152-152s-68-152-152-152h-88v-64c0-26.6-21.4-48-48-48s-48 21.4-48 48V368c0 26.6 21.4 48 48 48z m136-208c31 0 56 25 56 56s-25 56-56 56h-88v-112h88z"/></svg>