<?xml version="1.0" standalone="no"?><!DOCTYPE svg PUBLIC "-//W3C//DTD SVG 1.1//EN"
        "http://www.w3.org/Graphics/SVG/1.1/DTD/svg11.dtd"><svg viewBox="0 0 1024 1024" version="1.1" xmlns="http://www.w3.org/2000/svg" xmlns:xlink="http://www.w3.org/1999/xlink"><path transform="scale(1, -1) translate(0, -1024)" d="M256 896C185.4 896 128 838.6 128 768v-768c0-70.6 57.4-128 128-128h512c70.6 0 128 57.4 128 128V576H640c-35.4 0-64 28.6-64 64V896H256z m384 0v-256h256L640 896z m4-452.6c74.2-44.8 124-126.2 124-219.4s-49.8-174.6-124-219.4c-15.2-9.2-34.8-4.2-44 10.8s-4.2 34.8 10.8 44c56 33.6 93.2 94.8 93.2 164.6s-37.2 131-93 164.6c-15.2 9.2-20 28.8-10.8 44s28.8 20 44 10.8z m-183.8-61.8c12-5 19.8-16.6 19.8-29.6v-256c0-13-7.8-24.6-19.8-29.6s-25.8-2.2-34.8 7L354.8 144H288c-17.6 0-32 14.4-32 32v96c0 17.6 14.4 32 32 32h66.8l70.6 70.6c9.2 9.2 23 11.8 34.8 7z m102-69.8c13.2 11.8 33.4 10.6 45.2-2.6 20.2-22.4 32.6-52.4 32.6-85.2s-12.4-62.8-32.6-85.4c-11.8-13.2-32-14.2-45.2-2.6s-14.2 32-2.6 45.2c10.2 11.4 16.2 26.2 16.2 42.6s-6.2 31.4-16.2 42.6c-11.8 13.2-10.6 33.4 2.6 45.2z"/></svg>