<?xml version="1.0" standalone="no"?><!DOCTYPE svg PUBLIC "-//W3C//DTD SVG 1.1//EN"
        "http://www.w3.org/Graphics/SVG/1.1/DTD/svg11.dtd"><svg viewBox="0 0 1024 1024" version="1.1" xmlns="http://www.w3.org/2000/svg" xmlns:xlink="http://www.w3.org/1999/xlink"><path transform="scale(1, -1) translate(0, -1024)" d="M256 896C185.4 896 128 838.6 128 768v-768c0-70.6 57.4-128 128-128h512c70.6 0 128 57.4 128 128V576H640c-35.4 0-64 28.6-64 64V896H256z m384 0v-256h256L640 896zM256 384a64 64 0 1 0 128 0 64 64 0 1 0-128 0z m304-64c10.6 0 20.4-5.2 26.4-13.8l176-256c6.8-9.8 7.4-22.6 2-33S748 0 736 0H288c-11.6 0-22.2 6.2-27.8 16.2s-5.6 22.4 0.4 32.2l96 160c5.8 9.6 16.2 15.6 27.4 15.6s21.6-5.8 27.4-15.6l25.6-42.8 96.6 140.4c6 8.6 15.8 13.8 26.4 13.8z"/></svg>