<?xml version="1.0" standalone="no"?><!DOCTYPE svg PUBLIC "-//W3C//DTD SVG 1.1//EN"
        "http://www.w3.org/Graphics/SVG/1.1/DTD/svg11.dtd"><svg viewBox="0 0 1024 1024" version="1.1" xmlns="http://www.w3.org/2000/svg" xmlns:xlink="http://www.w3.org/1999/xlink"><path transform="scale(1, -1) translate(0, -1024)" d="M256 896C185.4 896 128 838.6 128 768v-768c0-70.6 57.4-128 128-128h512c70.6 0 128 57.4 128 128V576H640c-35.4 0-64 28.6-64 64V896H256z m384 0v-256h256L640 896zM256 320c0 35.4 28.6 64 64 64h192c35.4 0 64-28.6 64-64v-192c0-35.4-28.6-64-64-64H320c-35.4 0-64 28.6-64 64v192z m473.8-219.8L640 160v128l89.8 59.8c4 2.6 8.8 4.2 13.6 4.2 13.6 0 24.6-11 24.6-24.6v-206.8c0-13.6-11-24.6-24.6-24.6-4.8 0-9.6 1.4-13.6 4.2z"/></svg>