<?xml version="1.0" standalone="no"?><!DOCTYPE svg PUBLIC "-//W3C//DTD SVG 1.1//EN"
        "http://www.w3.org/Graphics/SVG/1.1/DTD/svg11.dtd"><svg viewBox="0 0 1024 1024" version="1.1" xmlns="http://www.w3.org/2000/svg" xmlns:xlink="http://www.w3.org/1999/xlink"><path transform="scale(1, -1) translate(0, -1024)" d="M0 768C0 838.6 57.4 896 128 896h320v-256c0-35.4 28.6-64 64-64h256v-288H352c-70.6 0-128-57.4-128-128v-288H128c-70.6 0-128 57.4-128 128V768z m768-128H512V896l256-256zM400 192h32c44.2 0 80-35.8 80-80v-16c0-17.6-14.4-32-32-32s-32 14.4-32 32v16c0 8.8-7.2 16-16 16h-32c-8.8 0-16-7.2-16-16v-160c0-8.8 7.2-16 16-16h32c8.8 0 16 7.2 16 16v16c0 17.6 14.4 32 32 32s32-14.4 32-32v-16c0-44.2-35.8-80-80-80h-32c-44.2 0-80 35.8-80 80v160c0 44.2 35.8 80 80 80z m266.2 0H736c17.6 0 32-14.4 32-32s-14.4-32-32-32h-69.8c-14.4 0-26.2-11.8-26.2-26.2 0-10.4 6-19.8 15.6-24l74.8-33.2c32.6-14.4 53.6-46.8 53.6-82.4 0-49.8-40.4-90.2-90.2-90.2H608c-17.6 0-32 14.4-32 32s14.4 32 32 32h85.8c14.4 0 26.2 11.8 26.2 26.2 0 10.4-6 19.8-15.6 24l-74.8 33.2c-32.6 14.4-53.6 46.8-53.6 82.4 0 49.8 40.4 90.2 90.2 90.2z m197.8 0c17.6 0 32-14.4 32-32v-63.2c0-46 11-91.2 32-132 21 40.6 32 85.8 32 132V160c0 17.6 14.4 32 32 32s32-14.4 32-32v-63.2c0-69.4-20.6-137.4-59.2-195.2l-10.2-15.4c-6-9-16-14.2-26.6-14.2s-20.6 5.4-26.6 14.2l-10.2 15.4c-38.6 57.8-59.2 125.8-59.2 195.2V160c0 17.6 14.4 32 32 32z"/></svg>