<?xml version="1.0" standalone="no"?><!DOCTYPE svg PUBLIC "-//W3C//DTD SVG 1.1//EN"
        "http://www.w3.org/Graphics/SVG/1.1/DTD/svg11.dtd"><svg viewBox="0 0 1024 1024" version="1.1" xmlns="http://www.w3.org/2000/svg" xmlns:xlink="http://www.w3.org/1999/xlink"><path transform="scale(1, -1) translate(0, -1024)" d="M0 768C0 838.6 57.4 896 128 896h320v-256c0-35.4 28.6-64 64-64h256v-288H352c-70.6 0-128-57.4-128-128v-288H128c-70.6 0-128 57.4-128 128V768z m768-128H512V896l256-256zM352 192h64c61.8 0 112-50.2 112-112s-50.2-112-112-112h-32v-64c0-17.6-14.4-32-32-32s-32 14.4-32 32V160c0 17.6 14.4 32 32 32z m64-160c26.6 0 48 21.4 48 48s-21.4 48-48 48h-32v-96h32z m192 160h64c53 0 96-43 96-96v-128c0-53-43-96-96-96h-64c-17.6 0-32 14.4-32 32V160c0 17.6 14.4 32 32 32z m64-256c17.6 0 32 14.4 32 32v128c0 17.6-14.4 32-32 32h-32v-192h32z m160 224c0 17.6 14.4 32 32 32h96c17.6 0 32-14.4 32-32s-14.4-32-32-32h-64v-64h64c17.6 0 32-14.4 32-32s-14.4-32-32-32h-64v-96c0-17.6-14.4-32-32-32s-32 14.4-32 32V160z"/></svg>