<?xml version="1.0" standalone="no"?><!DOCTYPE svg PUBLIC "-//W3C//DTD SVG 1.1//EN"
        "http://www.w3.org/Graphics/SVG/1.1/DTD/svg11.dtd"><svg viewBox="0 0 1024 1024" version="1.1" xmlns="http://www.w3.org/2000/svg" xmlns:xlink="http://www.w3.org/1999/xlink"><path transform="scale(1, -1) translate(0, -1024)" d="M512-128c212.096 0 384 128 384 352 0 96-32 256-160 384 16-96-80-128-80-128C704 640 576 864 384 896c22.848-128 32-256-128-384-80-64-128-174.656-128-288C128 0 299.904-128 512-128z m0 64c-106.048 0-192 64-192 176 0 48 16 128 80 192C392 256 448 224 448 224c-24 80 32 208 128 224-11.456-64-16-128 64-192 40-32 64-87.296 64-144C704 0 618.048-64 512-64z"/></svg>