<?xml version="1.0" standalone="no"?><!DOCTYPE svg PUBLIC "-//W3C//DTD SVG 1.1//EN"
        "http://www.w3.org/Graphics/SVG/1.1/DTD/svg11.dtd"><svg viewBox="0 0 1024 1024" version="1.1" xmlns="http://www.w3.org/2000/svg" xmlns:xlink="http://www.w3.org/1999/xlink"><path transform="scale(1, -1) translate(0, -1024)" d="M326.4 22.399999999999977C156.8 22.399999999999977 9.6 156.79999999999995 0 329.6 0 508.8 144 656 320 659.2c188.8 0 377.6-73.6 473.6-182.4 22.4 22.4 48 38.4 76.8 51.2 12.8 6.4 28.8 9.6 41.6 9.6 60.8 0 108.8-48 108.8-108.8v-192c0-16-3.2-28.8-9.6-41.6-12.8-25.6-32-48-57.6-57.6-25.6-9.6-57.6-9.6-83.2 0-28.8 12.8-54.4 28.8-73.6 48-48-60.8-112-105.6-185.6-131.2-19.2-6.4-38.4 3.2-44.8 22.4-6.4 19.2 3.2 38.4 22.4 44.8 73.6 25.6 134.4 76.8 172.8 140.8 6.4 9.6 16 16 28.8 16s22.4-6.4 28.8-16c19.2-25.6 44.8-48 76.8-60.8 19.2-9.6 41.6 0 51.2 19.2 3.2 3.2 3.2 9.6 3.2 16v192c0 22.4-16 38.4-38.4 38.4-6.4 0-9.6 0-16-3.2-32-12.8-57.6-35.2-76.8-60.8-6.4-9.6-19.2-16-28.8-16-12.8 0-22.4 6.4-28.8 16-67.2 105.6-259.2 185.6-441.6 185.6-137.6-3.2-249.6-118.4-249.6-256 9.6-137.6 128-243.2 268.8-240h80c19.2 0 35.2-16 35.2-35.2s-16-35.2-35.2-35.2h-92.8zM291.2 336c-38.4 0-70.4 32-70.4 70.4 0 38.4 32 70.4 70.4 70.4 38.4 0 70.4-32 70.4-70.4 3.2-38.4-28.8-70.4-70.4-70.4z m0 73.6s0-3.2 0 0zM588.8-41.60000000000002c-137.6 0-256 96-284.8 233.6-3.2 19.2 9.6 38.4 28.8 41.6 19.2 3.2 38.4-9.6 41.6-28.8 22.4-102.4 108.8-176 211.2-176l-60.8 198.4c-6.4 19.2 3.2 38.4 22.4 44.8 19.2 6.4 38.4-3.2 44.8-22.4l73.6-240c3.2-9.6 3.2-19.2-3.2-28.8-6.4-9.6-12.8-16-25.6-16-16-6.4-32-6.4-48-6.4z m128 508.8c-12.8 0-28.8 9.6-32 22.4-28.8 76.8-32 163.2-12.8 243.2-262.4 19.2-364.8-76.8-406.4-137.6-9.6-19.2-32-22.4-48-12.8-16 9.6-22.4 32-9.6 48C259.2 710.4 393.6 838.4 723.2 800c9.6 0 19.2-6.4 25.6-16 6.4-9.6 6.4-19.2 3.2-32-28.8-76.8-28.8-160 0-236.8 6.4-19.2-3.2-38.4-22.4-44.8-3.2-3.2-6.4-3.2-12.8-3.2z"/></svg>