<?xml version="1.0" standalone="no"?><!DOCTYPE svg PUBLIC "-//W3C//DTD SVG 1.1//EN"
        "http://www.w3.org/Graphics/SVG/1.1/DTD/svg11.dtd"><svg viewBox="0 0 1024 1024" version="1.1" xmlns="http://www.w3.org/2000/svg" xmlns:xlink="http://www.w3.org/1999/xlink"><path transform="scale(1, -1) translate(0, -1024)" d="M177.4 448.4L0 144.4V704c0 70.6 57.4 128 128 128h235c34 0 66.6-13.4 90.6-37.4l53-53c24-24 56.6-37.4 90.6-37.4H832c70.6 0 128-57.4 128-128v-64H288c-45.6 0-87.6-24.2-110.6-63.6z m55.2-32.2c11.6 19.8 32.6 31.8 55.4 31.8h800c23 0 44-12.2 55.4-32.2s11.4-44.4-0.2-64.2l-224-384C907.8-52 886.8-64 864-64H64c-23 0-44 12.2-55.4 32.2s-11.4 44.4 0.2 64.2l224 384z"/></svg>