<?xml version="1.0" standalone="no"?><!DOCTYPE svg PUBLIC "-//W3C//DTD SVG 1.1//EN"
        "http://www.w3.org/Graphics/SVG/1.1/DTD/svg11.dtd"><svg viewBox="0 0 1024 1024" version="1.1" xmlns="http://www.w3.org/2000/svg" xmlns:xlink="http://www.w3.org/1999/xlink"><path transform="scale(1, -1) translate(0, -1024)" d="M572 790.4C562.6 815.4 538.6 832 512 832s-50.6-16.6-60-41.6L179.6 64H128c-35.4 0-64-28.6-64-64s28.6-64 64-64h192c35.4 0 64 28.6 64 64s-28.6 64-64 64h-3.6l36 96h319.2l36-96H704c-35.4 0-64-28.6-64-64s28.6-64 64-64h192c35.4 0 64 28.6 64 64s-28.6 64-64 64h-51.6L572 790.4zM623.6 288H400.4L512 585.8 623.6 288z"/></svg>