<?xml version="1.0" standalone="no"?><!DOCTYPE svg PUBLIC "-//W3C//DTD SVG 1.1//EN"
        "http://www.w3.org/Graphics/SVG/1.1/DTD/svg11.dtd"><svg viewBox="0 0 1024 1024" version="1.1" xmlns="http://www.w3.org/2000/svg" xmlns:xlink="http://www.w3.org/1999/xlink"><path transform="scale(1, -1) translate(0, -1024)" d="M105 14.8c-19-15.8-45.6-19.4-68.2-8.8S0 39.2 0 64V704c0 24.8 14.4 47.4 36.8 58s49 7.2 68.2-8.8L448 467.4v-166.8L105 14.8zM512 192V704c0 24.8 14.4 47.4 36.8 58s49 7.2 68.2-8.8l384-320c14.6-12.2 23-30.2 23-49.2s-8.4-37-23-49.2l-384-320c-19-15.8-45.6-19.4-68.2-8.8S512 39.2 512 64v128z"/></svg>