<?xml version="1.0" standalone="no"?><!DOCTYPE svg PUBLIC "-//W3C//DTD SVG 1.1//EN"
        "http://www.w3.org/Graphics/SVG/1.1/DTD/svg11.dtd"><svg viewBox="0 0 1024 1024" version="1.1" xmlns="http://www.w3.org/2000/svg" xmlns:xlink="http://www.w3.org/1999/xlink"><path transform="scale(1, -1) translate(0, -1024)" d="M576 736c-130.4 0-237.6-59.2-319.8-135.4C179.2 529 126 444 98.8 384 126 324 179.2 239 256 167.4c82.4-76.2 189.6-135.4 320-135.4s237.6 59.2 319.8 135.4C972.8 239 1026 324 1053.2 384c-27.2 60-80.4 145-157.2 216.6C813.6 676.8 706.4 736 576 736zM190.8 670.8C285 758.4 414.4 832 576 832s291-73.6 385.2-161.2c93.6-87 156.2-190.8 186-262.2 6.6-15.8 6.6-33.4 0-49.2-29.8-71.4-92.4-175.4-186-262.2C867 9.6 737.6-64 576-64s-291 73.6-385.2 161.2C97.2 184 34.6 288 5 359.4c-6.6 15.8-6.6 33.4 0 49.2C34.6 480 97.2 584 190.8 670.8zM576 224c88.4 0 160 71.6 160 160s-71.6 160-160 160h-4c2.6-10.2 4-21 4-32 0-70.6-57.4-128-128-128-11 0-21.8 1.4-32 4v-4c0-88.4 71.6-160 160-160z m0 416a256 256 0 1 0 0-512 256 256 0 1 0 0 512z"/></svg>