<?xml version="1.0" standalone="no"?><!DOCTYPE svg PUBLIC "-//W3C//DTD SVG 1.1//EN"
        "http://www.w3.org/Graphics/SVG/1.1/DTD/svg11.dtd"><svg viewBox="0 0 1024 1024" version="1.1" xmlns="http://www.w3.org/2000/svg" xmlns:xlink="http://www.w3.org/1999/xlink"><path transform="scale(1, -1) translate(0, -1024)" d="M382.584282 885.150015c15.59923 14.59928 39.798037 14.39929 55.397267-0.19999 55.197277-51.797445 106.994721-107.594692 155.392334-167.991712 21.998915 28.798579 46.997681 60.19703 73.996349 85.795767 15.799221 14.79927 40.198017 14.79927 55.997237-0.19999 69.196586-65.996744 127.793695-153.192442 168.991663-235.988357 40.597997-81.595974 67.596665-164.99186 67.596665-223.788959C959.955797 87.589364 760.365644-128 511.977899-128 260.790291-128 64 87.789354 64 342.976764c0 76.796211 35.598244 170.591584 90.795521 263.387005C210.592768 700.559122 289.38888 798.754278 382.584282 885.150015zM515.377731 63.990528c50.597504 0 95.395294 13.999309 137.593212 41.997928 84.195846 58.797099 106.794731 176.391298 56.197227 268.786739-8.999556 17.999112-31.998421 19.199053-44.99778 3.999803l-50.397514-58.597109c-13.199349-15.19925-36.998175-14.79927-49.397562 0.99995-32.998372 41.997928-91.995461 116.994228-125.593804 159.592127-12.599378 15.999211-36.598194 16.199201-49.397563 0.19999-67.596665-84.995807-101.594988-138.593162-101.594988-198.790193 0.19999-136.993241 101.394998-218.189235 227.588772-218.189235z"/></svg>