<?xml version="1.0" standalone="no"?><!DOCTYPE svg PUBLIC "-//W3C//DTD SVG 1.1//EN"
        "http://www.w3.org/Graphics/SVG/1.1/DTD/svg11.dtd"><svg viewBox="0 0 1024 1024" version="1.1" xmlns="http://www.w3.org/2000/svg" xmlns:xlink="http://www.w3.org/1999/xlink"><path transform="scale(1, -1) translate(0, -1024)" d="M384 768C172 768 0 596 0 384s172-384 384-384h512c212 0 384 172 384 384S1108 768 896 768H384z m608-208a80 80 0 1 0 0-160 80 80 0 1 0 0 160zM784 288a80 80 0 1 0 160 0 80 80 0 1 0-160 0zM336 496c0 26.6 21.4 48 48 48s48-21.4 48-48v-64h64c26.6 0 48-21.4 48-48s-21.4-48-48-48h-64v-64c0-26.6-21.4-48-48-48s-48 21.4-48 48v64h-64c-26.6 0-48 21.4-48 48s21.4 48 48 48h64v64z"/></svg>