<?xml version="1.0" standalone="no"?><!DOCTYPE svg PUBLIC "-//W3C//DTD SVG 1.1//EN"
        "http://www.w3.org/Graphics/SVG/1.1/DTD/svg11.dtd"><svg viewBox="0 0 1024 1024" version="1.1" xmlns="http://www.w3.org/2000/svg" xmlns:xlink="http://www.w3.org/1999/xlink"><path transform="scale(1, -1) translate(0, -1024)" d="M991.8 562.8c6.4-17.4 1-36.8-12.8-49.2l-86.6-78.8c2.2-16.6 3.4-33.6 3.4-50.8s-1.2-34.2-3.4-50.8l86.6-78.8c13.8-12.4 19.2-31.8 12.8-49.2-8.8-23.8-19.4-46.6-31.6-68.6l-9.4-16.2c-13.2-22-28-42.8-44.2-62.4-11.8-14.4-31.4-19.2-49-13.6l-111.4 35.4c-26.8-20.6-56.4-37.8-88-50.8l-25-114.2c-4-18.2-18-32.6-36.4-35.6-27.6-4.6-56-7-85-7s-57.4 2.4-85 7c-18.4 3-32.4 17.4-36.4 35.6l-25 114.2c-31.6 13-61.2 30.2-88 50.8l-111.2-35.6c-17.6-5.6-37.2-0.6-49 13.6-16.2 19.6-31 40.4-44.2 62.4l-9.4 16.2c-12.2 22-22.8 44.8-31.6 68.6-6.4 17.4-1 36.8 12.8 49.2l86.6 78.8c-2.2 16.8-3.4 33.8-3.4 51s1.2 34.2 3.4 50.8l-86.6 78.8c-13.8 12.4-19.2 31.8-12.8 49.2 8.8 23.8 19.4 46.6 31.6 68.6l9.4 16.2c13.2 22 28 42.8 44.2 62.4 11.8 14.4 31.4 19.2 49 13.6l111.4-35.4c26.8 20.6 56.4 37.8 88 50.8l25 114.2c4 18.2 18 32.6 36.4 35.6C454.6 893.6 483 896 512 896s57.4-2.4 85-7c18.4-3 32.4-17.4 36.4-35.6l25-114.2c31.6-13 61.2-30.2 88-50.8l111.4 35.4c17.6 5.6 37.2 0.6 49-13.6 16.2-19.6 31-40.4 44.2-62.4l9.4-16.2c12.2-22 22.8-44.8 31.6-68.6zM512 224a160 160 0 1 1 0 320 160 160 0 1 1 0-320z"/></svg>