<?xml version="1.0" standalone="no"?><!DOCTYPE svg PUBLIC "-//W3C//DTD SVG 1.1//EN"
        "http://www.w3.org/Graphics/SVG/1.1/DTD/svg11.dtd"><svg viewBox="0 0 1024 1024" version="1.1" xmlns="http://www.w3.org/2000/svg" xmlns:xlink="http://www.w3.org/1999/xlink"><path transform="scale(1, -1) translate(0, -1024)" d="M272 192h96c44.2 0 80-35.8 80-80v-96c0-44.2-35.8-80-80-80H272c-44.2 0-80 35.8-80 80v96c0 44.2 35.8 80 80 80z m384 0h96c44.2 0 80-35.8 80-80v-96c0-44.2-35.8-80-80-80h-96c-44.2 0-80 35.8-80 80v96c0 44.2 35.8 80 80 80zM272 256c-44.2 0-80 35.8-80 80v96c0 44.2 35.8 80 80 80h96c44.2 0 80-35.8 80-80v-96c0-44.2-35.8-80-80-80H272z m384 256h96c44.2 0 80-35.8 80-80v-96c0-44.2-35.8-80-80-80h-96c-44.2 0-80 35.8-80 80v96c0 44.2 35.8 80 80 80zM272 576c-44.2 0-80 35.8-80 80V752c0 44.2 35.8 80 80 80h96c44.2 0 80-35.8 80-80v-96c0-44.2-35.8-80-80-80H272zM656 832h96c44.2 0 80-35.8 80-80v-96c0-44.2-35.8-80-80-80h-96c-44.2 0-80 35.8-80 80V752c0 44.2 35.8 80 80 80z"/></svg>