<?xml version="1.0" standalone="no"?><!DOCTYPE svg PUBLIC "-//W3C//DTD SVG 1.1//EN"
        "http://www.w3.org/Graphics/SVG/1.1/DTD/svg11.dtd"><svg viewBox="0 0 1024 1024" version="1.1" xmlns="http://www.w3.org/2000/svg" xmlns:xlink="http://www.w3.org/1999/xlink"><path transform="scale(1, -1) translate(0, -1024)" d="M398.293333 405.248h92.586667a192 192 0 0 0 192-192H384.170667v-42.666667h341.333333v42.666667a237.994667 237.994667 0 0 1-37.76 128h123.136a213.333333 213.333333 0 0 0 192.682667-121.685333c-100.906667-133.12-264.277333-219.690667-448.682667-219.690667-117.802667 0-217.6 25.216-298.666667 69.333333v396.970667a297.216 297.216 0 0 0 142.08-60.928z m-227.413333 106.666667a42.666667 42.666667 0 0 0 42.368-37.717334l0.298667-4.949333v-384a42.666667 42.666667 0 0 0-42.666667-42.666667h-85.333333a42.666667 42.666667 0 0 0-42.666667 42.666667v384a42.666667 42.666667 0 0 0 42.666667 42.666667h85.333333z m411.562667 231.424l15.104-15.104 15.061333 15.104a106.666667 106.666667 0 0 0 150.869333-150.826667l-165.973333-165.973333-165.888 165.973333a106.666667 106.666667 0 1 0 150.826667 150.826667z"/></svg>