<?xml version="1.0" standalone="no"?><!DOCTYPE svg PUBLIC "-//W3C//DTD SVG 1.1//EN"
        "http://www.w3.org/Graphics/SVG/1.1/DTD/svg11.dtd"><svg viewBox="0 0 1024 1024" version="1.1" xmlns="http://www.w3.org/2000/svg" xmlns:xlink="http://www.w3.org/1999/xlink"><path transform="scale(1, -1) translate(0, -1024)" d="M426.6 831.2c34.8-5.8 58.4-38.8 52.6-73.6l-19.6-117.6h190.2l23 138.6c5.8 34.8 38.8 58.4 73.6 52.6s58.4-38.8 52.6-73.6l-19.4-117.6H896c35.4 0 64-28.6 64-64s-28.6-64-64-64h-137.8l-42.6-256H832c35.4 0 64-28.6 64-64s-28.6-64-64-64h-137.8l-23-138.6c-5.8-34.8-38.8-58.4-73.6-52.6s-58.4 38.8-52.6 73.6l19.6 117.4h-190.4l-23-138.6c-5.8-34.8-38.8-58.4-73.6-52.6s-58.4 38.8-52.6 73.6l19.4 117.8H128c-35.4 0-64 28.6-64 64s28.6 64 64 64h137.8l42.6 256H192c-35.4 0-64 28.6-64 64s28.6 64 64 64h137.8l23 138.6c5.8 34.8 38.8 58.4 73.6 52.6z m11.6-319.2l-42.6-256h190.2l42.6 256h-190.2z"/></svg>