<?xml version="1.0" standalone="no"?><!DOCTYPE svg PUBLIC "-//W3C//DTD SVG 1.1//EN"
        "http://www.w3.org/Graphics/SVG/1.1/DTD/svg11.dtd"><svg viewBox="0 0 1024 1024" version="1.1" xmlns="http://www.w3.org/2000/svg" xmlns:xlink="http://www.w3.org/1999/xlink"><path transform="scale(1, -1) translate(0, -1024)" d="M640.42972 408.4l-99.4-198.8c-12-24.2-46.8-23.4-57.8 1.2l-113.8 252.6-60-143.4H121.22972l365-373c14.2-14.6 37.2-14.6 51.4 0L902.82972 320H684.62972l-44.2 88.4zM947.42972 748.2l-4.8 5c-103 105.2-271.6 105.2-374.8 0L512.02972 696l-55.8 57c-103 105.4-271.8 105.4-374.8 0l-4.8-4.8C-20.77028 648.6-24.97028 490 62.02972 384h204.8l71.8 172.4c10.8 25.8 47.2 26.4 58.8 0.8l116.4-258.6 98 195.8c11.8 23.6 45.4 23.6 57.2 0l55.2-110.4H962.02972c87 106 82.8 264.6-14.6 364.2z"/></svg>