<?xml version="1.0" standalone="no"?><!DOCTYPE svg PUBLIC "-//W3C//DTD SVG 1.1//EN"
        "http://www.w3.org/Graphics/SVG/1.1/DTD/svg11.dtd"><svg viewBox="0 0 1024 1024" version="1.1" xmlns="http://www.w3.org/2000/svg" xmlns:xlink="http://www.w3.org/1999/xlink"><path transform="scale(1, -1) translate(0, -1024)" d="M287.04 336H126.8a48 48 0 1 0 0 96h134.52l49.8 74.64a48 48 0 0 0 80 0l88-132 24 36a48 48 0 0 0 40 21.36h96a48 48 0 1 0 0-96h-70.4l-49.84-74.64a48 48 0 0 0-80 0l-88 132-24-36a48 48 0 0 0-39.84-21.36zM711.64 784c-80.48 0-152-31.72-200.28-86.24C462.96 752.28 391.56 784 311.04 784a264 264 0 0 1-262.76-234.72A48 48 0 0 1 144 538.72 168 168 0 0 0 311.04 688c71.32 0 131-37.6 155.8-98.16a48 48 0 0 1 89 0C580.64 650.4 640.32 688 711.64 688A168.32 168.32 0 0 0 880 520c0-117.68-103.44-231.08-190.24-305.44a1316 1316 0 0 0-178.32-127.24c-43.48 25.8-141.48 88-226.04 170.92a48 48 0 1 1-67.36-68.48c121.56-119.24 264.6-196.8 270.64-200a48.24 48.24 0 0 1 45.56 0C552-0.56 976 230.64 976 520a264.48 264.48 0 0 1-264.36 264z"/></svg>