<?xml version="1.0" standalone="no"?><!DOCTYPE svg PUBLIC "-//W3C//DTD SVG 1.1//EN"
        "http://www.w3.org/Graphics/SVG/1.1/DTD/svg11.dtd"><svg viewBox="0 0 1024 1024" version="1.1" xmlns="http://www.w3.org/2000/svg" xmlns:xlink="http://www.w3.org/1999/xlink"><path transform="scale(1, -1) translate(0, -1024)" d="M307.587194 853.424665A511.992 511.992 0 1 0 39.175388 187.51507a47.99925 47.99925 0 1 0 88.638615 36.799425A415.9935 415.9935 0 1 1 161.477477 607.9885H272.00375a47.99925 47.99925 0 0 0 0-95.9985H0.008V783.98575a47.99925 47.99925 0 0 0 95.9985 0v-101.502414A511.992 511.992 0 0 0 307.587194 853.360666zM512 703.987a47.99925 47.99925 0 0 0 47.99925-47.99925v-252.15606l130.173966-130.173966a47.99925 47.99925 0 1 0-67.83894-67.83894L478.08053 350.07253l-14.07978 14.07978V655.98775A47.99925 47.99925 0 0 0 512 703.987z"/></svg>