<?xml version="1.0" standalone="no"?><!DOCTYPE svg PUBLIC "-//W3C//DTD SVG 1.1//EN"
        "http://www.w3.org/Graphics/SVG/1.1/DTD/svg11.dtd"><svg viewBox="0 0 1024 1024" version="1.1" xmlns="http://www.w3.org/2000/svg" xmlns:xlink="http://www.w3.org/1999/xlink"><path transform="scale(1, -1) translate(0, -1024)" d="M1087.6 320.8c34 0 64 28 64 64.2 2 18-6 34-22 48L1024 526V768c0 35.4-28.6 64-64 64h-64c-35.4 0-64-28.6-64-64v-73.4L619 882c-12 10-28 14-42 14s-30-2-44-16L20 433c-14-14-20-30-20-48 0-36 28-64.2 64-64.2h64v-139.4c-0.2-1.8-0.2-3.6-0.2-5.6V-48c0-44.2 35.8-80 80-80h32c2.4 0 4.8 0.2 7.2 0.4 3-0.2 6-0.4 9-0.4h112c44.2 0 80 35.8 80 80v176c0 35.4 28.6 64 64 64h128c35.4 0 64-28.6 64-64v-176c0-44.2 35.8-80 80-80h113c2.8 0 5.6 0 8.4 0.2 2.2-0.2 4.4-0.2 6.6-0.2h32c44.2 0 80 35.8 80 80v32.4c0.6 5.2 1 10.6 1 16.2l-1.4 320.4h64z"/></svg>