<?xml version="1.0" standalone="no"?><!DOCTYPE svg PUBLIC "-//W3C//DTD SVG 1.1//EN"
        "http://www.w3.org/Graphics/SVG/1.1/DTD/svg11.dtd"><svg viewBox="0 0 1024 1024" version="1.1" xmlns="http://www.w3.org/2000/svg" xmlns:xlink="http://www.w3.org/1999/xlink"><path transform="scale(1, -1) translate(0, -1024)" d="M320 832c-70.6 0-128-57.4-128-128v-448c0-70.6 57.4-128 128-128h704c70.6 0 128 57.4 128 128V704c0 70.6-57.4 128-128 128H320z m472-213.4l192-288c9.8-14.8 10.8-33.6 2.4-49.2S961.8 256 944 256H400c-18.4 0-35.2 10.6-43.2 27.2s-5.8 36.4 5.8 50.8l128 160c9.2 11.4 22.8 18 37.4 18s28.4-6.6 37.4-18l34.6-43.2 112 168c9 13.2 24 21.2 40 21.2s31-8 40-21.4zM384 640a64 64 0 1 0 128 0 64 64 0 1 0-128 0z m-288 16c0 26.6-21.4 48-48 48S0 682.6 0 656v-448c0-150.2 121.8-272 272-272h640c26.6 0 48 21.4 48 48s-21.4 48-48 48H272c-97.2 0-176 78.8-176 176V656z"/></svg>