<?xml version="1.0" standalone="no"?><!DOCTYPE svg PUBLIC "-//W3C//DTD SVG 1.1//EN"
        "http://www.w3.org/Graphics/SVG/1.1/DTD/svg11.dtd"><svg viewBox="0 0 1024 1024" version="1.1" xmlns="http://www.w3.org/2000/svg" xmlns:xlink="http://www.w3.org/1999/xlink"><path transform="scale(1, -1) translate(0, -1024)" d="M242 832c-58.8 0-110-40-124.2-97l-114-455.8C1.2 269 0 258.6 0 248.2V64c0-70.6 57.4-128 128-128h768c70.6 0 128 57.4 128 128v184.2c0 10.4-1.2 20.8-3.8 31l-114 455.8C892 792 840.8 832 782 832H242z m0-128h540l96-384h-102.4c-24.2 0-46.4-13.6-57.2-35.4l-28.6-57.2c-10.8-21.6-33-35.4-57.2-35.4H391.6c-24.2 0-46.4 13.6-57.2 35.4l-28.6 57.2c-10.8 21.6-33 35.4-57.2 35.4H146l96 384z"/></svg>