<?xml version="1.0" standalone="no"?><!DOCTYPE svg PUBLIC "-//W3C//DTD SVG 1.1//EN"
        "http://www.w3.org/Graphics/SVG/1.1/DTD/svg11.dtd"><svg viewBox="0 0 1024 1024" version="1.1" xmlns="http://www.w3.org/2000/svg" xmlns:xlink="http://www.w3.org/1999/xlink"><path transform="scale(1, -1) translate(0, -1024)" d="M320 848c0 26.6 21.4 48 48 48h224c26.6 0 48-21.4 48-48s-21.4-48-48-48h-32l208-288h232.8c15.4 0 30.6-2.8 45-8.2L1250 427.2c18-6.8 30-24 30-43.2s-12-36.4-30-43.2l-204.2-76.6c-14.4-5.4-29.6-8.2-45-8.2H768L560-32h32c26.6 0 48-21.4 48-48s-21.4-48-48-48H368c-26.6 0-48 21.4-48 48s21.4 48 48 48h16V256h-64l-109.2-109.2c-12-12-28.2-18.8-45.2-18.8H128c-35.4 0-64 28.6-64 64v128c-35.4 0-64 28.6-64 64s28.6 64 64 64v128c0 35.4 28.6 64 64 64h37.4c17 0 33.2-6.8 45.2-18.8L320 512h64V800h-16c-26.6 0-48 21.4-48 48zM160 416c-17.6 0-32-14.4-32-32s14.4-32 32-32h128c17.6 0 32 14.4 32 32s-14.4 32-32 32H160z"/></svg>