<?xml version="1.0" standalone="no"?><!DOCTYPE svg PUBLIC "-//W3C//DTD SVG 1.1//EN"
        "http://www.w3.org/Graphics/SVG/1.1/DTD/svg11.dtd"><svg viewBox="0 0 1024 1024" version="1.1" xmlns="http://www.w3.org/2000/svg" xmlns:xlink="http://www.w3.org/1999/xlink"><path transform="scale(1, -1) translate(0, -1024)" d="M240.64 220.16c-5.12-7.68-15.36-12.8-23.04-15.36-5.12 20.48-12.8 43.52-20.48 61.44-56.32-20.48-115.2-40.96-174.08-71.68-5.12 110.08 0 289.28 7.68 384-7.68 0-12.8-5.12-17.92-7.68 0 10.24 0 20.48 2.56 28.16 2.56 5.12 5.12 10.24 12.8 12.8 28.16 15.36 102.4 25.6 133.12 20.48 17.92-2.56 30.72-10.24 38.4-23.04 7.68-12.8 10.24-30.72 12.8-48.64 5.12-51.2 5.12-99.84 2.56-153.6-53.76-2.56-107.52-7.68-156.16-20.48v-135.68c38.4 17.92 81.92 33.28 122.88 48.64l-30.72 61.44c10.24 5.12 23.04 10.24 30.72 12.8 25.6-40.96 48.64-81.92 64-125.44 0-12.8 0-20.48-5.12-28.16zM176.64 499.2c-38.4 0-87.04-7.68-117.76-15.36l-2.56-66.56c38.4 7.68 79.36 12.8 122.88 17.92 0 17.92 0 46.08-2.56 64z m-5.12 79.36c-2.56 10.24-12.8 20.48-25.6 20.48-28.16 0-56.32-2.56-81.92-10.24-2.56-23.04-2.56-46.08-5.12-69.12 38.4 7.68 76.8 12.8 115.2 15.36 2.56 12.8 0 28.16-2.56 43.52z m273.92-320c-5.12-10.24-12.8-17.92-25.6-23.04-12.8-5.12-33.28-5.12-48.64-2.56-10.24 0-15.36 7.68-17.92 15.36-2.56 7.68-5.12 17.92-5.12 23.04 17.92-2.56 30.72-2.56 51.2-2.56 10.24 0 15.36 7.68 15.36 17.92 5.12 84.48 5.12 199.68-7.68 281.6-2.56 17.92-15.36 25.6-30.72 25.6-20.48 0-53.76-5.12-69.12-10.24-10.24-117.76-15.36-291.84-5.12-409.6h-35.84c-7.68 122.88-5.12 276.48 2.56 394.24-7.68-2.56-17.92-7.68-25.6-10.24-2.56 10.24-2.56 20.48 0 28.16 2.56 7.68 5.12 12.8 12.8 15.36 28.16 12.8 92.16 30.72 133.12 28.16 17.92-2.56 28.16-10.24 38.4-20.48 12.8-12.8 15.36-30.72 15.36-48.64 10.24-94.72 10.24-174.08 7.68-273.92 0-10.24 0-17.92-5.12-28.16zM842.24 560.64c-40.96 0-81.92 0-120.32-5.12-38.4-28.16-74.24-56.32-110.08-89.6 33.28 5.12 66.56 7.68 97.28 10.24 17.92 12.8 51.2 40.96 69.12 53.76 10.24-5.12 20.48-12.8 30.72-20.48-84.48-66.56-166.4-135.68-248.32-209.92-2.56 5.12-7.68 12.8-10.24 23.04-2.56 5.12 0 15.36 5.12 20.48 38.4 35.84 74.24 66.56 112.64 97.28-33.28-2.56-66.56-10.24-99.84-17.92-2.56 7.68-7.68 15.36-7.68 23.04 0 7.68 0 12.8 5.12 17.92 30.72 30.72 64 58.88 97.28 84.48-40.96-2.56-79.36-10.24-117.76-17.92 0 7.68 2.56 17.92 2.56 25.6 0 5.12 5.12 12.8 15.36 15.36 38.4 7.68 76.8 12.8 115.2 15.36-2.56 10.24-10.24 20.48-15.36 33.28 10.24 5.12 23.04 10.24 33.28 15.36 5.12-12.8 15.36-33.28 20.48-46.08 43.52 2.56 81.92 2.56 125.44 2.56v-30.72z m-28.16-389.12c-35.84 46.08-71.68 84.48-110.08 125.44-33.28-28.16-94.72-84.48-135.68-122.88-5.12 2.56-10.24 10.24-12.8 20.48-2.56 7.68-2.56 15.36 5.12 23.04 43.52 40.96 156.16 140.8 238.08 207.36 5.12-5.12 17.92-15.36 25.6-23.04-25.6-20.48-71.68-61.44-94.72-81.92 35.84-35.84 76.8-76.8 99.84-104.96 5.12-5.12 7.68-17.92 2.56-25.6-7.68-5.12-12.8-12.8-17.92-17.92z m92.16 87.04c-10.24-2.56-25.6-2.56-35.84-2.56-5.12 120.32-5.12 232.96 0 355.84h35.84c-5.12-120.32-10.24-235.52 0-353.28z m89.6 376.32c7.68-140.8 12.8-307.2-2.56-414.72-2.56-17.92-12.8-28.16-25.6-35.84-17.92-10.24-46.08-7.68-58.88-2.56-10.24 2.56-12.8 10.24-15.36 17.92-2.56 7.68-2.56 12.8-2.56 20.48 15.36-2.56 33.28-5.12 53.76-5.12 7.68 2.56 12.8 7.68 15.36 17.92 7.68 94.72 10.24 268.8 0 404.48h35.84z"/></svg>