<?xml version="1.0" standalone="no"?><!DOCTYPE svg PUBLIC "-//W3C//DTD SVG 1.1//EN"
        "http://www.w3.org/Graphics/SVG/1.1/DTD/svg11.dtd"><svg viewBox="0 0 1024 1024" version="1.1" xmlns="http://www.w3.org/2000/svg" xmlns:xlink="http://www.w3.org/1999/xlink"><path transform="scale(1, -1) translate(0, -1024)" d="M128 768C57.4 768 0 710.6 0 640v-512c0-70.6 57.4-128 128-128h896c70.6 0 128 57.4 128 128V640c0 70.6-57.4 128-128 128H128z m32-128h64c17.6 0 32-14.4 32-32v-64c0-17.6-14.4-32-32-32H160c-17.6 0-32 14.4-32 32v64c0 17.6 14.4 32 32 32zM128 416c0 17.6 14.4 32 32 32h64c17.6 0 32-14.4 32-32v-64c0-17.6-14.4-32-32-32H160c-17.6 0-32 14.4-32 32v64z m32-160h64c17.6 0 32-14.4 32-32v-64c0-17.6-14.4-32-32-32H160c-17.6 0-32 14.4-32 32v64c0 17.6 14.4 32 32 32z m160 352c0 17.6 14.4 32 32 32h64c17.6 0 32-14.4 32-32v-64c0-17.6-14.4-32-32-32h-64c-17.6 0-32 14.4-32 32v64z m32-160h64c17.6 0 32-14.4 32-32v-64c0-17.6-14.4-32-32-32h-64c-17.6 0-32 14.4-32 32v64c0 17.6 14.4 32 32 32z m-32-224c0 17.6 14.4 32 32 32h448c17.6 0 32-14.4 32-32v-64c0-17.6-14.4-32-32-32H352c-17.6 0-32 14.4-32 32v64z m224 416h64c17.6 0 32-14.4 32-32v-64c0-17.6-14.4-32-32-32h-64c-17.6 0-32 14.4-32 32v64c0 17.6 14.4 32 32 32z m-32-224c0 17.6 14.4 32 32 32h64c17.6 0 32-14.4 32-32v-64c0-17.6-14.4-32-32-32h-64c-17.6 0-32 14.4-32 32v64z m224 224h64c17.6 0 32-14.4 32-32v-64c0-17.6-14.4-32-32-32h-64c-17.6 0-32 14.4-32 32v64c0 17.6 14.4 32 32 32z m-32-224c0 17.6 14.4 32 32 32h64c17.6 0 32-14.4 32-32v-64c0-17.6-14.4-32-32-32h-64c-17.6 0-32 14.4-32 32v64z m224 224h64c17.6 0 32-14.4 32-32v-64c0-17.6-14.4-32-32-32h-64c-17.6 0-32 14.4-32 32v64c0 17.6 14.4 32 32 32z m-32-224c0 17.6 14.4 32 32 32h64c17.6 0 32-14.4 32-32v-64c0-17.6-14.4-32-32-32h-64c-17.6 0-32 14.4-32 32v64z m32-160h64c17.6 0 32-14.4 32-32v-64c0-17.6-14.4-32-32-32h-64c-17.6 0-32 14.4-32 32v64c0 17.6 14.4 32 32 32z"/></svg>