<?xml version="1.0" standalone="no"?><!DOCTYPE svg PUBLIC "-//W3C//DTD SVG 1.1//EN"
        "http://www.w3.org/Graphics/SVG/1.1/DTD/svg11.dtd"><svg viewBox="0 0 1024 1024" version="1.1" xmlns="http://www.w3.org/2000/svg" xmlns:xlink="http://www.w3.org/1999/xlink"><path transform="scale(1, -1) translate(0, -1024)" d="M0 640c0 70.6 57.4 128 128 128h1024c70.6 0 128-57.4 128-128v-512c0-70.6-57.4-128-128-128H128c-70.6 0-128 57.4-128 128V640z m640 0v-512h512V640H640z m-283.4-95.8c-6.4 14.4-20.8 23.8-36.6 23.8s-30.2-9.4-36.6-23.8l-128-288c-9-20.2 0.2-43.8 20.4-52.8s43.8 0.2 52.8 20.4l17.8 40.2h147.2l17.8-40.2c9-20.2 32.6-29.2 52.8-20.4s29.2 32.6 20.4 52.8l-128 288zM320 429.6l38-85.6h-76l38 85.6zM896 568c22 0 40-18 40-40v-8h120c22 0 40-18 40-40s-18-40-40-40h-4l-3.2-9c-17.8-48.8-44.8-93.2-79.2-130.8 1.8-1.2 3.6-2.2 5.4-3.2l37.8-22.6c19-11.4 25-36 13.8-54.8s-36-25-54.8-13.8L934 228.4c-9 5.4-17.6 11-26.2 17-21.2-15-43.8-28-68-38.8l-7.2-3.2c-20.2-9-43.8 0.2-52.8 20.4s0.2 43.8 20.4 52.8l7.2 3.2c12.8 5.8 25.2 12.2 37 19.6L820 323.8c-15.6 15.6-15.6 41 0 56.6s41 15.6 56.6 0l29.2-29.2 1-1c24.8 26.2 45 56.6 59.6 90H752c-22 0-40 18-40 40s18 40 40 40h104v8c0 22 18 40 40 40z"/></svg>