<?xml version="1.0" standalone="no"?><!DOCTYPE svg PUBLIC "-//W3C//DTD SVG 1.1//EN"
        "http://www.w3.org/Graphics/SVG/1.1/DTD/svg11.dtd"><svg viewBox="0 0 1024 1024" version="1.1" xmlns="http://www.w3.org/2000/svg" xmlns:xlink="http://www.w3.org/1999/xlink"><path transform="scale(1, -1) translate(0, -1024)" d="M672 128c19.2 63.8 59 118.2 98.4 172.4 10.4 14.2 20.8 28.4 30.8 42.8 39.6 57 62.8 126 62.8 200.6C864 738.4 706.4 896 512 896S160 738.4 160 544c0-74.6 23.2-143.8 62.8-200.6 10-14.4 20.4-28.6 30.8-42.8 39.6-54.2 79.4-108.8 98.4-172.4h320z m-160-256c88.4 0 160 71.6 160 160v32H352v-32c0-88.4 71.6-160 160-160z m-160 672c0-17.6-14.4-32-32-32s-32 14.4-32 32c0 123.8 100.2 224 224 224 17.6 0 32-14.4 32-32s-14.4-32-32-32c-88.4 0-160-71.6-160-160z"/></svg>