<?xml version="1.0" standalone="no"?><!DOCTYPE svg PUBLIC "-//W3C//DTD SVG 1.1//EN"
        "http://www.w3.org/Graphics/SVG/1.1/DTD/svg11.dtd"><svg viewBox="0 0 1024 1024" version="1.1" xmlns="http://www.w3.org/2000/svg" xmlns:xlink="http://www.w3.org/1999/xlink"><path transform="scale(1, -1) translate(0, -1024)" d="M514.408 666.483c-137.23 0-247.975-111.549-247.975-247.975 0-77.843 36.112-150.07 97.906-197.417 15.247-11.235 36.915-8.828 48.15 6.42s8.828 36.915-6.42 48.15c-44.94 34.508-70.62 86.671-70.62 142.847 0 98.708 80.25 178.96 178.959 178.96s178.959-80.252 178.959-178.96c0-65.003-35.31-125.191-92.289-156.49-0.802-0.802-1.605-0.802-1.605-1.604-0.802-0.803-1.605-0.803-1.605-0.803-12.037-8.827-18.457-14.445-20.062-105.93l-174.947 40.125c-18.458 4.012-36.915-7.223-41.73-25.68-4.013-18.458 7.222-36.916 25.68-41.731l217.48-49.756c2.407-0.802 4.814-0.802 8.024-0.802 8.026 0 15.248 2.408 21.668 7.223 8.025 6.42 12.84 16.852 12.84 27.285v18.458c0 46.545 1.605 69.818 2.408 81.855 70.62 45.743 113.956 124.389 113.956 208.652-0.803 136.427-112.351 247.173-248.777 247.173z m77.843-616.326L398.846 95.9c-18.457 4.012-36.915-7.223-41.73-25.68-4.013-18.458 7.223-36.916 25.68-41.731l193.405-45.743c2.407-0.802 5.617-0.802 8.025-0.802 16.05 0 29.692 10.432 33.705 26.482 4.815 19.26-7.223 37.718-25.68 41.73z m-38.52-87.474l-133.217 31.298c-18.458 4.013-36.915-7.222-41.73-25.68-4.013-18.458 7.222-36.915 25.68-41.73l133.216-31.298c2.408-0.803 5.618-0.803 8.025-0.803 16.05 0 29.693 10.433 33.706 26.483 4.815 18.458-7.223 36.915-25.68 41.73zM574.596 418.508c0-19.26 15.247-34.508 34.507-34.508s34.508 15.248 34.508 34.508c0 81.856-60.188 138.031-146.859 138.031-19.26 0-34.507-15.247-34.507-34.508s15.247-34.507 34.507-34.507c17.656 0 77.844-4.816 77.844-69.016z m-60.188 334.646c19.26 0 34.507 15.247 34.507 34.507v51.36c0 19.261-15.247 34.509-34.507 34.509S479.9 858.282 479.9 839.022v-51.36c0-19.26 15.247-34.508 34.508-34.508z m-225.505-44.138l-36.916 36.915c-13.642 13.643-35.31 13.643-48.953 0-13.642-13.643-13.642-35.31 0-48.953l36.916-36.915c13.642-13.643 35.31-13.643 48.953 0 13.642 12.84 13.642 35.31 0 48.953z m-118.771-239.95h-51.36c-19.261 0-34.509-15.248-34.509-34.508s15.248-34.508 34.508-34.508h51.36c19.26 0 34.508 15.248 34.508 34.508s-16.05 34.508-34.507 34.508z m654.846 276.063c-13.643 13.642-35.31 13.642-48.953 0l-36.915-36.916c-13.643-13.642-13.643-35.31 0-48.953 13.642-13.642 35.31-13.642 48.953 0l36.915 36.916c13.643 13.642 13.643 35.31 0 48.953z m85.868-276.063h-52.163c-19.26 0-34.507-15.248-34.507-34.508s15.247-34.508 34.507-34.508h51.36c19.261 0 34.509 15.248 34.509 34.508 0.802 19.26-15.248 34.508-33.706 34.508z"/></svg>