<?xml version="1.0" standalone="no"?><!DOCTYPE svg PUBLIC "-//W3C//DTD SVG 1.1//EN"
        "http://www.w3.org/Graphics/SVG/1.1/DTD/svg11.dtd"><svg viewBox="0 0 1024 1024" version="1.1" xmlns="http://www.w3.org/2000/svg" xmlns:xlink="http://www.w3.org/1999/xlink"><path transform="scale(1, -1) translate(0, -1024)" d="M1159.6 360.6c113 113 113 296 0 409-100 100-257.6 113-372.6 30.8l-3.2-2.2c-28.8-20.6-35.4-60.6-14.8-89.2s60.6-35.4 89.2-14.8l3.2 2.2c64.2 45.8 152 38.6 207.6-17.2 63-63 63-165 0-228L844.6 226.4c-63-63-165-63-228 0-55.8 55.8-63 143.6-17.2 207.6l2.2 3.2c20.6 28.8 13.8 68.8-14.8 89.2s-68.8 13.8-89.2-14.8l-2.2-3.2C413 393.6 426 236 526 136c113-113 296-113 409 0l224.6 224.6zM120.4 407.4c-113-113-113-296 0-409 100-100 257.6-113 372.6-30.8l3.2 2.2c28.8 20.6 35.4 60.6 14.8 89.2s-60.6 35.4-89.2 14.8l-3.2-2.2c-64.2-45.8-152-38.6-207.6 17.2C148 152 148 254 211 317l224.4 224.6c63 63 165 63 228 0 55.8-55.8 63-143.6 17.2-207.8l-2.2-3.2c-20.6-28.8-13.8-68.8 14.8-89.2s68.8-13.8 89.2 14.8l2.2 3.2C867 374.4 854 532 754 632c-113 113-296 113-409 0L120.4 407.4z"/></svg>