<?xml version="1.0" standalone="no"?><!DOCTYPE svg PUBLIC "-//W3C//DTD SVG 1.1//EN"
        "http://www.w3.org/Graphics/SVG/1.1/DTD/svg11.dtd"><svg viewBox="0 0 1024 1024" version="1.1" xmlns="http://www.w3.org/2000/svg" xmlns:xlink="http://www.w3.org/1999/xlink"><path transform="scale(1, -1) translate(0, -1024)" d="M128 608a96 96 0 1 1 0 192 96 96 0 1 1 0-192z m256 160c-35.4 0-64-28.6-64-64s28.6-64 64-64h576c35.4 0 64 28.6 64 64s-28.6 64-64 64H384z m0-320c-35.4 0-64-28.6-64-64s28.6-64 64-64h576c35.4 0 64 28.6 64 64s-28.6 64-64 64H384z m0-320c-35.4 0-64-28.6-64-64s28.6-64 64-64h576c35.4 0 64 28.6 64 64s-28.6 64-64 64H384zM128-32a96 96 0 1 1 0 192 96 96 0 1 1 0-192z m96 416a96 96 0 1 1-192 0 96 96 0 1 1 192 0z"/></svg>