<?xml version="1.0" standalone="no"?><!DOCTYPE svg PUBLIC "-//W3C//DTD SVG 1.1//EN"
        "http://www.w3.org/Graphics/SVG/1.1/DTD/svg11.dtd"><svg viewBox="0 0 1024 1024" version="1.1" xmlns="http://www.w3.org/2000/svg" xmlns:xlink="http://www.w3.org/1999/xlink"><path transform="scale(1, -1) translate(0, -1024)" d="M574.85555 832C327.85555 832 127.85555 631.4 127.85555 384s200-448 447-448c121.2 0 231 48.4 311.6 126.8 10 9.8 12.6 25 6.2 37.4s-20.2 19.4-34 17c-19.6-3.4-39.6-5.2-60.2-5.2-193.8 0-351 157.6-351 352 0 131.6 72 246.2 178.6 306.6 12.2 7 18.4 21 15.4 34.6s-14.6 23.8-28.6 25c-12.6 1-25.2 1.6-38 1.6z"/></svg>