<?xml version="1.0" standalone="no"?><!DOCTYPE svg PUBLIC "-//W3C//DTD SVG 1.1//EN"
        "http://www.w3.org/Graphics/SVG/1.1/DTD/svg11.dtd"><svg viewBox="0 0 1024 1024" version="1.1" xmlns="http://www.w3.org/2000/svg" xmlns:xlink="http://www.w3.org/1999/xlink"><path transform="scale(1, -1) translate(0, -1024)" d="M998.094732 883.29334c16.198292-11.998735 25.797279-31.19671 25.797279-51.394579v-671.929133c0-88.390678-85.990931-159.983127-191.979752-159.983127s-191.979752 71.592449-191.979752 159.983127 85.990931 159.983127 191.979752 159.983127c22.397638 0 43.99536-3.199663 63.993251-9.19903V601.923016l-511.946006-153.583802V31.983127c0-88.390678-85.990931-159.983127-191.979752-159.983127S0-56.407551 0 31.983127s85.990931 159.983127 191.979752 159.983127c22.397638 0 43.99536-3.199663 63.993251-9.19903V639.919009c0 28.197026 18.598038 53.19439 45.595191 61.393524l639.932507 191.979753c19.397954 5.799388 40.39574 2.199768 56.594031-9.998946z"/></svg>