<?xml version="1.0" standalone="no"?><!DOCTYPE svg PUBLIC "-//W3C//DTD SVG 1.1//EN"
        "http://www.w3.org/Graphics/SVG/1.1/DTD/svg11.dtd"><svg viewBox="0 0 1024 1024" version="1.1" xmlns="http://www.w3.org/2000/svg" xmlns:xlink="http://www.w3.org/1999/xlink"><path transform="scale(1, -1) translate(0, -1024)" d="M996.022225 884.794683c20.195814-13.997099 30.793617-38.192083 26.994405-62.387068l-127.973473-831.827575c-2.999378-19.39598-14.796933-36.392456-31.993368-45.990467s-37.792166-10.797762-55.988395-3.199337L567.910966 40.769637l-136.971607-148.169287c-17.796311-19.39598-45.790508-25.794653-70.385411-16.196643S319.962362-90.203215 319.962362-63.808686v167.165349c0 7.998342 2.999378 15.596767 8.39826 21.395565l335.130532 365.724191c11.597596 12.597389 11.197679 31.993368-0.799834 43.990881s-31.393493 12.797347-43.990881 1.39971L211.984745 174.541908l-176.563401 88.381679C14.225737 273.521391 0.628556 294.716997 0.02868 318.312106s11.797555 45.59055 32.193327 57.388104l895.814311 511.893892c21.395565 12.197472 47.790094 10.99772 67.985907-2.799419z"/></svg>