<?xml version="1.0" standalone="no"?><!DOCTYPE svg PUBLIC "-//W3C//DTD SVG 1.1//EN"
        "http://www.w3.org/Graphics/SVG/1.1/DTD/svg11.dtd"><svg viewBox="0 0 1024 1024" version="1.1" xmlns="http://www.w3.org/2000/svg" xmlns:xlink="http://www.w3.org/1999/xlink"><path transform="scale(1, -1) translate(0, -1024)" d="M288 768C235 768 192 725 192 672v-576c0-53 43-96 96-96h64c53 0 96 43 96 96V672c0 53-43 96-96 96H288z m384 0c-53 0-96-43-96-96v-576c0-53 43-96 96-96h64c53 0 96 43 96 96V672c0 53-43 96-96 96h-64z"/></svg>