<?xml version="1.0" standalone="no"?><!DOCTYPE svg PUBLIC "-//W3C//DTD SVG 1.1//EN"
        "http://www.w3.org/Graphics/SVG/1.1/DTD/svg11.dtd"><svg viewBox="0 0 1024 1024" version="1.1" xmlns="http://www.w3.org/2000/svg" xmlns:xlink="http://www.w3.org/1999/xlink"><path transform="scale(1, -1) translate(0, -1024)" d="M895.914667 768v-85.333333a298.666667 298.666667 0 0 0-298.666667-298.666667h-42.666667v-42.666667h213.333334v-298.666666a85.333333 85.333333 0 0 0-85.333334-85.333334h-341.333333a85.333333 85.333333 0 0 0-85.333333 85.333334v298.666666h213.333333v128a298.666667 298.666667 0 0 0 298.666667 298.666667h128z m-661.333334 42.666667a319.573333 319.573333 0 0 0 261.290667-135.210667A339.712 339.712 0 0 1 426.581333 469.333333v-42.666666h-21.333333a320 320 0 0 0-320 320V810.666667h149.333333z"/></svg>