<?xml version="1.0" standalone="no"?><!DOCTYPE svg PUBLIC "-//W3C//DTD SVG 1.1//EN"
        "http://www.w3.org/Graphics/SVG/1.1/DTD/svg11.dtd"><svg viewBox="0 0 1024 1024" version="1.1" xmlns="http://www.w3.org/2000/svg" xmlns:xlink="http://www.w3.org/1999/xlink"><path transform="scale(1, -1) translate(0, -1024)" d="M85.333333 853.333333h341.333334a42.666667 42.666667 0 0 0 42.666666-42.666666v-341.333334a42.666667 42.666667 0 0 0-42.666666-42.666666H85.333333a42.666667 42.666667 0 0 0-42.666666 42.666666V810.666667a42.666667 42.666667 0 0 0 42.666666 42.666666z m42.666667-85.333333v-256h256V768H128zM213.333333 682.666667h85.333334v-85.333334H213.333333zM597.333333 853.333333h341.333334a42.666667 42.666667 0 0 0 42.666666-42.666666v-341.333334a42.666667 42.666667 0 0 0-42.666666-42.666666h-341.333334a42.666667 42.666667 0 0 0-42.666666 42.666666V810.666667a42.666667 42.666667 0 0 0 42.666666 42.666666z m42.666667-85.333333v-256h256V768h-256zM725.333333 682.666667h85.333334v-85.333334h-85.333334zM85.333333 341.333333h341.333334a42.666667 42.666667 0 0 0 42.666666-42.666666v-341.333334a42.666667 42.666667 0 0 0-42.666666-42.666666H85.333333a42.666667 42.666667 0 0 0-42.666666 42.666666v341.333334a42.666667 42.666667 0 0 0 42.666666 42.666666z m42.666667-85.333333v-256h256v256H128zM213.333333 170.666667h85.333334v-85.333334H213.333333zM981.333333 85.333333h-170.666666v-170.666666h-213.333334a42.666667 42.666667 0 0 0-42.666666 42.666666v341.333334-213.333334h85.333333v-85.333333h85.333333v256h-85.333333v85.333333h-42.666667 128v-85.333333h85.333334v-85.333333h85.333333v170.666666h42.666667a42.666667 42.666667 0 0 0 42.666666-42.666666v-213.333334z m0-85.333333v-42.666667a42.666667 42.666667 0 0 0-42.666666-42.666666h-42.666667v85.333333h85.333333z"/></svg>