<?xml version="1.0" standalone="no"?><!DOCTYPE svg PUBLIC "-//W3C//DTD SVG 1.1//EN"
        "http://www.w3.org/Graphics/SVG/1.1/DTD/svg11.dtd"><svg viewBox="0 0 1024 1024" version="1.1" xmlns="http://www.w3.org/2000/svg" xmlns:xlink="http://www.w3.org/1999/xlink"><path transform="scale(1, -1) translate(0, -1024)" d="M989.587765 801.988502c25.399686 7.399909 39.999505 34.199577 32.599597 59.599263S987.987785 901.587271 962.388102 893.987365L103.398722 642.190478c-18.799768-5.399933-35.799557-14.599819-50.19938-26.399674C20.99974 592.591091 0 554.791558 0 511.992088v-511.99367c0-70.599127 57.39929-127.998418 127.998418-127.998418h767.990505c70.599127 0 127.998418 57.39929 127.998417 127.998418V511.992088c0 70.599127-57.39929 127.998418-127.998417 127.998417H436.994597l552.593168 161.997997zM735.990901 415.993274a159.998022 159.998022 0 1 0 0-319.996043 159.998022 159.998022 0 1 0 0 319.996043zM159.998022 383.99367c0 17.599782 14.399822 31.999604 31.999604 31.999604h191.997627c17.599782 0 31.999604-14.399822 31.999604-31.999604s-14.399822-31.999604-31.999604-31.999604H191.997626c-17.599782 0-31.999604 14.399822-31.999604 31.999604z m-31.999604-127.998417c0 17.599782 14.399822 31.999604 31.999604 31.999604h255.996835c17.599782 0 31.999604-14.399822 31.999604-31.999604s-14.399822-31.999604-31.999604-31.999605H159.998022c-17.599782 0-31.999604 14.399822-31.999604 31.999605z m31.999604-127.998418c0 17.599782 14.399822 31.999604 31.999604 31.999604h191.997627c17.599782 0 31.999604-14.399822 31.999604-31.999604s-14.399822-31.999604-31.999604-31.999604H191.997626c-17.599782 0-31.999604 14.399822-31.999604 31.999604z"/></svg>