<?xml version="1.0" standalone="no"?><!DOCTYPE svg PUBLIC "-//W3C//DTD SVG 1.1//EN"
        "http://www.w3.org/Graphics/SVG/1.1/DTD/svg11.dtd"><svg viewBox="0 0 1024 1024" version="1.1" xmlns="http://www.w3.org/2000/svg" xmlns:xlink="http://www.w3.org/1999/xlink"><path transform="scale(1, -1) translate(0, -1024)" d="M64 768c0 35.4 28.6 64 64 64 459.6 0 832-372.4 832-832 0-35.4-28.6-64-64-64s-64 28.6-64 64C832 388.8 516.8 704 128 704 92.6 704 64 732.6 64 768z m0-704a128 128 0 1 0 256 0 128 128 0 1 0-256 0z m64 512c318.2 0 576-257.8 576-576 0-35.4-28.6-64-64-64s-64 28.6-64 64c0 247.4-200.6 448-448 448-35.4 0-64 28.6-64 64s28.6 64 64 64z"/></svg>