<?xml version="1.0" standalone="no"?><!DOCTYPE svg PUBLIC "-//W3C//DTD SVG 1.1//EN"
        "http://www.w3.org/Graphics/SVG/1.1/DTD/svg11.dtd"><svg viewBox="0 0 1024 1024" version="1.1" xmlns="http://www.w3.org/2000/svg" xmlns:xlink="http://www.w3.org/1999/xlink"><path transform="scale(1, -1) translate(0, -1024)" d="M916.582 512.205c0 1.177-0.153 2.406-0.358 3.584-0.051 0.307-0.154 0.563-0.205 0.87-0.205 0.922-0.512 1.843-0.819 2.714-0.102 0.256-0.205 0.563-0.307 0.819-0.41 0.973-0.922 1.894-1.485 2.816l-61.798 96.666c-2.304 31.13-20.07 57.958-45.722 72.806 18.586 23.552 39.322 31.898 40.858 32.46a20.47 20.47 0 0 1-14.03 38.452c-1.791-0.666-28.466-10.65-53.452-38.963a66.452 66.452 0 0 1-60.262 9.625l-68.608-22.579c-24.116 55.04-79.104 93.645-143.002 93.645-15.309 0-30.464-2.202-45.005-6.605-32.46-9.779-61.389-30.361-81.408-57.907a20.48 20.48 0 0 1 4.557-28.62 20.531 20.531 0 0 1 28.62 4.556c14.746 20.378 36.097 35.533 60.007 42.752 10.701 3.226 21.914 4.864 33.229 4.864 52.787 0 97.382-35.738 110.848-84.275a122.88 122.88 0 0 0 3.072-14.695l0.154-1.126c0.256-1.997 0.46-4.045 0.614-6.042l0.154-1.74c0.153-2.407 0.256-4.813 0.256-7.22 0-63.436-51.61-115.097-115.098-115.097-2.714 0-5.427 0.102-8.09 0.307-0.46 0.051-0.972 0.051-1.433 0.102-31.847 2.714-60.98 18.688-80.538 43.213l-0.665 0.82c-1.639 2.099-3.226 4.249-4.71 6.45-0.103 0.154-0.206 0.359-0.36 0.513a141.173 141.173 0 0 0-3.686 5.888c-0.358 0.665-0.768 1.28-1.126 1.945a125.628 125.628 0 0 0-3.328 6.4 28.993 28.993 0 0 0-0.82 1.843c-0.87 1.895-1.689 3.79-2.406 5.735-5.068 13.005-7.936 27.085-7.936 41.881 0 11.316-9.164 20.48-20.48 20.48s-20.48-9.164-20.48-20.48c0-11.93 1.383-23.552 3.943-34.713l-236.032-77.67c-8.039-2.663-13.722-9.217-15.411-17.05-9.012-8.55-14.695-20.583-14.695-33.946v-86.323c0-11.315 9.165-20.48 20.48-20.48s20.48 9.165 20.48 20.48v86.272a5.834 5.834 0 0 0 5.837 5.837h409.6c5.478 0 9.882-4.455 9.882-9.882v-125.85c0-20.428 8.038-39.526 22.579-53.81 11.878-11.674 26.982-18.893 43.213-20.941l1.177-0.154c1.741-0.205 3.533-0.307 5.325-0.358 0.563 0 1.126-0.103 1.74-0.103h1.434c0.256 0 0.461 0.051 0.717 0.051h0.666c0.768 0 1.536 0.103 2.304 0.154 1.587 0.102 3.174 0.154 4.761 0.358a19.239 19.239 0 0 1 1.69 0.256c16.026 2.15 30.925 9.268 42.65 20.839 13.772 13.517 21.606 31.334 22.425 50.483h169.575v-130.816h-79.156c-30.668 0-55.603-24.934-55.603-55.603v-43.571c0-7.578-3.02-14.541-8.55-19.764a27.044 27.044 0 0 0-20.327-7.27c-13.875 0.922-25.19 13.722-25.19 28.62v41.934c0 30.668-24.934 55.603-55.603 55.603H610.97c-30.67 0-55.604-24.935-55.604-55.603v-140.954c0-0.563-0.153-1.075-0.153-1.587-0.103-1.536-0.256-3.123-0.615-4.557-0.05-0.205-0.153-0.41-0.204-0.666-0.359-1.484-0.82-2.918-1.434-4.3-0.256-0.615-0.666-1.178-0.973-1.792-0.512-0.922-0.921-1.844-1.536-2.714a26.686 26.686 0 0 0-3.584-4.096c-0.153-0.154-0.358-0.256-0.512-0.41a25.408 25.408 0 0 0-3.789-2.867c-0.358-0.205-0.716-0.358-1.075-0.563-1.229-0.666-2.457-1.28-3.737-1.792-0.461-0.154-0.922-0.256-1.332-0.41-1.228-0.41-2.508-0.716-3.788-0.921-0.615-0.103-1.28-0.154-1.895-0.205a36.188 36.188 0 0 0-3.328-0.154c-0.819 0.052-1.638 0.154-2.457 0.256-1.024 0.154-2.048 0.256-3.072 0.512l-1.024 0.308c-11.162 3.481-19.559 14.694-19.559 27.494v54.323c0 11.315-9.165 20.48-20.48 20.48s-20.48-9.165-20.48-20.48v-37.069H144.077c-7.731 0-13.978 6.298-13.978 13.978v171.52c0 11.315-9.165 20.48-20.48 20.48s-20.48-9.165-20.48-20.48v-171.52c0-30.31 24.679-54.938 54.938-54.938h319.795c8.602-25.446 31.693-43.827 59.494-45.772 0.103 0 0.256-0.052 0.359-0.052 1.382-0.102 2.713-0.102 4.096-0.153h0.973a64.37 64.37 0 0 1 5.478 0.256c0.768 0.051 1.485 0.153 2.253 0.256 1.229 0.153 2.509 0.307 3.686 0.512l2.304 0.46a75.474 75.474 0 0 1 3.635 0.871c0.666 0.205 1.332 0.358 1.997 0.563 1.434 0.461 2.867 0.922 4.301 1.485 0.358 0.154 0.768 0.256 1.126 0.41a67.414 67.414 0 0 1 39.015 41.113h269.056c30.31 0 54.937 24.679 54.937 54.938v454.4zM710.861 627.968c5.017 16.026 17.664 28.672 33.69 33.69-1.28-4.199-2.51-8.5-3.533-13.005a20.526 20.526 0 0 1 19.968-25.19 20.48 20.48 0 0 1 19.916 15.82c1.434 6.195 3.277 11.879 5.223 17.255a51.159 51.159 0 0 0 24.832-43.572v-0.358c0-1.229-0.103-2.458-0.205-3.635-0.051-0.563-0.051-1.127-0.102-1.639-0.103-1.177-0.308-2.304-0.512-3.481-0.103-0.512-0.154-1.075-0.256-1.587a63.13 63.13 0 0 0-0.87-3.328c-0.154-0.512-0.257-1.024-0.41-1.536-0.359-1.076-0.768-2.15-1.178-3.226-0.205-0.46-0.358-0.973-0.563-1.434a55.117 55.117 0 0 0-1.485-3.02c-0.256-0.461-0.46-0.973-0.717-1.434-0.512-0.973-1.126-1.894-1.74-2.816-0.308-0.46-0.564-0.922-0.871-1.382-0.614-0.87-1.28-1.741-1.946-2.612-0.358-0.46-0.665-0.921-1.024-1.33a30.8 30.8 0 0 0-2.15-2.356c-0.41-0.41-0.768-0.87-1.178-1.28-0.716-0.717-1.536-1.382-2.304-2.1-0.46-0.409-0.87-0.818-1.33-1.228a41.896 41.896 0 0 0-2.407-1.792c-0.512-0.358-0.973-0.768-1.536-1.126-0.82-0.564-1.69-1.024-2.509-1.536-0.563-0.359-1.126-0.717-1.69-1.024-0.87-0.461-1.74-0.87-2.662-1.28-0.614-0.308-1.178-0.615-1.792-0.87-0.922-0.36-1.843-0.666-2.765-1.025-0.665-0.205-1.28-0.512-1.894-0.717-0.973-0.307-1.946-0.512-2.919-0.768-0.665-0.153-1.28-0.358-1.945-0.512-1.075-0.204-2.15-0.358-3.226-0.512-0.614-0.102-1.229-0.204-1.843-0.256a57.54 57.54 0 0 0-5.222-0.256c-28.212 0-51.2 22.99-51.2 51.2a53.414 53.414 0 0 0 2.355 15.258z m99.891-91.904c0.46 0.307 0.87 0.614 1.331 0.922 1.895 1.33 3.738 2.662 5.53 4.147 0.358 0.307 0.717 0.563 1.075 0.819 1.997 1.69 3.942 3.43 5.786 5.274l1.177 1.177c1.639 1.639 3.175 3.38 4.66 5.171l0.767 0.922a83.96 83.96 0 0 1 4.71 6.298c0.308 0.46 0.615 0.921 0.922 1.433l1.536 2.304 20.48-32.051h-53.862a69.451 69.451 0 0 1 5.888 3.584zM703.795 685.926c-0.665-0.512-1.28-1.075-1.945-1.587-0.359-0.307-0.768-0.614-1.127-0.921-1.945-1.639-3.84-3.328-5.632-5.12-0.358-0.359-0.665-0.717-1.024-1.024-1.843-1.895-3.635-3.79-5.273-5.837a2.84 2.84 0 0 1-0.308-0.41c-1.638-1.997-3.123-4.045-4.608-6.144l-0.716-1.024a87.045 87.045 0 0 1-4.71-7.936 89.356 89.356 0 0 1-3.38-7.065c-0.154-0.308-0.256-0.666-0.41-0.973a109.95 109.95 0 0 1-2.662-7.22c-0.102-0.255-0.154-0.511-0.256-0.767a101.97 101.97 0 0 1-2.304-9.268 102.296 102.296 0 0 1-1.229-7.936c-0.051-0.46-0.102-0.921-0.102-1.433a93.77 93.77 0 0 1-0.41-8.55c0-2.817 0.154-5.633 0.41-8.397 0.051-0.717 0.153-1.434 0.205-2.15 0.307-2.56 0.665-5.07 1.177-7.527 0.051-0.205 0.051-0.41 0.103-0.615a103.235 103.235 0 0 1 2.61-9.83 91.859 91.859 0 0 1 2.407-6.605c0.154-0.307 0.256-0.665 0.41-1.024 1.024-2.406 2.201-4.761 3.43-7.065 0.307-0.615 0.666-1.178 0.973-1.741 1.075-1.946 2.253-3.84 3.482-5.735 0.256-0.41 0.512-0.768 0.768-1.177a93.165 93.165 0 0 1 4.659-6.195c0.41-0.512 0.819-0.973 1.229-1.485a97.061 97.061 0 0 1 4.352-4.813c0.358-0.41 0.716-0.768 1.126-1.178a111.973 111.973 0 0 1 5.734-5.222c0.461-0.41 0.973-0.768 1.434-1.126 1.69-1.332 3.43-2.663 5.171-3.892 0.512-0.358 0.973-0.716 1.485-1.024a115.538 115.538 0 0 1 5.94-3.686c-0.666 0-1.28-0.102-1.946-0.154-0.82-0.05-1.639-0.102-2.458-0.204-0.87-0.103-1.74-0.256-2.56-0.41-0.82-0.154-1.587-0.256-2.406-0.41-0.82-0.204-1.639-0.41-2.51-0.665-0.767-0.205-1.586-0.41-2.303-0.666-0.82-0.256-1.587-0.563-2.355-0.87-0.768-0.307-1.485-0.563-2.253-0.87-0.768-0.359-1.536-0.717-2.253-1.076-0.717-0.358-1.434-0.665-2.1-1.075-0.716-0.41-1.433-0.87-2.15-1.28-0.665-0.41-1.33-0.82-1.996-1.28s-1.332-0.973-1.997-1.485c-0.615-0.46-1.229-0.921-1.843-1.433-0.666-0.564-1.23-1.127-1.844-1.69-0.563-0.512-1.126-1.024-1.69-1.587-0.614-0.615-1.177-1.28-1.74-1.895l-1.536-1.69c-0.563-0.665-1.024-1.382-1.536-2.047-0.46-0.615-0.922-1.178-1.331-1.843-0.461-0.717-0.922-1.485-1.383-2.253-0.358-0.666-0.768-1.28-1.126-1.946-0.41-0.768-0.768-1.638-1.178-2.457-0.307-0.666-0.665-1.28-0.921-1.997-0.359-0.87-0.666-1.741-0.973-2.663-0.256-0.665-0.512-1.33-0.717-1.996-0.307-0.973-0.512-1.946-0.768-2.919-0.153-0.665-0.358-1.28-0.46-1.945-0.205-1.076-0.359-2.202-0.513-3.328-0.05-0.564-0.204-1.127-0.256-1.69a57.327 57.327 0 0 1-0.256-5.171v-124.007c0-18.278-13.107-33.587-29.9-35.942-0.205-0.051-0.461-0.051-0.666-0.102-0.717-0.103-1.382-0.103-2.1-0.154-0.46 0-0.92-0.051-1.382-0.051a38.451 38.451 0 0 0-9.472 1.331c-0.358 0.102-0.716 0.205-1.024 0.307a22.474 22.474 0 0 1-0.972 0.307c-13.568 4.916-23.348 18.484-23.348 34.304V481.536c0 1.638-0.102 3.277-0.256 4.864-0.05 0.512-0.153 1.024-0.204 1.587-0.154 1.075-0.308 2.15-0.512 3.175-0.103 0.614-0.256 1.177-0.41 1.792-0.205 0.972-0.46 1.894-0.717 2.816a18.33 18.33 0 0 1-0.563 1.792 40.798 40.798 0 0 1-0.973 2.662c-0.256 0.563-0.46 1.178-0.717 1.74-0.41 0.871-0.819 1.793-1.28 2.612l-0.768 1.536c-0.563 0.973-1.126 1.946-1.74 2.867-0.205 0.359-0.41 0.717-0.666 1.024-0.82 1.229-1.74 2.407-2.662 3.584l1.228 0.768c2.048 1.229 4.096 2.458 6.093 3.789 0.563 0.358 1.178 0.717 1.741 1.126 2.509 1.69 4.966 3.43 7.373 5.223 0.563 0.41 1.126 0.87 1.69 1.331a148.726 148.726 0 0 1 5.478 4.454l2.099 1.792a165.647 165.647 0 0 1 5.427 5.018c0.41 0.41 0.87 0.82 1.28 1.229 2.15 2.099 4.199 4.3 6.195 6.553 0.512 0.564 0.973 1.127 1.485 1.69 1.536 1.74 3.021 3.533 4.506 5.376l1.69 2.15a174.758 174.758 0 0 1 4.556 6.196c0.256 0.41 0.563 0.768 0.82 1.177a149.297 149.297 0 0 1 4.863 7.68c0.41 0.666 0.768 1.383 1.178 2.048a141.48 141.48 0 0 1 3.38 6.093c0.409 0.82 0.818 1.587 1.228 2.406a120.837 120.837 0 0 1 3.43 7.373c0.154 0.359 0.308 0.666 0.461 0.973a173.56 173.56 0 0 1 3.328 8.55c0.256 0.768 0.563 1.588 0.82 2.407 0.767 2.201 1.433 4.454 2.099 6.707a145.285 145.285 0 0 1 2.816 11.11l0.153 0.666a184.152 184.152 0 0 1 1.587 9.267c0.103 0.87 0.205 1.792 0.359 2.663 0.307 2.355 0.563 4.71 0.717 7.116 0.05 0.922 0.153 1.895 0.204 2.816a140.221 140.221 0 0 1-0.102 20.122l-0.154 2.253c-0.256 3.481-0.665 6.912-1.126 10.291l41.78 13.926zM369.51 575.898c0.103-0.205 0.256-0.359 0.359-0.564a151.474 151.474 0 0 1 6.195-10.444l1.075-1.69a159.251 159.251 0 0 1 7.322-10.138c0.256-0.307 0.46-0.614 0.717-0.921a161.454 161.454 0 0 1 18.636-19.712H237.312l132.198 43.469z m336.743-182.58v88.218c0 5.478 4.454 9.882 9.881 9.882h159.488v-98.1h-169.37zM861.645 43.93h-265.37V165.94a14.643 14.643 0 0 0 14.643 14.642h20.276a14.643 14.643 0 0 0 14.643-14.643v-41.933c0-36.659 27.904-67.174 63.539-69.478 18.995-1.229 37.12 5.222 50.995 18.227 13.67 12.8 21.504 30.925 21.504 49.613v43.571a14.643 14.643 0 0 0 14.643 14.643h79.156v-122.675a14.075 14.075 0 0 0-14.03-13.977zM109.62 272.845c11.314 0 20.48 9.165 20.48 20.48v23.757c0 11.315-9.166 20.48-20.48 20.48s-20.48-9.165-20.48-20.48v-23.757c0-11.315 9.164-20.48 20.48-20.48z m371.097-137.78c11.315 0 20.48 9.165 20.48 20.48V165.94c0 30.669-24.935 55.603-55.603 55.603H183.706c-11.316 0-20.48-9.164-20.48-20.48s9.164-20.48 20.48-20.48h261.888a14.643 14.643 0 0 0 14.643-14.643v-10.393c0-11.316 9.165-20.48 20.48-20.48zM250.47 393.319h-67.174c-11.315 0-20.48-9.164-20.48-20.48s9.165-20.48 20.48-20.48h67.174c3.533 0 6.4-2.867 6.4-6.4v-2.048c0-22.374 8.807-43.315 24.781-59.033 15.616-15.309 36.096-23.706 57.959-23.706h1.536c44.748 0.82 81.152 38.861 81.152 84.736 0 3.533 2.867 6.4 6.4 6.4h78.49c11.314 0 20.48 9.165 20.48 20.48s-9.166 20.48-20.48 20.48h-78.542c-26.112 0-47.36-21.248-47.36-47.36 0-23.757-18.38-43.417-40.96-43.827-11.264-0.205-21.964 4.045-30.054 11.93s-12.493 18.483-12.493 29.798v2.048c0 26.266-21.248 47.462-47.309 47.462z m228.916 220.468a20.475 20.475 0 0 1 20.326 20.633c-0.256 29.184 18.842 36.147 22.784 37.274a20.49 20.49 0 0 1 14.797 24.678 20.408 20.408 0 0 1-24.73 15.053c-18.79-4.557-54.22-26.573-53.811-77.312 0.102-11.264 9.267-20.326 20.48-20.326h0.154z"/></svg>