<?xml version="1.0" standalone="no"?><!DOCTYPE svg PUBLIC "-//W3C//DTD SVG 1.1//EN"
        "http://www.w3.org/Graphics/SVG/1.1/DTD/svg11.dtd"><svg viewBox="0 0 1024 1024" version="1.1" xmlns="http://www.w3.org/2000/svg" xmlns:xlink="http://www.w3.org/1999/xlink"><path transform="scale(1, -1) translate(0, -1024)" d="M512 512l-79 79c9.8 25.2 15 52.4 15 81C448 795.8 347.8 896 224 896S0 795.8 0 672s100.2-224 224-224c28.6 0 55.8 5.4 81 15L384 384l-79-79c-25.2 9.8-52.4 15-81 15C100.2 320 0 219.8 0 96s100.2-224 224-224 224 100.2 224 224c0 28.6-5.4 55.8-15 81L998.4 742.4c14.2 14.2 14.2 37 0 51.2-56.6 56.6-148.2 56.6-204.8 0L512 512z m45.2-301.2l236.4-236.4c56.6-56.6 148.2-56.6 204.8 0 14.2 14.2 14.2 37 0 51.2L685.2 338.8l-128-128zM128 672a96 96 0 1 0 192 0 96 96 0 1 0-192 0z m96-480a96 96 0 1 0 0-192 96 96 0 1 0 0 192z"/></svg>