<?xml version="1.0" standalone="no"?><!DOCTYPE svg PUBLIC "-//W3C//DTD SVG 1.1//EN"
        "http://www.w3.org/Graphics/SVG/1.1/DTD/svg11.dtd"><svg viewBox="0 0 1024 1024" version="1.1" xmlns="http://www.w3.org/2000/svg" xmlns:xlink="http://www.w3.org/1999/xlink"><path transform="scale(1, -1) translate(0, -1024)" d="M630.8 865C619.4 884.2 598.4 896 576 896s-43.4-11.8-54.8-31l-192-320c-11.8-19.8-12.2-44.4-0.8-64.4s32.6-32.4 55.6-32.4h384c23 0 44.4 12.4 55.6 32.4s11 44.6-0.8 64.4l-192 320zM576 272v-288c0-44.2 35.8-80 80-80h288c44.2 0 80 35.8 80 80V272c0 44.2-35.8 80-80 80H656c-44.2 0-80-35.8-80-80zM256-128a256 256 0 1 1 0 512 256 256 0 1 1 0-512z"/></svg>