<?xml version="1.0" standalone="no"?><!DOCTYPE svg PUBLIC "-//W3C//DTD SVG 1.1//EN"
        "http://www.w3.org/Graphics/SVG/1.1/DTD/svg11.dtd"><svg viewBox="0 0 1024 1024" version="1.1" xmlns="http://www.w3.org/2000/svg" xmlns:xlink="http://www.w3.org/1999/xlink"><path transform="scale(1, -1) translate(0, -1024)" d="M832 896c-127.4 0-320-64-320-64v-256c96 0 152-32 208-64s112-64 208-64c112.8 0 352 32 352 192S1024 896 832 896zM256 704c0-70.6 57.4-128 128-128h64V832h-64c-70.6 0-128-57.4-128-128z m320-832c192 0 448 96 448 256s-239.2 192-352 192c-96 0-152-32-208-64s-112-64-208-64v-256s192.6-64 320-64zM0 64c0-70.6 57.4-128 128-128h64V192H128c-70.6 0-128-57.4-128-128z"/></svg>