<?xml version="1.0" standalone="no"?><!DOCTYPE svg PUBLIC "-//W3C//DTD SVG 1.1//EN"
        "http://www.w3.org/Graphics/SVG/1.1/DTD/svg11.dtd"><svg viewBox="0 0 1024 1024" version="1.1" xmlns="http://www.w3.org/2000/svg" xmlns:xlink="http://www.w3.org/1999/xlink"><path transform="scale(1, -1) translate(0, -1024)" d="M807.6 827.2c24 10 51.4 4.4 69.8-13.8l128-128c12-12 18.8-28.2 18.8-45.2s-6.8-33.2-18.8-45.2l-128-128c-18.4-18.4-45.8-23.8-69.8-13.8S768 486.4 768 512.4V576h-64c-20.2 0-39.2-9.4-51.2-25.6L568 437.4 488 544l62.4 83.2C586.6 675.6 643.6 704 704 704h64V768c0 25.8 15.6 49.2 39.6 59.2zM328 330.6l80-106.6-62.4-83.2C309.4 92.4 252.4 64 192 64H64c-35.4 0-64 28.6-64 64s28.6 64 64 64h128c20.2 0 39.2 9.4 51.2 25.6l84.8 113z m549.2-376c-18.4-18.4-45.8-23.8-69.8-13.8S767.8-26 767.8 0v64H704c-60.4 0-117.4 28.4-153.6 76.8L243.2 550.4c-12 16.2-31 25.6-51.2 25.6H64c-35.4 0-64 28.6-64 64s28.6 64 64 64h128c60.4 0 117.4-28.4 153.6-76.8l307.2-409.6c12-16.2 31-25.6 51.2-25.6h64v64c0 25.8 15.6 49.2 39.6 59.2s51.4 4.4 69.8-13.8l128-128c12-12 18.8-28.2 18.8-45.2s-6.8-33.2-18.8-45.2l-128-128z"/></svg>