<?xml version="1.0" standalone="no"?><!DOCTYPE svg PUBLIC "-//W3C//DTD SVG 1.1//EN"
        "http://www.w3.org/Graphics/SVG/1.1/DTD/svg11.dtd"><svg viewBox="0 0 1024 1024" version="1.1" xmlns="http://www.w3.org/2000/svg" xmlns:xlink="http://www.w3.org/1999/xlink"><path transform="scale(1, -1) translate(0, -1024)" d="M260-64c81.2 0 160.8 22 230.4 63.8L704 128H256v-192h4z m444 704L490.4 768.2C420.8 810 341.2 832 260 832h-4v-192h448z m-512 0V832H160c-53 0-96-43-96-96v-96h16c-44.2 0-80-35.8-80-80v-352c0-44.2 35.8-80 80-80h-16v-96c0-53 43-96 96-96h32v192h16c52.4 0 98.8 25.2 128 64h576c138.6 0 270 45.4 358.4 163.2 12.8 17 12.8 40.6 0 57.6C1182 530.6 1050.6 576 912 576H336c-29.2 38.8-75.6 64-128 64h-16z m832-231.2v-49.8c0-39.2-31.8-71.2-71.2-71.2-5 0-8.8 4-8.8 8.8v174.6c0 5 4 8.8 8.8 8.8 39.2 0 71.2-31.8 71.2-71.2z"/></svg>