<?xml version="1.0" standalone="no"?><!DOCTYPE svg PUBLIC "-//W3C//DTD SVG 1.1//EN"
        "http://www.w3.org/Graphics/SVG/1.1/DTD/svg11.dtd"><svg viewBox="0 0 1024 1024" version="1.1" xmlns="http://www.w3.org/2000/svg" xmlns:xlink="http://www.w3.org/1999/xlink"><path transform="scale(1, -1) translate(0, -1024)" d="M608 800a96 96 0 1 1-192 0 96 96 0 1 1 192 0z m0-832a96 96 0 1 1-192 0 96 96 0 1 1 192 0zM96 288a96 96 0 1 1 0 192 96 96 0 1 1 0-192z m928 96a96 96 0 1 1-192 0 96 96 0 1 1 192 0zM285.8 22A96 96 0 1 1 150 157.8a96 96 0 1 1 135.8-135.8z m0 588.4A96 96 0 1 1 150 746a96 96 0 1 1 135.8-135.8zM738.2 22a96 96 0 1 1 135.8 135.8 96 96 0 1 1-135.8-135.8z"/></svg>