<?xml version="1.0" standalone="no"?><!DOCTYPE svg PUBLIC "-//W3C//DTD SVG 1.1//EN"
        "http://www.w3.org/Graphics/SVG/1.1/DTD/svg11.dtd"><svg viewBox="0 0 1024 1024" version="1.1" xmlns="http://www.w3.org/2000/svg" xmlns:xlink="http://www.w3.org/1999/xlink"><path transform="scale(1, -1) translate(0, -1024)" d="M192 832C121.4 832 64 774.6 64 704v-640c0-70.6 57.4-128 128-128h640c70.6 0 128 57.4 128 128V704c0 70.6-57.4 128-128 128H192z m128-384c35.4 0 64-28.6 64-64v-192c0-35.4-28.6-64-64-64s-64 28.6-64 64v192c0 35.4 28.6 64 64 64z m128 128c0 35.4 28.6 64 64 64s64-28.6 64-64v-384c0-35.4-28.6-64-64-64s-64 28.6-64 64V576z m256-256c35.4 0 64-28.6 64-64v-64c0-35.4-28.6-64-64-64s-64 28.6-64 64v64c0 35.4 28.6 64 64 64z"/></svg>