<?xml version="1.0" standalone="no"?><!DOCTYPE svg PUBLIC "-//W3C//DTD SVG 1.1//EN"
        "http://www.w3.org/Graphics/SVG/1.1/DTD/svg11.dtd"><svg viewBox="0 0 1024 1024" version="1.1" xmlns="http://www.w3.org/2000/svg" xmlns:xlink="http://www.w3.org/1999/xlink"><path transform="scale(1, -1) translate(0, -1024)" d="M416 896c-35.4 0-64-28.6-64-64s28.6-64 64-64h32v-68.8C248.6 668.4 96 496 96 288c0-229.8 186.2-416 416-416s416 186.2 416 416c0 83.6-24.6 161.4-67 226.4l48.2 48.2c25 25 25 65.6 0 90.6s-65.6 25-90.6 0L775.4 610c-56.2 46-124.4 77.6-199.4 89.2V768h32c35.4 0 64 28.6 64 64S643.4 896 608 896h-192z m144-384v-256c0-26.6-21.4-48-48-48s-48 21.4-48 48V512c0 26.6 21.4 48 48 48s48-21.4 48-48z"/></svg>