<?xml version="1.0" standalone="no"?><!DOCTYPE svg PUBLIC "-//W3C//DTD SVG 1.1//EN"
        "http://www.w3.org/Graphics/SVG/1.1/DTD/svg11.dtd"><svg viewBox="0 0 1024 1024" version="1.1" xmlns="http://www.w3.org/2000/svg" xmlns:xlink="http://www.w3.org/1999/xlink"><path transform="scale(1, -1) translate(0, -1024)" d="M32 640h832c17.68 0 32 14.32 32 32V800c0 17.68-14.32 32-32 32H32C14.32 832 0 817.68 0 800v-128c0-17.68 14.32-32 32-32z m960-160H160c-17.68 0-32-14.32-32-32v-128c0-17.68 14.32-32 32-32h832c17.68 0 32 14.32 32 32v128c0 17.68-14.32 32-32 32z m-128-352H32c-17.68 0-32-14.32-32-32v-128c0-17.68 14.32-32 32-32h832c17.68 0 32 14.32 32 32v128c0 17.68-14.32 32-32 32z"/></svg>