<?xml version="1.0" standalone="no"?><!DOCTYPE svg PUBLIC "-//W3C//DTD SVG 1.1//EN"
        "http://www.w3.org/Graphics/SVG/1.1/DTD/svg11.dtd"><svg viewBox="0 0 1024 1024" version="1.1" xmlns="http://www.w3.org/2000/svg" xmlns:xlink="http://www.w3.org/1999/xlink"><path transform="scale(1, -1) translate(0, -1024)" d="M64 736v-299c0-34 13.4-66.6 37.4-90.6l352-352c50-50 131-50 181 0l267 267c50 50 50 131 0 181l-352 352c-24 24-56.6 37.4-90.6 37.4H160C107 832 64 789 64 736z m224-64a64 64 0 1 0 0-128 64 64 0 1 0 0 128z"/></svg>