<?xml version="1.0" standalone="no"?><!DOCTYPE svg PUBLIC "-//W3C//DTD SVG 1.1//EN"
        "http://www.w3.org/Graphics/SVG/1.1/DTD/svg11.dtd"><svg viewBox="0 0 1024 1024" version="1.1" xmlns="http://www.w3.org/2000/svg" xmlns:xlink="http://www.w3.org/1999/xlink"><path transform="scale(1, -1) translate(0, -1024)" d="M690 817.8l255.6-258.6c104.8-106 104.8-276.4 0-382.4l-224-226.6c-18.6-18.8-49-19-67.8-0.4s-19 49-0.4 67.8l223.8 226.6c67.8 68.6 67.8 178.8 0 247.4L621.8 750.2c-18.6 18.8-18.4 49.2 0.4 67.8s49.2 18.4 67.8-0.4zM0 437V736c0 53 43 96 96 96h299c34 0 66.6-13.4 90.6-37.4l336-336c50-50 50-131 0-181L554.6 10.6c-50-50-131-50-181 0l-336 336C13.4 370.6 0 403 0 437zM288 608a64 64 0 1 1-128 0 64 64 0 1 1 128 0z"/></svg>