<?xml version="1.0" standalone="no"?><!DOCTYPE svg PUBLIC "-//W3C//DTD SVG 1.1//EN"
        "http://www.w3.org/Graphics/SVG/1.1/DTD/svg11.dtd"><svg viewBox="0 0 1024 1024" version="1.1" xmlns="http://www.w3.org/2000/svg" xmlns:xlink="http://www.w3.org/1999/xlink"><path transform="scale(1, -1) translate(0, -1024)" d="M192.02286 832C192.02286 867.4 220.62286 896 256.02286 896h512c35.4 0 64-28.6 64-64s-28.6-64-64-64h-59l22.8-296.4c73.4-39.8 131.4-106.4 159-189.4l2-6c6.6-19.6 3.2-41-8.8-57.6S852.62286 192 832.02286 192H192.02286c-20.6 0-39.8 9.8-52 26.6s-15.4 38.2-8.8 57.6l2 6c27.6 83 85.6 149.6 159 189.4L315.02286 768H256.02286c-35.4 0-64 28.6-64 64z m256-704h128v-192c0-35.4-28.6-64-64-64s-64 28.6-64 64v192z"/></svg>