<?xml version="1.0" standalone="no"?><!DOCTYPE svg PUBLIC "-//W3C//DTD SVG 1.1//EN"
        "http://www.w3.org/Graphics/SVG/1.1/DTD/svg11.dtd"><svg viewBox="0 0 1024 1024" version="1.1" xmlns="http://www.w3.org/2000/svg" xmlns:xlink="http://www.w3.org/1999/xlink"><path transform="scale(1, -1) translate(0, -1024)" d="M256 896C150 896 64 810 64 704v-512c0-96 70.4-175.4 162.2-189.8l-92-92c-14-14-4-38.2 15.8-38.2h79.4c17 0 33.2 6.8 45.2 18.8L384 0h256l109.2-109.2c12-12 28.2-18.8 45.2-18.8H874c20 0 30 24.2 15.8 38.2l-92 92c92 14.2 162.2 93.8 162.2 189.8V704c0 106-86 192-192 192H256zM192 704c0 35.4 28.6 64 64 64h512c35.4 0 64-28.6 64-64v-192c0-35.4-28.6-64-64-64H256c-35.4 0-64 28.6-64 64V704z m320-384a96 96 0 1 0 0-192 96 96 0 1 0 0 192z"/></svg>