<?xml version="1.0" standalone="no"?><!DOCTYPE svg PUBLIC "-//W3C//DTD SVG 1.1//EN"
        "http://www.w3.org/Graphics/SVG/1.1/DTD/svg11.dtd"><svg viewBox="0 0 1024 1024" version="1.1" xmlns="http://www.w3.org/2000/svg" xmlns:xlink="http://www.w3.org/1999/xlink"><path transform="scale(1, -1) translate(0, -1024)" d="M512 832c28.4 0 54.6-15 69-39.6l432-736c14.6-24.8 14.6-55.4 0.4-80.2S972.6-64 944-64H80c-28.6 0-55.2 15.4-69.4 40.2s-14 55.6 0.4 80.2l432 736C457.4 817 483.6 832 512 832z m0-256c-26.6 0-48-21.4-48-48v-224c0-26.6 21.4-48 48-48s48 21.4 48 48V528c0 26.6-21.4 48-48 48z m64-448a64 64 0 1 1-128 0 64 64 0 1 1 128 0z"/></svg>