<?xml version="1.0" standalone="no"?><!DOCTYPE svg PUBLIC "-//W3C//DTD SVG 1.1//EN"
        "http://www.w3.org/Graphics/SVG/1.1/DTD/svg11.dtd"><svg viewBox="0 0 1024 1024" version="1.1" xmlns="http://www.w3.org/2000/svg" xmlns:xlink="http://www.w3.org/1999/xlink"><path transform="scale(1, -1) translate(0, -1024)" d="M512 832a448 448 0 1 0 0-896 448 448 0 0 0 0 896z m0-192a58.432 58.432 0 0 1-58.24-63.744l23.36-256.384a35.072 35.072 0 0 1 69.76 0l23.296 256.384A58.432 58.432 0 0 1 512 640z m0-512a51.2 51.2 0 1 1 0 102.4 51.2 51.2 0 0 1 0-102.4z"/></svg>