<?xml version="1.0" standalone="no"?><!DOCTYPE svg PUBLIC "-//W3C//DTD SVG 1.1//EN"
        "http://www.w3.org/Graphics/SVG/1.1/DTD/svg11.dtd"><svg viewBox="0 0 1024 1024" version="1.1" xmlns="http://www.w3.org/2000/svg" xmlns:xlink="http://www.w3.org/1999/xlink"><path transform="scale(1, -1) translate(0, -1024)" d="M864 768H416c-17.6 0-32-14.4-32-32v-32h-128V736c0 88.4 71.6 160 160 160h448c88.4 0 160-71.6 160-160v-448c0-88.4-71.6-160-160-160h-32v128h32c17.6 0 32 14.4 32 32V736c0 17.6-14.4 32-32 32zM0 512c0 70.6 57.4 128 128 128h512c70.6 0 128-57.4 128-128v-512c0-70.6-57.4-128-128-128H128c-70.6 0-128 57.4-128 128V512z m128-64c0-35.4 28.6-64 64-64h384c35.4 0 64 28.6 64 64s-28.6 64-64 64H192c-35.4 0-64-28.6-64-64z"/></svg>