<?xml version="1.0" standalone="no"?><!DOCTYPE svg PUBLIC "-//W3C//DTD SVG 1.1//EN"
        "http://www.w3.org/Graphics/SVG/1.1/DTD/svg11.dtd"><svg viewBox="0 0 1024 1024" version="1.1" xmlns="http://www.w3.org/2000/svg" xmlns:xlink="http://www.w3.org/1999/xlink"><path transform="scale(1, -1) translate(0, -1024)" d="M813.2 594.8c25 25 25 65.6 0 90.6s-65.6 25-90.6 0L512 474.6 301.2 685.2c-25 25-65.6 25-90.6 0s-25-65.6 0-90.6L421.4 384 210.8 173.2c-25-25-25-65.6 0-90.6s65.6-25 90.6 0L512 293.4l210.8-210.6c25-25 65.6-25 90.6 0s25 65.6 0 90.6L602.6 384l210.6 210.8z"/></svg>