<?xml version="1.0" standalone="no"?><!DOCTYPE svg PUBLIC "-//W3C//DTD SVG 1.1//EN"
        "http://www.w3.org/Graphics/SVG/1.1/DTD/svg11.dtd"><svg viewBox="0 0 1024 1024" version="1.1" xmlns="http://www.w3.org/2000/svg" xmlns:xlink="http://www.w3.org/1999/xlink"><path transform="scale(1, -1) translate(0, -1024)" d="M512 768c106 0 192-86 192-192s-86-192-192-192-192-86-192-192 86-192 192-192c-212 0-384 172-384 384S300 768 512 768z m0-896a512 512 0 1 1 0 1024 512 512 0 1 1 0-1024z m64 704a64 64 0 1 1-128 0 64 64 0 1 1 128 0z m-128-384a64 64 0 1 0 128 0 64 64 0 1 0-128 0z"/></svg>