<?xml version="1.0" standalone="no"?><!DOCTYPE svg PUBLIC "-//W3C//DTD SVG 1.1//EN"
        "http://www.w3.org/Graphics/SVG/1.1/DTD/svg11.dtd"><svg viewBox="0 0 1024 1024" version="1.1" xmlns="http://www.w3.org/2000/svg" xmlns:xlink="http://www.w3.org/1999/xlink"><path transform="scale(1, -1) translate(0, -1024)" d="M869.76 755.2a76.8 76.8 0 0 0 76.8-76.8v-398.72a76.8 76.8 0 0 0-76.8-76.8H153.6a76.8 76.8 0 0 0-76.8 76.8V678.4a76.8 76.8 0 0 0 76.8 76.8h716.16m0 76.8H153.6A153.6 153.6 0 0 1 0 678.4v-398.72A153.6 153.6 0 0 1 153.6 128h716.16A153.6 153.6 0 0 1 1024 279.68V678.4A153.6 153.6 0 0 1 869.76 832zM812.8-64H209.92a38.4 38.4 0 1 0 0 76.8H812.8a38.4 38.4 0 1 0 0-76.8zM512-40.32a38.4 38.4 0 0 0-38.4 38.4V144a38.4 38.4 0 1 0 76.8 0v-144a38.4 38.4 0 0 0-38.4-40.32zM234.88 341.76a38.4 38.4 0 0 0-25.6 67.2L399.36 576a38.4 38.4 0 0 0 52.48 0l140.8-142.08L768 605.44a38.4 38.4 0 1 0 53.76-55.04L618.88 352.64a38.4 38.4 0 0 0-53.76 0l-142.08 140.8-162.56-142.08a38.4 38.4 0 0 0-25.6-9.6z"/></svg>