<?xml version="1.0" standalone="no"?>
<!DOCTYPE svg PUBLIC "-//W3C//DTD SVG 1.1//EN" "http://www.w3.org/Graphics/SVG/1.1/DTD/svg11.dtd" >
<svg xmlns="http://www.w3.org/2000/svg">
  <metadata>Created by iconfont</metadata>
  <defs>
  <font id="naokuofont" horiz-adv-x="1024">
    <font-face
      font-family="naokuofont"
      font-weight="400"
      font-stretch="normal"
      units-per-em="1024"
      ascent="896"
      descent="-128"
    />
      <missing-glyph />
      
      <glyph glyph-name="arrow-circle-right-up" unicode="&#59301;" d="M512 864C246.912 864 32 649.088 32 384s214.912-480 480-480 480 214.912 480 480S777.088 864 512 864z m0-54.848c234.432 0 425.152-190.72 425.152-425.152S746.432-41.152 512-41.152 86.848 149.568 86.848 384 277.568 809.152 512 809.152zM369.6 466.24h189.28l-203.392-203.392 38.784-38.784 203.392 203.392v-182.432h54.848v276.064H369.6z"  horiz-adv-x="1024" />
      
      <glyph glyph-name="anchor" unicode="&#59012;" d="M640.1 704a64 64 0 1 0-128 0 64 64 0 1 0 128 0z m42.2-160C734.1 578.4 768.1 637.2 768.1 704c0 106-86 192-192 192s-192-86-192-192c0-66.8 34-125.6 85.8-160H448.1c-35.4 0-64-28.6-64-64s28.6-64 64-64h64v-416h-96c-106 0-192 86-192 192v12.2l14-14c18.8-18.8 49.2-18.8 67.8 0s18.8 49.2 0 67.8L194.1 370c-18.8 18.8-49.2 18.8-67.8 0L14.1 258c-18.8-18.8-18.8-49.2 0-67.8s49.2-18.8 67.8 0l14 14v-12.2c0-176.8 143.2-320 320-320h320c176.8 0 320 143.2 320 320v12.2l14-14c18.8-18.8 49.2-18.8 67.8 0s18.8 49.2 0 67.8l-112 112c-18.8 18.8-49.2 18.8-67.8 0l-112-112c-18.8-18.8-18.8-49.2 0-67.8s49.2-18.8 67.8 0l14 14v-12.2c0-106-86-192-192-192H640.1V416h64c35.4 0 64 28.6 64 64s-28.6 64-64 64h-21.8z"  horiz-adv-x="1152" />
      
      <glyph glyph-name="arrows-to-dot" unicode="&#59013;" d="M511.90002 896c35.393087 0 63.987502-28.594415 63.987502-63.987502v-63.987503h63.987502c25.794962 0 49.190393-15.596954 59.18844-39.592267s4.399141-51.389963-13.797305-69.78637l-127.975005-127.975005c-24.995118-24.995118-65.58719-24.995118-90.582308 0l-127.975005 127.975005c-18.396407 18.396407-23.795352 45.791056-13.797305 69.78637S358.130053 768.024995 384.124976 768.024995h63.987502V832.012498c0 35.393087 28.594415 63.987502 63.987502 63.987502z m-173.166179-786.646358l127.975005 127.975005c24.995118 24.995118 65.58719 24.995118 90.582308 0l127.975005-127.975005c18.396407-18.396407 23.795352-45.791056 13.797305-69.78637S665.869947-0.024995 639.875024-0.024995h-63.987502v-63.987503c0-35.393087-28.594415-63.987502-63.987502-63.987502s-63.987502 28.594415-63.987503 63.987502V0.174966h-63.987502c-25.794962 0-49.190393 15.596954-59.18844 39.592267s-4.399141 51.389963 13.797305 69.78637zM63.987502 448.087483h63.987503v63.987502c0 25.794962 15.596954 49.190393 39.592267 59.18844s51.389963 4.399141 69.78637-13.797305l127.975005-127.975005c24.995118-24.995118 24.995118-65.58719 0-90.582308l-127.975005-127.975005c-18.396407-18.396407-45.791056-23.795352-69.78637-13.797305S127.975005 230.330014 127.975005 256.324937V320.112478H63.987502c-35.393087 0-63.987502 28.594415-63.987502 63.987502s28.594415 63.987502 63.987502 63.987503z m594.683851-109.178676c-24.995118 24.995118-24.995118 65.58719 0 90.582308l127.975005 127.975005c18.396407 18.396407 45.791056 23.795352 69.78637 13.797305s39.592267-33.193517 39.592267-59.18844v-63.987502h63.987503c35.393087 0 63.987502-28.594415 63.987502-63.987503s-28.594415-63.987502-63.987502-63.987502H895.825034v-63.987502c0-25.794962-15.596954-49.190393-39.592267-59.18844s-51.389963-4.399141-69.78637 13.797305l-127.975005 127.975005zM511.90002 448.087483a63.987502 63.987502 0 1 0 0-127.975005 63.987502 63.987502 0 1 0 0 127.975005z"  horiz-adv-x="1024" />
      
      <glyph glyph-name="battery-half" unicode="&#59014;" d="M928 576c17.6 0 32-14.4 32-32v-320c0-17.6-14.4-32-32-32H160c-17.6 0-32 14.4-32 32V544c0 17.6 14.4 32 32 32h768zM160 704c-88.4 0-160-71.6-160-160v-320c0-88.4 71.6-160 160-160h768c88.4 0 160 71.6 160 160v32c35.4 0 64 28.6 64 64v128c0 35.4-28.6 64-64 64v32c0 88.4-71.6 160-160 160H160z m416-192H192v-256h384V512z"  horiz-adv-x="1152" />
      
      <glyph glyph-name="caret-down" unicode="&#59015;" d="M466.77789 146.8c25-25 65.6-25 90.6 0l256 256c18.4 18.4 23.8 45.8 13.8 69.8S793.97789 512.2 767.97789 512.2L255.97789 512c-25.8 0-49.2-15.6-59.2-39.6s-4.4-51.4 13.8-69.8l256-256z"  horiz-adv-x="1024" />
      
      <glyph glyph-name="caret-up" unicode="&#59016;" d="M557.22211 621.2c-25 25-65.6 25-90.6 0l-256-256c-18.4-18.4-23.8-45.8-13.8-69.8S230.02211 255.8 256.02211 255.8h512c25.8 0 49.2 15.6 59.2 39.6s4.4 51.4-13.8 69.8l-256 256z"  horiz-adv-x="1024" />
      
      <glyph glyph-name="compact-disc" unicode="&#59017;" d="M0 384a512 512 0 1 0 1024 0 512 512 0 1 0-1024 0z m512-64a64 64 0 1 0 0 128 64 64 0 1 0 0-128z m-192 64a192 192 0 1 1 384 0 192 192 0 1 1-384 0z m-128 32c0 70 35 142.2 90.4 197.6S410 704 480 704c17.6 0 32 14.4 32 32s-14.4 32-32 32c-90.8 0-178.4-44.6-243-109S128 506.8 128 416c0-17.6 14.4-32 32-32s32 14.4 32 32z"  horiz-adv-x="1024" />
      
      <glyph glyph-name="envelope-open-text" unicode="&#59018;" d="M430.8 704H192v-354.8L0.4 491c3.2 36.2 21.8 69.8 51.4 91.6L96 615.4V704c0 53 43 96 96 96h153.2l99.8 73.8C464.4 888.2 487.8 896 512 896s47.6-7.8 67-22l99.8-74H832c53 0 96-43 96-96v-88.6l44.2-32.8c29.6-21.8 48.2-55.4 51.4-91.6L832 349.2V704H430.8zM0 0V411.8l435.2-322.4c22.2-16.4 49.2-25.4 76.8-25.4s54.6 8.8 76.8 25.4L1024 411.8V0c0-70.6-57.4-128-128-128H128c-70.6 0-128 57.4-128 128z m352 576h320c17.6 0 32-14.4 32-32s-14.4-32-32-32H352c-17.6 0-32 14.4-32 32s14.4 32 32 32z m0-128h320c17.6 0 32-14.4 32-32s-14.4-32-32-32H352c-17.6 0-32 14.4-32 32s14.4 32 32 32z"  horiz-adv-x="1024" />
      
      <glyph glyph-name="file-audio" unicode="&#59019;" d="M256 896C185.4 896 128 838.6 128 768v-768c0-70.6 57.4-128 128-128h512c70.6 0 128 57.4 128 128V576H640c-35.4 0-64 28.6-64 64V896H256z m384 0v-256h256L640 896z m4-452.6c74.2-44.8 124-126.2 124-219.4s-49.8-174.6-124-219.4c-15.2-9.2-34.8-4.2-44 10.8s-4.2 34.8 10.8 44c56 33.6 93.2 94.8 93.2 164.6s-37.2 131-93 164.6c-15.2 9.2-20 28.8-10.8 44s28.8 20 44 10.8z m-183.8-61.8c12-5 19.8-16.6 19.8-29.6v-256c0-13-7.8-24.6-19.8-29.6s-25.8-2.2-34.8 7L354.8 144H288c-17.6 0-32 14.4-32 32v96c0 17.6 14.4 32 32 32h66.8l70.6 70.6c9.2 9.2 23 11.8 34.8 7z m102-69.8c13.2 11.8 33.4 10.6 45.2-2.6 20.2-22.4 32.6-52.4 32.6-85.2s-12.4-62.8-32.6-85.4c-11.8-13.2-32-14.2-45.2-2.6s-14.2 32-2.6 45.2c10.2 11.4 16.2 26.2 16.2 42.6s-6.2 31.4-16.2 42.6c-11.8 13.2-10.6 33.4 2.6 45.2z"  horiz-adv-x="1024" />
      
      <glyph glyph-name="file-pdf" unicode="&#59020;" d="M0 768C0 838.6 57.4 896 128 896h320v-256c0-35.4 28.6-64 64-64h256v-288H352c-70.6 0-128-57.4-128-128v-288H128c-70.6 0-128 57.4-128 128V768z m768-128H512V896l256-256zM352 192h64c61.8 0 112-50.2 112-112s-50.2-112-112-112h-32v-64c0-17.6-14.4-32-32-32s-32 14.4-32 32V160c0 17.6 14.4 32 32 32z m64-160c26.6 0 48 21.4 48 48s-21.4 48-48 48h-32v-96h32z m192 160h64c53 0 96-43 96-96v-128c0-53-43-96-96-96h-64c-17.6 0-32 14.4-32 32V160c0 17.6 14.4 32 32 32z m64-256c17.6 0 32 14.4 32 32v128c0 17.6-14.4 32-32 32h-32v-192h32z m160 224c0 17.6 14.4 32 32 32h96c17.6 0 32-14.4 32-32s-14.4-32-32-32h-64v-64h64c17.6 0 32-14.4 32-32s-14.4-32-32-32h-64v-96c0-17.6-14.4-32-32-32s-32 14.4-32 32V160z"  horiz-adv-x="1024" />
      
      <glyph glyph-name="file-csv" unicode="&#59021;" d="M0 768C0 838.6 57.4 896 128 896h320v-256c0-35.4 28.6-64 64-64h256v-288H352c-70.6 0-128-57.4-128-128v-288H128c-70.6 0-128 57.4-128 128V768z m768-128H512V896l256-256zM400 192h32c44.2 0 80-35.8 80-80v-16c0-17.6-14.4-32-32-32s-32 14.4-32 32v16c0 8.8-7.2 16-16 16h-32c-8.8 0-16-7.2-16-16v-160c0-8.8 7.2-16 16-16h32c8.8 0 16 7.2 16 16v16c0 17.6 14.4 32 32 32s32-14.4 32-32v-16c0-44.2-35.8-80-80-80h-32c-44.2 0-80 35.8-80 80v160c0 44.2 35.8 80 80 80z m266.2 0H736c17.6 0 32-14.4 32-32s-14.4-32-32-32h-69.8c-14.4 0-26.2-11.8-26.2-26.2 0-10.4 6-19.8 15.6-24l74.8-33.2c32.6-14.4 53.6-46.8 53.6-82.4 0-49.8-40.4-90.2-90.2-90.2H608c-17.6 0-32 14.4-32 32s14.4 32 32 32h85.8c14.4 0 26.2 11.8 26.2 26.2 0 10.4-6 19.8-15.6 24l-74.8 33.2c-32.6 14.4-53.6 46.8-53.6 82.4 0 49.8 40.4 90.2 90.2 90.2z m197.8 0c17.6 0 32-14.4 32-32v-63.2c0-46 11-91.2 32-132 21 40.6 32 85.8 32 132V160c0 17.6 14.4 32 32 32s32-14.4 32-32v-63.2c0-69.4-20.6-137.4-59.2-195.2l-10.2-15.4c-6-9-16-14.2-26.6-14.2s-20.6 5.4-26.6 14.2l-10.2 15.4c-38.6 57.8-59.2 125.8-59.2 195.2V160c0 17.6 14.4 32 32 32z"  horiz-adv-x="1024" />
      
      <glyph glyph-name="file-image" unicode="&#59022;" d="M256 896C185.4 896 128 838.6 128 768v-768c0-70.6 57.4-128 128-128h512c70.6 0 128 57.4 128 128V576H640c-35.4 0-64 28.6-64 64V896H256z m384 0v-256h256L640 896zM256 384a64 64 0 1 0 128 0 64 64 0 1 0-128 0z m304-64c10.6 0 20.4-5.2 26.4-13.8l176-256c6.8-9.8 7.4-22.6 2-33S748 0 736 0H288c-11.6 0-22.2 6.2-27.8 16.2s-5.6 22.4 0.4 32.2l96 160c5.8 9.6 16.2 15.6 27.4 15.6s21.6-5.8 27.4-15.6l25.6-42.8 96.6 140.4c6 8.6 15.8 13.8 26.4 13.8z"  horiz-adv-x="1024" />
      
      <glyph glyph-name="file-video" unicode="&#59023;" d="M256 896C185.4 896 128 838.6 128 768v-768c0-70.6 57.4-128 128-128h512c70.6 0 128 57.4 128 128V576H640c-35.4 0-64 28.6-64 64V896H256z m384 0v-256h256L640 896zM256 320c0 35.4 28.6 64 64 64h192c35.4 0 64-28.6 64-64v-192c0-35.4-28.6-64-64-64H320c-35.4 0-64 28.6-64 64v192z m473.8-219.8L640 160v128l89.8 59.8c4 2.6 8.8 4.2 13.6 4.2 13.6 0 24.6-11 24.6-24.6v-206.8c0-13.6-11-24.6-24.6-24.6-4.8 0-9.6 1.4-13.6 4.2z"  horiz-adv-x="1024" />
      
      <glyph glyph-name="file-contract" unicode="&#59024;" d="M256 896C185.4 896 128 838.6 128 768v-768c0-70.6 57.4-128 128-128h512c70.6 0 128 57.4 128 128V576H640c-35.4 0-64 28.6-64 64V896H256z m384 0v-256h256L640 896zM288 768h128c17.6 0 32-14.4 32-32s-14.4-32-32-32H288c-17.6 0-32 14.4-32 32s14.4 32 32 32z m0-128h128c17.6 0 32-14.4 32-32s-14.4-32-32-32H288c-17.6 0-32 14.4-32 32s14.4 32 32 32z m108.4-507.6c-12.2-40.6-49.6-68.4-92-68.4H288c-17.6 0-32 14.4-32 32s14.4 32 32 32h16.4c14.2 0 26.6 9.2 30.6 22.8l29.8 99c6.8 22.6 27.6 38.2 51.2 38.2s44.4-15.4 51.2-38.2l23.2-77.2c14.8 12.4 33.6 19.4 53.6 19.4 31.8 0 60.8-18 75-46.4l8.8-17.6H736c17.6 0 32-14.4 32-32s-14.4-32-32-32h-128c-12.2 0-23.2 6.8-28.6 17.6l-17.6 35.4c-3.4 6.8-10.2 11-17.6 11s-14.4-4.2-17.6-11l-17.6-35.4c-5.8-11.8-18.4-18.8-31.4-17.6s-24.2 10.2-27.8 22.6L416 198l-19.6-65.6z"  horiz-adv-x="1024" />
      
      <glyph glyph-name="file-arrow-down" unicode="&#59025;" d="M256 896C185.4 896 128 838.6 128 768v-768c0-70.6 57.4-128 128-128h512c70.6 0 128 57.4 128 128V576H640c-35.4 0-64 28.6-64 64V896H256z m384 0v-256h256L640 896z m-80-464v-204.2l62 62c18.8 18.8 49.2 18.8 67.8 0s18.8-49.2 0-67.8l-144-144c-18.8-18.8-49.2-18.8-67.8 0l-144 144c-18.8 18.8-18.8 49.2 0 67.8s49.2 18.8 67.8 0l62-62V432c0 26.6 21.4 48 48 48s48-21.4 48-48z"  horiz-adv-x="1024" />
      
      <glyph glyph-name="file-zipper" unicode="&#59026;" d="M256 896C185.4 896 128 838.6 128 768v-768c0-70.6 57.4-128 128-128h512c70.6 0 128 57.4 128 128V576H640c-35.4 0-64 28.6-64 64V896H256z m384 0v-256h256L640 896zM320 800c0 17.6 14.4 32 32 32h64c17.6 0 32-14.4 32-32s-14.4-32-32-32h-64c-17.6 0-32 14.4-32 32z m0-128c0 17.6 14.4 32 32 32h64c17.6 0 32-14.4 32-32s-14.4-32-32-32h-64c-17.6 0-32 14.4-32 32z m0-128c0 17.6 14.4 32 32 32h64c17.6 0 32-14.4 32-32s-14.4-32-32-32h-64c-17.6 0-32 14.4-32 32z m-12.6-143.6c7.4 28 32.8 47.6 61.8 47.6h29.6c29 0 54.4-19.4 61.8-47.6l47-176.4c2.8-10.8 4.2-21.8 4.2-32.8 0-70.4-57.6-127.4-128-127.4s-128 57-128 127.4c0 11 1.4 22.2 4.2 32.8l47 176.4zM352 224c-17.6 0-32-14.4-32-32s14.4-32 32-32h64c17.6 0 32 14.4 32 32s-14.4 32-32 32h-64z"  horiz-adv-x="1024" />
      
      <glyph glyph-name="file-word1" unicode="&#59027;" d="M256 896C185.4 896 128 838.6 128 768v-768c0-70.6 57.4-128 128-128h512c70.6 0 128 57.4 128 128V576H640c-35.4 0-64 28.6-64 64V896H256z m384 0v-256h256L640 896zM350 381.8l53.6-178.4 63.2 180.6c6.8 19.2 25 32.2 45.4 32.2s38.6-12.8 45.4-32.2l63.2-180.6 53.2 178.4c7.6 25.4 34.4 39.8 59.8 32.2s39.8-34.4 32.2-59.8l-96-320c-6-20-24-33.8-44.8-34.2s-39.6 12.4-46.4 32.2L512 222.8l-66.6-190.6c-6.8-19.6-25.6-32.6-46.4-32.2s-39 14.2-44.8 34.2l-96 320c-7.6 25.4 6.8 52.2 32.2 59.8s52.2-6.8 59.8-32.2z"  horiz-adv-x="1024" />
      
      <glyph glyph-name="file-powerpoint" unicode="&#59028;" d="M256 896C185.4 896 128 838.6 128 768v-768c0-70.6 57.4-128 128-128h512c70.6 0 128 57.4 128 128V576H640c-35.4 0-64 28.6-64 64V896H256z m384 0v-256h256L640 896zM400 416h136c84 0 152-68 152-152s-68-152-152-152h-88v-64c0-26.6-21.4-48-48-48s-48 21.4-48 48V368c0 26.6 21.4 48 48 48z m136-208c31 0 56 25 56 56s-25 56-56 56h-88v-112h88z"  horiz-adv-x="1024" />
      
      <glyph glyph-name="fish-fins" unicode="&#59029;" d="M550.4935 819.2c-21.2 16-50 17-72.6 3S444.0935 781.4 449.2935 755.4l19.4-97.2c-38.8-18-73.8-39.8-104.8-63-30.6-23-58-47.8-81.4-72.6l-186.2 108.6c-25 14.6-56.8 10.6-77.4-9.8s-24.8-52-10.4-77.2L100.0935 384 8.4935 223.8c-14.4-25.2-10-56.8 10.6-77.2s52.2-24.4 77.4-9.8l186.2 108.6c23.6-24.6 50.8-49.6 81.4-72.6 31-23.2 66-45 104.8-63l-19.4-97.2c-5.2-26 6.2-52.6 28.6-66.6s51.2-13 72.6 3l155.2 116.4c109.8 8 203 54 274.4 107.6 78.4 58.8 134.4 129.4 163.2 179 11.6 19.8 11.6 44.4 0 64.2-28.8 49.6-85 120.2-163.2 179-71.6 53.6-164.6 99.6-274.4 107.6l-155.4 116.4zM768.0935 384a64 64 0 1 0 128 0 64 64 0 1 0-128 0z"  horiz-adv-x="1152" />
      
      <glyph glyph-name="gamepad" unicode="&#59030;" d="M384 768C172 768 0 596 0 384s172-384 384-384h512c212 0 384 172 384 384S1108 768 896 768H384z m608-208a80 80 0 1 0 0-160 80 80 0 1 0 0 160zM784 288a80 80 0 1 0 160 0 80 80 0 1 0-160 0zM336 496c0 26.6 21.4 48 48 48s48-21.4 48-48v-64h64c26.6 0 48-21.4 48-48s-21.4-48-48-48h-64v-64c0-26.6-21.4-48-48-48s-48 21.4-48 48v64h-64c-26.6 0-48 21.4-48 48s21.4 48 48 48h64v64z"  horiz-adv-x="1280" />
      
      <glyph glyph-name="jet-fighter" unicode="&#59031;" d="M320 848c0 26.6 21.4 48 48 48h224c26.6 0 48-21.4 48-48s-21.4-48-48-48h-32l208-288h232.8c15.4 0 30.6-2.8 45-8.2L1250 427.2c18-6.8 30-24 30-43.2s-12-36.4-30-43.2l-204.2-76.6c-14.4-5.4-29.6-8.2-45-8.2H768L560-32h32c26.6 0 48-21.4 48-48s-21.4-48-48-48H368c-26.6 0-48 21.4-48 48s21.4 48 48 48h16V256h-64l-109.2-109.2c-12-12-28.2-18.8-45.2-18.8H128c-35.4 0-64 28.6-64 64v128c-35.4 0-64 28.6-64 64s28.6 64 64 64v128c0 35.4 28.6 64 64 64h37.4c17 0 33.2-6.8 45.2-18.8L320 512h64V800h-16c-26.6 0-48 21.4-48 48zM160 416c-17.6 0-32-14.4-32-32s14.4-32 32-32h128c17.6 0 32 14.4 32 32s-14.4 32-32 32H160z"  horiz-adv-x="1280" />
      
      <glyph glyph-name="shuttle-space" unicode="&#59032;" d="M260-64c81.2 0 160.8 22 230.4 63.8L704 128H256v-192h4z m444 704L490.4 768.2C420.8 810 341.2 832 260 832h-4v-192h448z m-512 0V832H160c-53 0-96-43-96-96v-96h16c-44.2 0-80-35.8-80-80v-352c0-44.2 35.8-80 80-80h-16v-96c0-53 43-96 96-96h32v192h16c52.4 0 98.8 25.2 128 64h576c138.6 0 270 45.4 358.4 163.2 12.8 17 12.8 40.6 0 57.6C1182 530.6 1050.6 576 912 576H336c-29.2 38.8-75.6 64-128 64h-16z m832-231.2v-49.8c0-39.2-31.8-71.2-71.2-71.2-5 0-8.8 4-8.8 8.8v174.6c0 5 4 8.8 8.8 8.8 39.2 0 71.2-31.8 71.2-71.2z"  horiz-adv-x="1280" />
      
      <glyph glyph-name="yin-yang" unicode="&#59035;" d="M512 768c106 0 192-86 192-192s-86-192-192-192-192-86-192-192 86-192 192-192c-212 0-384 172-384 384S300 768 512 768z m0-896a512 512 0 1 1 0 1024 512 512 0 1 1 0-1024z m64 704a64 64 0 1 1-128 0 64 64 0 1 1 128 0z m-128-384a64 64 0 1 0 128 0 64 64 0 1 0-128 0z"  horiz-adv-x="1024" />
      
      <glyph glyph-name="angle-down" unicode="&#58943;" d="M466.8 210.8c25-25 65.6-25 90.6 0l320 320c25 25 25 65.6 0 90.6s-65.6 25-90.6 0L512 346.6 237.2 621.2c-25 25-65.6 25-90.6 0s-25-65.6 0-90.6l320-320z"  horiz-adv-x="1024" />
      
      <glyph glyph-name="chart-line" unicode="&#58944;" d="M128 768c0 35.4-28.6 64-64 64S0 803.4 0 768v-672c0-88.4 71.6-160 160-160h800c35.4 0 64 28.6 64 64s-28.6 64-64 64H160c-17.6 0-32 14.4-32 32V768z m813.2-173.2c25 25 25 65.6 0 90.6s-65.6 25-90.6 0L640 474.6l-114.8 114.8c-25 25-65.6 25-90.6 0l-224-224c-25-25-25-65.6 0-90.6s65.6-25 90.6 0l178.8 178.6 114.8-114.8c25-25 65.6-25 90.6 0l256 256z"  horiz-adv-x="1024" />
      
      <glyph glyph-name="pencil" unicode="&#58945;" d="M820.569866 433.945123l22.597793 22.597793-67.793379 67.793379-124.187872 124.187873-67.79338 67.793379-22.597793-22.597793-45.195587-45.195586L117.238551 250.16307c-20.797969-20.797969-35.996485-46.59545-44.395665-74.792696L2.0498-65.406113c-4.999512-16.79836-0.399961-34.996582 12.198809-47.395371s30.597012-16.99834 47.395371-12.198809l240.576506 70.793087c28.197246 8.39918 53.994727 23.597696 74.792696 44.395664l398.361098 398.361098 45.195586 45.395567zM320.018748 97.17801l-18.198223-45.395567c-7.999219-6.199395-16.99834-10.798945-26.597402-13.798652l-156.384728-45.995509 45.995508 156.184748c2.799727 9.799043 7.599258 18.798164 13.798652 26.597403l45.395567 18.198222v-63.99375c0-17.598281 14.398594-31.996875 31.996876-31.996876h63.99375zM725.379162 858.503662l-28.797188-28.997168-45.195586-45.195587-22.797774-22.597793 67.79338-67.79338 124.187872-124.187872 67.79338-67.793379 22.597793 22.597793 45.195586 45.195586 28.997169 28.997168c49.995118 49.995118 49.995118 130.987208 0 180.982326l-78.592325 78.792306c-49.995118 49.995118-130.987208 49.995118-180.982326 0z m-94.790743-335.967191l-287.971878-287.971878c-12.398789-12.398789-32.796797-12.398789-45.195586 0s-12.398789 32.796797 0 45.195587l287.971878 287.971877c12.398789 12.398789 32.796797 12.398789 45.195586 0s12.398789-32.796797 0-45.195586z"  horiz-adv-x="1024" />
      
      <glyph glyph-name="thumbtack" unicode="&#58946;" d="M192.02286 832C192.02286 867.4 220.62286 896 256.02286 896h512c35.4 0 64-28.6 64-64s-28.6-64-64-64h-59l22.8-296.4c73.4-39.8 131.4-106.4 159-189.4l2-6c6.6-19.6 3.2-41-8.8-57.6S852.62286 192 832.02286 192H192.02286c-20.6 0-39.8 9.8-52 26.6s-15.4 38.2-8.8 57.6l2 6c27.6 83 85.6 149.6 159 189.4L315.02286 768H256.02286c-35.4 0-64 28.6-64 64z m256-704h128v-192c0-35.4-28.6-64-64-64s-64 28.6-64 64v192z"  horiz-adv-x="1024" />
      
      <glyph glyph-name="location-dot" unicode="&#58947;" d="M559.4-102.4C662 26 896 337.2 896 512 896 724 724 896 512 896S128 724 128 512c0-174.8 234-486 336.6-614.4 24.6-30.6 70.2-30.6 94.8 0zM512 640a128 128 0 1 0 0-256 128 128 0 1 0 0 256z"  horiz-adv-x="1024" />
      
      <glyph glyph-name="fw-fire" unicode="&#58948;" d="M382.584282 885.150015c15.59923 14.59928 39.798037 14.39929 55.397267-0.19999 55.197277-51.797445 106.994721-107.594692 155.392334-167.991712 21.998915 28.798579 46.997681 60.19703 73.996349 85.795767 15.799221 14.79927 40.198017 14.79927 55.997237-0.19999 69.196586-65.996744 127.793695-153.192442 168.991663-235.988357 40.597997-81.595974 67.596665-164.99186 67.596665-223.788959C959.955797 87.589364 760.365644-128 511.977899-128 260.790291-128 64 87.789354 64 342.976764c0 76.796211 35.598244 170.591584 90.795521 263.387005C210.592768 700.559122 289.38888 798.754278 382.584282 885.150015zM515.377731 63.990528c50.597504 0 95.395294 13.999309 137.593212 41.997928 84.195846 58.797099 106.794731 176.391298 56.197227 268.786739-8.999556 17.999112-31.998421 19.199053-44.99778 3.999803l-50.397514-58.597109c-13.199349-15.19925-36.998175-14.79927-49.397562 0.99995-32.998372 41.997928-91.995461 116.994228-125.593804 159.592127-12.599378 15.999211-36.598194 16.199201-49.397563 0.19999-67.596665-84.995807-101.594988-138.593162-101.594988-198.790193 0.19999-136.993241 101.394998-218.189235 227.588772-218.189235z"  horiz-adv-x="1024" />
      
      <glyph glyph-name="calendar-days" unicode="&#58949;" d="M368 848c0 26.6-21.4 48-48 48s-48-21.4-48-48v-80H192C121.4 768 64 710.6 64 640v-640c0-70.6 57.4-128 128-128h640c70.6 0 128 57.4 128 128V640c0 70.6-57.4 128-128 128h-80V848c0 26.6-21.4 48-48 48s-48-21.4-48-48v-80H368V848zM160 512h160v-112H160v112z m0-208h160v-128H160v128z m256 0h192v-128h-192v128z m288 0h160v-128h-160v128z m160 96h-160v112h160v-112z m0-320v-80c0-17.6-14.4-32-32-32h-128v112h160z m-256 0v-112h-192v112h192z m-288 0v-112H192c-17.6 0-32 14.4-32 32v80h160z m288 320h-192v112h192v-112z"  horiz-adv-x="1024" />
      
      <glyph glyph-name="angle-right" unicode="&#58950;" d="M749.2 429.2c25-25 25-65.6 0-90.6l-320-320c-25-25-65.6-25-90.6 0s-25 65.6 0 90.6L613.4 384 338.8 658.8c-25 25-25 65.6 0 90.6s65.6 25 90.6 0l320-320z"  horiz-adv-x="1024" />
      
      <glyph glyph-name="dice-d20" unicode="&#58951;" d="M97.480961 644.449131l106.379223-63.787541c15.596954-9.398164 35.593048-3.999219 44.391329 11.797695l154.969733 279.345441c5.998828 10.797891-1.799649 24.195274-14.197227 24.195274-3.199375 0-6.39875-0.999805-9.198204-2.799453l-283.944542-194.761961c-19.196251-13.197422-18.396407-41.791838 1.599688-53.789494zM32.093732 552.667057v-247.151728c0-15.996876 20.795938-21.995704 29.394259-8.798282l119.976567 183.96407c9.998047 15.197032 5.198985 35.593048-10.397969 44.991213L80.48428 580.061707c-21.19586 12.7975-48.390549-2.599492-48.390548-27.39465zM620.778754 871.804726L775.948448 592.659246c8.798282-15.796915 28.994337-21.19586 44.391329-11.797696l106.379223 63.787542c19.996095 11.997657 20.795938 40.592072 1.599688 53.789494L644.174185 893.200547c-2.799453 1.799649-5.998828 2.799453-9.198204 2.799453-12.397579 0-20.196055-13.397383-14.197227-24.195274zM991.906268 552.667057c0 24.795157-27.194689 40.19215-48.390548 27.39465l-90.582309-54.389377c-15.596954-9.398164-20.196055-29.794181-10.397969-44.991213l119.976567-183.96407c8.598321-13.397383 29.394259-7.198594 29.394259 8.798282V552.667057z m-98.580746-491.903925l-321.137278-37.792618c-16.196837-1.799649-28.194493-15.596954-28.194493-31.793791v-105.579379c0-7.398555 5.998828-13.597344 13.597344-13.597344 1.599688 0 3.199375 0.199961 4.799063 0.799844l345.332552 127.975005c12.197618 4.399141 20.196055 15.996876 20.196056 28.994337 0 18.596368-16.196837 32.993556-34.593244 30.793985zM466.408905-127.800039c7.398555 0 13.597344 5.998828 13.597344 13.597344v105.179457c0 16.196837-12.197618 29.794181-28.194493 31.793791l-321.137278 37.992579c-18.396407 2.19957-34.593244-12.197618-34.593244-30.793985 0-12.997461 7.998438-24.595196 20.196056-28.994337l345.332552-127.975005c1.599688-0.599883 3.199375-0.799844 4.799063-0.799844zM83.483695 130.349541l341.733255-40.392111c15.596954-1.799649 26.794767 14.997071 18.99629 28.594415l-171.36653 299.941418c-11.797696 20.795938-41.391916 21.595782-54.589338 1.599688L60.488186 179.739895c-12.997461-19.796134-0.599883-46.5909 22.995509-49.390354z m879.028314 49.590314l-156.769381 239.953135c-12.997461 19.996095-42.791642 19.196251-54.589338-1.599688l-170.766647-299.141574c-7.798477-13.597344 3.199375-30.394064 18.99629-28.594415l340.133568 39.992189c23.595392 2.799453 35.99297 29.394259 22.995508 49.190393z m-433.71529-21.995703l156.769381 274.346416c12.197618 21.395821-3.199375 47.790666-27.794571 47.790666H366.228471c-24.595196 0-39.992189-26.594806-27.794571-47.790666l156.769381-274.346416c7.398555-12.7975 25.994923-12.7975 33.393477 0z m-179.96485 386.124585h326.336262c24.395235 0 39.792228 26.194884 27.994533 47.590705l-159.968757 287.94376c-5.598906 10.198008-16.396798 16.396798-27.994532 16.396798h-6.39875c-11.597735 0-22.395626-6.39875-27.994532-16.396798l-159.968757-287.94376c-11.797696-21.395821 3.599297-47.590705 27.994533-47.590705z"  horiz-adv-x="1024" />
      
      <glyph glyph-name="instagram" unicode="&#58952;" d="M512.1 614c-127.2 0-229.8-102.6-229.8-229.8s102.6-229.8 229.8-229.8S741.9 257 741.9 384.2 639.3 614 512.1 614z m0-379.2c-82.2 0-149.4 67-149.4 149.4s67 149.4 149.4 149.4 149.4-67 149.4-149.4-67.2-149.4-149.4-149.4z m292.8 388.6c0-29.8-24-53.6-53.6-53.6-29.8 0-53.6 24-53.6 53.6s24 53.6 53.6 53.6 53.6-24 53.6-53.6z m152.2-54.4c-3.4 71.8-19.8 135.4-72.4 187.8-52.4 52.4-116 68.8-187.8 72.4-74 4.2-295.8 4.2-369.8 0-71.6-3.4-135.2-19.8-187.8-72.2s-68.8-116-72.4-187.8c-4.2-74-4.2-295.8 0-369.8 3.4-71.8 19.8-135.4 72.4-187.8s116-68.8 187.8-72.4c74-4.2 295.8-4.2 369.8 0 71.8 3.4 135.4 19.8 187.8 72.4 52.4 52.4 68.8 116 72.4 187.8 4.2 74 4.2 295.6 0 369.6zM861.5 120c-15.6-39.2-45.8-69.4-85.2-85.2-59-23.4-199-18-264.2-18s-205.4-5.2-264.2 18c-39.2 15.6-69.4 45.8-85.2 85.2-23.4 59-18 199-18 264.2s-5.2 205.4 18 264.2c15.6 39.2 45.8 69.4 85.2 85.2 59 23.4 199 18 264.2 18s205.4 5.2 264.2-18c39.2-15.6 69.4-45.8 85.2-85.2 23.4-59 18-199 18-264.2s5.4-205.4-18-264.2z"  horiz-adv-x="1024" />
      
      <glyph glyph-name="xmark" unicode="&#58953;" d="M813.2 594.8c25 25 25 65.6 0 90.6s-65.6 25-90.6 0L512 474.6 301.2 685.2c-25 25-65.6 25-90.6 0s-25-65.6 0-90.6L421.4 384 210.8 173.2c-25-25-25-65.6 0-90.6s65.6-25 90.6 0L512 293.4l210.8-210.6c25-25 65.6-25 90.6 0s25 65.6 0 90.6L602.6 384l210.6 210.8z"  horiz-adv-x="1024" />
      
      <glyph glyph-name="spinner" unicode="&#58954;" d="M608 800a96 96 0 1 1-192 0 96 96 0 1 1 192 0z m0-832a96 96 0 1 1-192 0 96 96 0 1 1 192 0zM96 288a96 96 0 1 1 0 192 96 96 0 1 1 0-192z m928 96a96 96 0 1 1-192 0 96 96 0 1 1 192 0zM285.8 22A96 96 0 1 1 150 157.8a96 96 0 1 1 135.8-135.8z m0 588.4A96 96 0 1 1 150 746a96 96 0 1 1 135.8-135.8zM738.2 22a96 96 0 1 1 135.8 135.8 96 96 0 1 1-135.8-135.8z"  horiz-adv-x="1024" />
      
      <glyph glyph-name="bullhorn" unicode="&#58955;" d="M959.89563 831.89563c0 25.797195-15.598304 49.194651-39.595695 59.193564S868.905523 895.488716 850.507524 877.290694L763.317004 789.900196c-95.989563-95.989563-226.175408-149.983692-361.960644-149.983692H127.986084c-70.592324 0-127.986084-57.39376-127.986084-127.986084v-191.979126c0-70.592324 57.39376-127.986084 127.986084-127.986084v-255.972168c0-35.396151 28.596891-63.993042 63.993042-63.993042h127.986084c35.396151 0 63.993042 28.596891 63.993042 63.993042V191.96521h17.398108c135.785236 0 265.971081-53.994129 361.960644-149.983692l87.19052-87.19052c18.398-18.398 45.795021-23.797412 69.792411-13.7985s39.595695 33.196391 39.595695 59.193564V295.15399c37.195956 17.598087 63.993042 64.992933 63.993042 120.786867s-26.797086 103.18878-63.993042 120.786867V831.89563z m-127.986084-153.383322v-525.142901C714.322331 260.357774 560.939009 319.951294 401.35636 319.951294H383.958252v191.979126h17.398108c159.582649 0 312.965971 59.59352 430.553186 166.581888z"  horiz-adv-x="1024" />
      
      <glyph glyph-name="stream" unicode="&#58956;" d="M32 640h832c17.68 0 32 14.32 32 32V800c0 17.68-14.32 32-32 32H32C14.32 832 0 817.68 0 800v-128c0-17.68 14.32-32 32-32z m960-160H160c-17.68 0-32-14.32-32-32v-128c0-17.68 14.32-32 32-32h832c17.68 0 32 14.32 32 32v128c0 17.68-14.32 32-32 32z m-128-352H32c-17.68 0-32-14.32-32-32v-128c0-17.68 14.32-32 32-32h832c17.68 0 32 14.32 32 32v128c0 17.68-14.32 32-32 32z"  horiz-adv-x="1024" />
      
      <glyph glyph-name="caret-left" unicode="&#58957;" d="M274.8 338.8c-25 25-25 65.6 0 90.6l256 256c18.4 18.4 45.8 23.8 69.8 13.8s39.6-33.2 39.6-59.2v-512c0-25.8-15.6-49.2-39.6-59.2s-51.4-4.4-69.8 13.8l-256 256z"  horiz-adv-x="1024" />
      
      <glyph glyph-name="folder-open" unicode="&#58958;" d="M177.4 448.4L0 144.4V704c0 70.6 57.4 128 128 128h235c34 0 66.6-13.4 90.6-37.4l53-53c24-24 56.6-37.4 90.6-37.4H832c70.6 0 128-57.4 128-128v-64H288c-45.6 0-87.6-24.2-110.6-63.6z m55.2-32.2c11.6 19.8 32.6 31.8 55.4 31.8h800c23 0 44-12.2 55.4-32.2s11.4-44.4-0.2-64.2l-224-384C907.8-52 886.8-64 864-64H64c-23 0-44 12.2-55.4 32.2s-11.4 44.4 0.2 64.2l224 384z"  horiz-adv-x="1152" />
      
      <glyph glyph-name="thumbs-up" unicode="&#58959;" d="M626.8 830.2c52-10.4 85.8-61 75.4-113l-4.6-22.8c-10.6-53.4-30.2-104.2-57.6-150.4h288c53 0 96-43 96-96 0-37-21-69.2-51.8-85.2C994 345.2 1008 318.2 1008 288c0-46.8-33.6-85.8-77.8-94.2 8.8-14.6 13.8-31.6 13.8-49.8 0-42.6-27.8-78.8-66.2-91.2 1.4-6.6 2.2-13.6 2.2-20.8 0-53-43-96-96-96h-195c-38 0-75 11.2-106.6 32.2l-77 51.4C352 55.2 320 115.2 320 179.4V401.8c0 58.4 26.6 113.4 72 150l14.8 11.8c53 42.4 89.2 102 102.4 168.4l4.6 22.8c10.4 52 61 85.8 113 75.4zM64 512h128c35.4 0 64-28.6 64-64v-448c0-35.4-28.6-64-64-64H64c-35.4 0-64 28.6-64 64V448c0 35.4 28.6 64 64 64z"  horiz-adv-x="1024" />
      
      <glyph glyph-name="angle-double-down" unicode="&#58960;" d="M478 383.4L206 655.4c-18.8 18.8-18.8 49.2 0 67.8l45.2 45.2c18.8 18.8 49.2 18.8 67.8 0l192.8-192.8 192.8 192.8c18.8 18.8 49.2 18.8 67.8 0L818 723.4c18.8-18.8 18.8-49.2 0-67.8l-272-272c-18.8-19-49.2-19-68-0.2z m68-384l272 272c18.8 18.8 18.8 49.2 0 67.8l-45.2 45.2c-18.8 18.8-49.2 18.8-67.8 0L512 191.8l-192.8 192.8c-18.8 18.8-49.2 18.8-67.8 0L206 339.4c-18.8-18.8-18.8-49.2 0-67.8l272-272c18.8-19 49.2-19 68-0.2z"  horiz-adv-x="1024" />
      
      <glyph glyph-name="sign-out-alt" unicode="&#58961;" d="M994 350L658 14c-30-30-82-9-82 34v192H304c-26.6 0-48 21.4-48 48v192c0 26.6 21.4 48 48 48h272V720c0 42.8 51.8 64 82 34l336-336c18.6-18.8 18.6-49.2 0-68zM384 24v80c0 13.2-10.8 24-24 24H192c-35.4 0-64 28.6-64 64V576c0 35.4 28.6 64 64 64h168c13.2 0 24 10.8 24 24V744c0 13.2-10.8 24-24 24H192c-106 0-192-86-192-192v-384c0-106 86-192 192-192h168c13.2 0 24 10.8 24 24z"  horiz-adv-x="1024" />
      
      <glyph glyph-name="angle-double-left" unicode="&#58962;" d="M511.4 418l272 272c18.8 18.8 49.2 18.8 67.8 0l45.2-45.2c18.8-18.8 18.8-49.2 0-67.8L703.8 384l192.8-192.8c18.8-18.8 18.8-49.2 0-67.8L851.4 78c-18.8-18.8-49.2-18.8-67.8 0l-272 272c-19 18.8-19 49.2-0.2 68z m-384-68l272-272c18.8-18.8 49.2-18.8 67.8 0l45.2 45.2c18.8 18.8 18.8 49.2 0 67.8L319.8 384l192.8 192.8c18.8 18.8 18.8 49.2 0 67.8L467.4 690c-18.8 18.8-49.2 18.8-67.8 0l-272-272c-19-18.8-19-49.2-0.2-68z"  horiz-adv-x="1024" />
      
      <glyph glyph-name="angle-double-right" unicode="&#58963;" d="M512.6 350l-272-272c-18.8-18.8-49.2-18.8-67.8 0l-45.2 45.2c-18.8 18.8-18.8 49.2 0 67.8l192.8 192.8-192.8 192.8c-18.8 18.8-18.8 49.2 0 67.8L172.6 690c18.8 18.8 49.2 18.8 67.8 0l272-272c19-18.8 19-49.2 0.2-68z m384 68l-272 272c-18.8 18.8-49.2 18.8-67.8 0l-45.2-45.2c-18.8-18.8-18.8-49.2 0-67.8l192.8-192.8-192.8-192.8c-18.8-18.8-18.8-49.2 0-67.8l45.2-45.2c18.8-18.8 49.2-18.8 67.8 0l272 272c18.8 18.4 18.8 48.8 0 67.6z"  horiz-adv-x="1024" />
      
      <glyph glyph-name="angle-left" unicode="&#58964;" d="M274.8 429.2c-25-25-25-65.6 0-90.6l320-320c25-25 65.6-25 90.6 0s25 65.6 0 90.6L410.6 384l274.6 274.8c25 25 25 65.6 0 90.6s-65.6 25-90.6 0l-320-320z"  horiz-adv-x="1024" />
      
      <glyph glyph-name="fw-eye" unicode="&#58965;" d="M576 736c-130.4 0-237.6-59.2-319.8-135.4C179.2 529 126 444 98.8 384 126 324 179.2 239 256 167.4c82.4-76.2 189.6-135.4 320-135.4s237.6 59.2 319.8 135.4C972.8 239 1026 324 1053.2 384c-27.2 60-80.4 145-157.2 216.6C813.6 676.8 706.4 736 576 736zM190.8 670.8C285 758.4 414.4 832 576 832s291-73.6 385.2-161.2c93.6-87 156.2-190.8 186-262.2 6.6-15.8 6.6-33.4 0-49.2-29.8-71.4-92.4-175.4-186-262.2C867 9.6 737.6-64 576-64s-291 73.6-385.2 161.2C97.2 184 34.6 288 5 359.4c-6.6 15.8-6.6 33.4 0 49.2C34.6 480 97.2 584 190.8 670.8zM576 224c88.4 0 160 71.6 160 160s-71.6 160-160 160h-4c2.6-10.2 4-21 4-32 0-70.6-57.4-128-128-128-11 0-21.8 1.4-32 4v-4c0-88.4 71.6-160 160-160z m0 416a256 256 0 1 0 0-512 256 256 0 1 0 0 512z"  horiz-adv-x="1152" />
      
      <glyph glyph-name="repeat" unicode="&#58966;" d="M0 448c0-35.4 28.6-64 64-64s64 28.6 64 64c0 106 86 192 192 192h320v-64c0-25.8 15.6-49.2 39.6-59.2s51.4-4.4 69.8 13.8l128 128c25 25 25 65.6 0 90.6l-128 128c-18.4 18.4-45.8 23.8-69.8 13.8S640 857.8 640 832v-64H320C143.2 768 0 624.8 0 448z m1024-128c0 35.4-28.6 64-64 64s-64-28.6-64-64c0-106-86-192-192-192H384v64c0 25.8-15.6 49.2-39.6 59.2s-51.4 4.4-69.8-13.8l-128-128c-25-25-25-65.6 0-90.6l128-128c18.4-18.4 45.8-23.8 69.8-13.8s39.6 33.2 39.6 59.2V0h320c176.8 0 320 143.2 320 320z"  horiz-adv-x="1024" />
      
      <glyph glyph-name="shuffle1" unicode="&#58967;" d="M807.6 827.2c24 10 51.4 4.4 69.8-13.8l128-128c12-12 18.8-28.2 18.8-45.2s-6.8-33.2-18.8-45.2l-128-128c-18.4-18.4-45.8-23.8-69.8-13.8S768 486.4 768 512.4V576h-64c-20.2 0-39.2-9.4-51.2-25.6L568 437.4 488 544l62.4 83.2C586.6 675.6 643.6 704 704 704h64V768c0 25.8 15.6 49.2 39.6 59.2zM328 330.6l80-106.6-62.4-83.2C309.4 92.4 252.4 64 192 64H64c-35.4 0-64 28.6-64 64s28.6 64 64 64h128c20.2 0 39.2 9.4 51.2 25.6l84.8 113z m549.2-376c-18.4-18.4-45.8-23.8-69.8-13.8S767.8-26 767.8 0v64H704c-60.4 0-117.4 28.4-153.6 76.8L243.2 550.4c-12 16.2-31 25.6-51.2 25.6H64c-35.4 0-64 28.6-64 64s28.6 64 64 64h128c60.4 0 117.4-28.4 153.6-76.8l307.2-409.6c12-16.2 31-25.6 51.2-25.6h64v64c0 25.8 15.6 49.2 39.6 59.2s51.4 4.4 69.8-13.8l128-128c12-12 18.8-28.2 18.8-45.2s-6.8-33.2-18.8-45.2l-128-128z"  horiz-adv-x="1024" />
      
      <glyph glyph-name="arrows-rotate" unicode="&#58968;" d="M210.2 490.8c15.4 43.6 40.4 84.6 75.6 119.6 125 125 327.6 125 452.6 0l34.2-34.4H672c-35.4 0-64-28.6-64-64s28.6-64 64-64h255.8c35.4 0 64 28.6 64 64V768c0 35.4-28.6 64-64 64s-64-28.6-64-64v-102.4l-35 35.2c-175 175-458.6 175-633.6 0-48.8-48.8-84-106.2-105.6-167.6-11.8-33.4 5.8-69.8 39-81.6s69.8 5.8 81.6 39zM78 317.4c-10-3-19.6-8.4-27.4-16.4-8-8-13.4-17.6-16.2-28-0.6-2.4-1.2-5-1.6-7.6-0.6-3.4-0.8-6.8-0.8-10.2V0c0-35.4 28.6-64 64-64s64 28.6 64 64v102.2l35.2-35c175-174.8 458.6-174.8 633.4 0 48.8 48.8 84.2 106.2 105.8 167.4 11.8 33.4-5.8 69.8-39 81.6s-69.8-5.8-81.6-39c-15.4-43.6-40.4-84.6-75.6-119.6-125-125-327.6-125-452.6 0l-0.2 0.2-34.2 34.2H352c35.4 0 64 28.6 64 64s-28.6 64-64 64H96.8c-3.2 0-6.4-0.2-9.6-0.6s-6.2-1-9.2-2z"  horiz-adv-x="1024" />
      
      <glyph glyph-name="pause" unicode="&#58969;" d="M288 768C235 768 192 725 192 672v-576c0-53 43-96 96-96h64c53 0 96 43 96 96V672c0 53-43 96-96 96H288z m384 0c-53 0-96-43-96-96v-576c0-53 43-96 96-96h64c53 0 96 43 96 96V672c0 53-43 96-96 96h-64z"  horiz-adv-x="1024" />
      
      <glyph glyph-name="heartbeat" unicode="&#58970;" d="M640.42972 408.4l-99.4-198.8c-12-24.2-46.8-23.4-57.8 1.2l-113.8 252.6-60-143.4H121.22972l365-373c14.2-14.6 37.2-14.6 51.4 0L902.82972 320H684.62972l-44.2 88.4zM947.42972 748.2l-4.8 5c-103 105.2-271.6 105.2-374.8 0L512.02972 696l-55.8 57c-103 105.4-271.8 105.4-374.8 0l-4.8-4.8C-20.77028 648.6-24.97028 490 62.02972 384h204.8l71.8 172.4c10.8 25.8 47.2 26.4 58.8 0.8l116.4-258.6 98 195.8c11.8 23.6 45.4 23.6 57.2 0l55.2-110.4H962.02972c87 106 82.8 264.6-14.6 364.2z"  horiz-adv-x="1024" />
      
      <glyph glyph-name="a-2" unicode="&#58971;" d="M355.84 304.64c-2.56-5.12-7.68-7.68-12.8-10.24-2.56 10.24-7.68 23.04-12.8 33.28-30.72-10.24-66.56-23.04-97.28-40.96-2.56 64 0 163.84 5.12 217.6-2.56 0-7.68-2.56-10.24-5.12v15.36c0 2.56 2.56 5.12 7.68 7.68 15.36 7.68 58.88 15.36 76.8 12.8 10.24-2.56 17.92-7.68 20.48-12.8 5.12-7.68 5.12-17.92 7.68-28.16 2.56-30.72 2.56-56.32 2.56-87.04-30.72 0-61.44-2.56-89.6-10.24v-76.8c23.04 10.24 46.08 20.48 69.12 28.16-5.12 12.8-10.24 23.04-17.92 35.84 5.12 2.56 12.8 5.12 17.92 7.68 15.36-23.04 28.16-46.08 35.84-71.68 0-7.68 0-12.8-2.56-15.36z m-35.84 158.72c-20.48 0-48.64-5.12-66.56-10.24v-38.4c20.48 5.12 46.08 7.68 69.12 10.24-2.56 10.24-2.56 25.6-2.56 38.4z m-2.56 43.52c0 7.68-7.68 12.8-15.36 12.8-15.36 0-30.72-2.56-46.08-5.12 0-12.8-2.56-25.6-2.56-38.4 20.48 5.12 43.52 7.68 66.56 7.68 0 5.12-2.56 12.8-2.56 23.04z m156.16-181.76c-2.56-5.12-7.68-10.24-15.36-12.8-7.68-2.56-17.92-2.56-28.16-2.56-5.12 0-7.68 5.12-10.24 7.68-2.56 5.12-2.56 10.24-2.56 12.8 10.24 0 17.92-2.56 28.16 0 5.12 0 7.68 5.12 7.68 10.24 2.56 48.64 2.56 112.64-5.12 158.72-2.56 10.24-7.68 15.36-17.92 15.36-10.24 0-30.72-2.56-38.4-5.12-5.12-66.56-7.68-166.4-2.56-232.96h-20.48c-2.56 69.12-2.56 158.72 2.56 225.28-5.12-2.56-10.24-2.56-15.36-7.68v15.36c0 5.12 2.56 7.68 7.68 7.68 15.36 7.68 51.2 17.92 74.24 15.36 10.24 0 15.36-5.12 23.04-10.24 7.68-7.68 7.68-17.92 10.24-28.16 5.12-53.76 7.68-99.84 5.12-156.16 0-2.56-2.56-7.68-2.56-12.8zM404.48 266.24H358.4v12.8 10.24c-2.56-2.56-5.12-2.56-10.24-5.12l-15.36-7.68-2.56 12.8c-2.56 7.68-5.12 15.36-7.68 20.48-25.6-10.24-56.32-20.48-84.48-35.84l-17.92-10.24v20.48c-2.56 56.32 0 143.36 2.56 197.12l-7.68-2.56-2.56 17.92c0 5.12 0 15.36 2.56 20.48 2.56 5.12 7.68 10.24 12.8 12.8 20.48 10.24 64 15.36 84.48 12.8 15.36-2.56 25.6-7.68 30.72-20.48 2.56-2.56 2.56-5.12 5.12-7.68 2.56 5.12 7.68 10.24 12.8 12.8 17.92 7.68 56.32 20.48 81.92 15.36 12.8 0 23.04-5.12 30.72-15.36 10.24-10.24 10.24-23.04 12.8-35.84 5.12-51.2 7.68-94.72 5.12-156.16 0-7.68 0-15.36-2.56-20.48-5.12-10.24-10.24-15.36-20.48-20.48-10.24-2.56-23.04-5.12-35.84-2.56-7.68 0-15.36 7.68-20.48 15.36-2.56 5.12-2.56 10.24-2.56 15.36l-2.56 15.36h15.36c7.68 0 15.36-2.56 23.04 0 2.56 46.08 2.56 110.08-5.12 156.16 0 2.56 0 5.12-5.12 5.12-7.68 0-17.92-2.56-25.6-2.56-5.12-64-7.68-158.72-2.56-222.72l-2.56-7.68z m-140.8 120.32v-48.64c12.8 5.12 28.16 10.24 40.96 15.36-2.56 7.68-7.68 15.36-10.24 20.48l-7.68 12.8 10.24 5.12c-12.8-2.56-23.04-2.56-33.28-5.12z m69.12 7.68c7.68-12.8 15.36-25.6 20.48-35.84 0 40.96 0 84.48 2.56 122.88l-5.12-2.56c2.56-23.04 0-46.08 0-71.68v-12.8h-12.8-5.12z m-66.56 48.64v-12.8c12.8 2.56 28.16 5.12 43.52 5.12v12.8c-15.36 0-33.28-2.56-43.52-5.12z m2.56 58.88v-12.8c12.8 2.56 25.6 5.12 38.4 5.12 0 2.56 0 7.68-2.56 10.24-12.8 0-23.04 0-35.84-2.56zM698.88 496.64c-23.04 0-46.08 0-69.12-2.56-20.48-15.36-40.96-30.72-61.44-51.2 17.92 2.56 38.4 5.12 56.32 5.12 10.24 7.68 30.72 23.04 38.4 30.72 5.12-2.56 12.8-7.68 17.92-12.8-48.64-38.4-94.72-76.8-140.8-117.76-2.56 2.56-5.12 7.68-7.68 12.8 0 2.56 0 7.68 2.56 10.24 20.48 20.48 40.96 38.4 64 56.32-20.48-2.56-38.4-5.12-56.32-10.24-2.56 5.12-2.56 7.68-5.12 12.8 0 5.12 0 7.68 2.56 10.24 17.92 17.92 35.84 33.28 56.32 48.64-23.04-2.56-46.08-5.12-66.56-10.24 0 5.12 0 10.24 2.56 15.36 0 2.56 2.56 7.68 10.24 7.68 23.04 5.12 43.52 7.68 66.56 7.68-2.56 5.12-5.12 12.8-7.68 20.48 5.12 2.56 12.8 5.12 17.92 7.68 2.56-7.68 7.68-17.92 10.24-25.6 25.6 0 46.08 2.56 71.68 0-2.56-2.56-2.56-12.8-2.56-15.36z m-17.92-220.16c-20.48 25.6-40.96 48.64-64 71.68-20.48-15.36-53.76-48.64-76.8-69.12-2.56 2.56-5.12 7.68-7.68 10.24 0 5.12-2.56 7.68 2.56 12.8 25.6 23.04 89.6 79.36 135.68 117.76 2.56-2.56 10.24-7.68 15.36-12.8-15.36-12.8-40.96-35.84-53.76-46.08 20.48-20.48 43.52-43.52 56.32-58.88 2.56-2.56 5.12-10.24 0-15.36 0-5.12-5.12-7.68-7.68-10.24z m53.76 48.64c-5.12 0-15.36-2.56-20.48-2.56-2.56 69.12-2.56 133.12 0 202.24h20.48c-2.56-66.56-7.68-133.12 0-199.68z m51.2 215.04c5.12-79.36 7.68-174.08 0-235.52 0-10.24-7.68-15.36-15.36-20.48-10.24-5.12-25.6-2.56-33.28-2.56-5.12 0-7.68 5.12-7.68 10.24 0 2.56-2.56 7.68-2.56 10.24 10.24-2.56 20.48-2.56 30.72-2.56 5.12 0 7.68 5.12 7.68 10.24 5.12 53.76 5.12 153.6 0 230.4h20.48zM678.4 258.56l-7.68 10.24c-15.36 20.48-33.28 40.96-53.76 61.44-17.92-15.36-46.08-40.96-66.56-61.44l-7.68-7.68-7.68 7.68c-2.56 2.56-7.68 7.68-10.24 17.92-2.56 10.24 0 20.48 5.12 25.6 25.6 25.6 92.16 81.92 135.68 117.76l7.68 7.68 7.68-7.68 7.68-7.68 10.24-10.24v53.76l-12.8-10.24c-46.08-35.84-92.16-74.24-140.8-117.76l-10.24-10.24-7.68 12.8c-2.56 2.56-5.12 10.24-7.68 15.36-2.56 7.68-2.56 17.92 5.12 23.04 10.24 10.24 20.48 17.92 28.16 25.6-2.56 0-7.68-2.56-10.24-2.56l-10.24-2.56-5.12 10.24c-2.56 5.12-5.12 10.24-5.12 17.92 0 10.24 2.56 17.92 7.68 20.48 7.68 7.68 15.36 12.8 20.48 20.48-7.68-2.56-15.36-2.56-20.48-5.12l-17.92-5.12 2.56 17.92c0 5.12 0 10.24 2.56 17.92 2.56 10.24 10.24 15.36 20.48 17.92 15.36 2.56 30.72 5.12 48.64 7.68v2.56l-5.12 15.36 15.36 7.68 15.36 7.68 12.8 5.12 7.68-15.36c2.56-5.12 5.12-7.68 5.12-12.8 20.48 0 40.96 2.56 64 0h2.56v10.24h48.64l-2.56-38.4c-2.56-56.32-5.12-117.76 0-176.64v-12.8H742.4h12.8c5.12 51.2 5.12 148.48 0 225.28v12.8h46.08v-12.8c5.12-107.52 5.12-186.88 0-238.08 0-10.24-5.12-23.04-20.48-30.72-15.36-7.68-38.4-5.12-43.52-2.56-12.8 2.56-17.92 15.36-17.92 20.48 0 5.12-2.56 10.24-2.56 12.8v10.24h-10.24v12.8c0 25.6-2.56 51.2-2.56 76.8l-2.56-2.56c-10.24-10.24-30.72-25.6-43.52-38.4l2.56-2.56c17.92-17.92 35.84-35.84 46.08-48.64 5.12-7.68 7.68-20.48 2.56-30.72-2.56-2.56-5.12-7.68-12.8-12.8l-17.92-5.12z m76.8 53.76z m-120.32 168.96c-10.24-7.68-17.92-12.8-28.16-20.48h10.24c5.12 5.12 15.36 10.24 23.04 17.92l5.12 2.56h-10.24z m46.08 2.56c2.56-2.56 5.12-2.56 7.68-5.12l12.8-10.24v15.36H680.96z"  horiz-adv-x="1024" />
      
      <glyph glyph-name="jike" unicode="&#58972;" d="M240.64 220.16c-5.12-7.68-15.36-12.8-23.04-15.36-5.12 20.48-12.8 43.52-20.48 61.44-56.32-20.48-115.2-40.96-174.08-71.68-5.12 110.08 0 289.28 7.68 384-7.68 0-12.8-5.12-17.92-7.68 0 10.24 0 20.48 2.56 28.16 2.56 5.12 5.12 10.24 12.8 12.8 28.16 15.36 102.4 25.6 133.12 20.48 17.92-2.56 30.72-10.24 38.4-23.04 7.68-12.8 10.24-30.72 12.8-48.64 5.12-51.2 5.12-99.84 2.56-153.6-53.76-2.56-107.52-7.68-156.16-20.48v-135.68c38.4 17.92 81.92 33.28 122.88 48.64l-30.72 61.44c10.24 5.12 23.04 10.24 30.72 12.8 25.6-40.96 48.64-81.92 64-125.44 0-12.8 0-20.48-5.12-28.16zM176.64 499.2c-38.4 0-87.04-7.68-117.76-15.36l-2.56-66.56c38.4 7.68 79.36 12.8 122.88 17.92 0 17.92 0 46.08-2.56 64z m-5.12 79.36c-2.56 10.24-12.8 20.48-25.6 20.48-28.16 0-56.32-2.56-81.92-10.24-2.56-23.04-2.56-46.08-5.12-69.12 38.4 7.68 76.8 12.8 115.2 15.36 2.56 12.8 0 28.16-2.56 43.52z m273.92-320c-5.12-10.24-12.8-17.92-25.6-23.04-12.8-5.12-33.28-5.12-48.64-2.56-10.24 0-15.36 7.68-17.92 15.36-2.56 7.68-5.12 17.92-5.12 23.04 17.92-2.56 30.72-2.56 51.2-2.56 10.24 0 15.36 7.68 15.36 17.92 5.12 84.48 5.12 199.68-7.68 281.6-2.56 17.92-15.36 25.6-30.72 25.6-20.48 0-53.76-5.12-69.12-10.24-10.24-117.76-15.36-291.84-5.12-409.6h-35.84c-7.68 122.88-5.12 276.48 2.56 394.24-7.68-2.56-17.92-7.68-25.6-10.24-2.56 10.24-2.56 20.48 0 28.16 2.56 7.68 5.12 12.8 12.8 15.36 28.16 12.8 92.16 30.72 133.12 28.16 17.92-2.56 28.16-10.24 38.4-20.48 12.8-12.8 15.36-30.72 15.36-48.64 10.24-94.72 10.24-174.08 7.68-273.92 0-10.24 0-17.92-5.12-28.16zM842.24 560.64c-40.96 0-81.92 0-120.32-5.12-38.4-28.16-74.24-56.32-110.08-89.6 33.28 5.12 66.56 7.68 97.28 10.24 17.92 12.8 51.2 40.96 69.12 53.76 10.24-5.12 20.48-12.8 30.72-20.48-84.48-66.56-166.4-135.68-248.32-209.92-2.56 5.12-7.68 12.8-10.24 23.04-2.56 5.12 0 15.36 5.12 20.48 38.4 35.84 74.24 66.56 112.64 97.28-33.28-2.56-66.56-10.24-99.84-17.92-2.56 7.68-7.68 15.36-7.68 23.04 0 7.68 0 12.8 5.12 17.92 30.72 30.72 64 58.88 97.28 84.48-40.96-2.56-79.36-10.24-117.76-17.92 0 7.68 2.56 17.92 2.56 25.6 0 5.12 5.12 12.8 15.36 15.36 38.4 7.68 76.8 12.8 115.2 15.36-2.56 10.24-10.24 20.48-15.36 33.28 10.24 5.12 23.04 10.24 33.28 15.36 5.12-12.8 15.36-33.28 20.48-46.08 43.52 2.56 81.92 2.56 125.44 2.56v-30.72z m-28.16-389.12c-35.84 46.08-71.68 84.48-110.08 125.44-33.28-28.16-94.72-84.48-135.68-122.88-5.12 2.56-10.24 10.24-12.8 20.48-2.56 7.68-2.56 15.36 5.12 23.04 43.52 40.96 156.16 140.8 238.08 207.36 5.12-5.12 17.92-15.36 25.6-23.04-25.6-20.48-71.68-61.44-94.72-81.92 35.84-35.84 76.8-76.8 99.84-104.96 5.12-5.12 7.68-17.92 2.56-25.6-7.68-5.12-12.8-12.8-17.92-17.92z m92.16 87.04c-10.24-2.56-25.6-2.56-35.84-2.56-5.12 120.32-5.12 232.96 0 355.84h35.84c-5.12-120.32-10.24-235.52 0-353.28z m89.6 376.32c7.68-140.8 12.8-307.2-2.56-414.72-2.56-17.92-12.8-28.16-25.6-35.84-17.92-10.24-46.08-7.68-58.88-2.56-10.24 2.56-12.8 10.24-15.36 17.92-2.56 7.68-2.56 12.8-2.56 20.48 15.36-2.56 33.28-5.12 53.76-5.12 7.68 2.56 12.8 7.68 15.36 17.92 7.68 94.72 10.24 268.8 0 404.48h35.84z"  horiz-adv-x="1024" />
      
      <glyph glyph-name="heartbeat1" unicode="&#58973;" d="M456.6-42.2L95.2 295.2c-8.4 7.8-16.4 16.2-23.8 24.8h174c45.2 0 86 27.2 103.4 69l21 50.4 98.6-219c7.6-17 24.2-28 42.8-28.2s35.6 10 44 26.6l84.8 169.8 3.4-6.8c19-38 57.8-62 100.2-62h209c-7.4-8.6-15.4-17-23.8-24.8L567.4-42.2c-15-14-34.8-21.8-55.4-21.8s-40.4 7.8-55.4 21.8zM1007.4 416h-264c-6 0-11.6 3.4-14.4 8.8l-46.4 92.6c-8.2 16.2-24.8 26.6-43 26.6s-34.8-10.2-43-26.6l-82.8-165.6-102 227.8c-7.8 17.4-25.4 28.6-44.4 28.2s-36.2-11.8-43.6-29.6l-63.6-152.6c-2.4-6-8.4-9.8-14.8-9.8H32c-5.2 0-10-0.8-14.6-2.2-11.4 32-17.4 66-17.4 100.6v11.6c0 139.8 101 259 238.8 282 91.2 15.2 184-14.6 249.2-79.8l24-24 24 24c65.2 65.2 158 95 249.2 79.8 137.8-23 238.8-142.2 238.8-282v-11.6c0-33.8-5.6-67-16.6-98.2z"  horiz-adv-x="1024" />
      
      <glyph glyph-name="rss" unicode="&#58974;" d="M64 768c0 35.4 28.6 64 64 64 459.6 0 832-372.4 832-832 0-35.4-28.6-64-64-64s-64 28.6-64 64C832 388.8 516.8 704 128 704 92.6 704 64 732.6 64 768z m0-704a128 128 0 1 0 256 0 128 128 0 1 0-256 0z m64 512c318.2 0 576-257.8 576-576 0-35.4-28.6-64-64-64s-64 28.6-64 64c0 247.4-200.6 448-448 448-35.4 0-64 28.6-64 64s28.6 64 64 64z"  horiz-adv-x="1024" />
      
      <glyph glyph-name="qq" unicode="&#58975;" d="M931.507451 55.1111c-23.05197-2.785996-89.719883 105.481862-89.719883 105.481862 0-62.689918-32.271958-144.493811-102.101866-203.571733 33.683956-10.383986 109.685856-38.33395 91.60588-68.84191-14.631981-24.685968-251.019672-15.761979-319.263582-8.07399-68.243911-7.68799-304.631601-16.611978-319.263582 8.07399-18.089976 30.49996 57.835924 58.427924 91.56588 68.82991-69.839909 59.077923-102.117866 140.889816-102.117866 203.583733 0 0-66.667913-108.267858-89.717883-105.481862-10.739986 1.299998-24.847967 59.287922 18.693975 199.407739 20.521973 66.047914 43.989942 120.955842 80.287895 211.557724C185.366427 699.874257 281.964301 895.988 512 896c227.473702-0.012 326.311573-192.265748 320.527581-429.925437 36.235953-90.445882 59.823922-145.699809 80.287894-211.555724 43.535943-140.119817 29.431961-198.105741 18.691976-199.407739z"  horiz-adv-x="1024" />
      
      <glyph glyph-name="github" unicode="&#58976;" d="M347.8 101.2c0-4-4.6-7.2-10.4-7.2-6.6-0.6-11.2 2.6-11.2 7.2 0 4 4.6 7.2 10.4 7.2 6 0.6 11.2-2.6 11.2-7.2z m-62.2 9c-1.4-4 2.6-8.6 8.6-9.8 5.2-2 11.2 0 12.4 4s-2.6 8.6-8.6 10.4c-5.2 1.4-11-0.6-12.4-4.6z m88.4 3.4c-5.8-1.4-9.8-5.2-9.2-9.8 0.6-4 5.8-6.6 11.8-5.2 5.8 1.4 9.8 5.2 9.2 9.2-0.6 3.8-6 6.4-11.8 5.8zM505.6 880C228.2 880 16 669.4 16 392c0-221.8 139.6-411.6 339-478.4 25.6-4.6 34.6 11.2 34.6 24.2 0 12.4-0.6 80.8-0.6 122.8 0 0-140-30-169.4 59.6 0 0-22.8 58.2-55.6 73.2 0 0-45.8 31.4 3.2 30.8 0 0 49.8-4 77.2-51.6 43.8-77.2 117.2-55 145.8-41.8 4.6 32 17.6 54.2 32 67.4-111.8 12.4-224.6 28.6-224.6 221 0 55 15.2 82.6 47.2 117.8-5.2 13-22.2 66.6 5.2 135.8 41.8 13 138-54 138-54 40 11.2 83 17 125.6 17s85.6-5.8 125.6-17c0 0 96.2 67.2 138 54 27.4-69.4 10.4-122.8 5.2-135.8 32-35.4 51.6-63 51.6-117.8 0-193-117.8-208.4-229.6-221 18.4-15.8 34-45.8 34-92.8 0-67.4-0.6-150.8-0.6-167.2 0-13 9.2-28.8 34.6-24.2C872.4-19.6 1008 170.2 1008 392 1008 669.4 783 880 505.6 880zM210.4 190.2c-2.6-2-2-6.6 1.4-10.4 3.2-3.2 7.8-4.6 10.4-2 2.6 2 2 6.6-1.4 10.4-3.2 3.2-7.8 4.6-10.4 2z m-21.6 16.2c-1.4-2.6 0.6-5.8 4.6-7.8 3.2-2 7.2-1.4 8.6 1.4 1.4 2.6-0.6 5.8-4.6 7.8-4 1.2-7.2 0.6-8.6-1.4z m64.8-71.2c-3.2-2.6-2-8.6 2.6-12.4 4.6-4.6 10.4-5.2 13-2 2.6 2.6 1.4 8.6-2.6 12.4-4.4 4.6-10.4 5.2-13 2z m-22.8 29.4c-3.2-2-3.2-7.2 0-11.8 3.2-4.6 8.6-6.6 11.2-4.6 3.2 2.6 3.2 7.8 0 12.4-2.8 4.6-8 6.6-11.2 4z"  horiz-adv-x="1024" />
      
      <glyph glyph-name="bilibili" unicode="&#58977;" d="M977.2 687.8c33.4-36.2 48.8-79.4 46.6-131.4v-404.8c-0.8-52.8-18.4-96.2-53-130.2-34.4-34-78.2-51.8-131-53.4H184.04c-52.9 1.6-96.42 19.6-130.56 54.4C19.364 57.2 1.534 103 0 159.6V556.4c1.534 52 19.364 95.2 53.48 131.4C87.62 720.5 131.14 738.46 184.04 740h58.76L192.1 791.62c-11.5 11.46-17.26 26-17.26 43.58 0 17.6 5.76 32.12 17.26 43.594C203.6 890.264 218.2 896 235.8 896s32.2-5.736 43.8-17.206L426.2 740h176l149 138.794C763.4 890.264 778.4 896 796 896c17.6 0 32.2-5.736 43.8-17.206 11.4-11.474 17.2-25.994 17.2-43.594 0-17.58-5.8-32.12-17.2-43.58L789.2 740h58.6c52.8-1.54 96-19.5 129.4-52.2z m-77.6-139.4c-0.8 19.2-7.4 34.8-21.4 47-10.4 12.2-28 18.8-45.4 19.6H192.1c-19.18-0.8-34.9-7.4-47.16-19.6-12.28-12.2-18.8-27.8-19.56-47v-388.8c0-18.4 6.52-34 19.56-47s28.76-19.6 47.16-19.6H832.8c18.4 0 34 6.6 46.6 19.6 12.6 13 19.4 28.6 20.2 47V548.4z m-528.6-85.4c12.6-12.6 19.4-28.2 20.2-46.4V350c-0.8-18.4-7.4-33.8-19.6-46.4-12.4-12.6-28-19-47.2-19-19.2 0-35 6.4-47.2 19-12.2 12.6-18.8 28-19.6 46.4v66.6c0.8 18.2 7.6 33.8 20.2 46.4 12.6 12.6 26.4 19.2 46.6 20 18.4-0.8 34-7.4 46.6-20z m383 0c12.6-12.6 19.4-28.2 20.2-46.4V350c-0.8-18.4-7.4-33.8-19.6-46.4-12.2-12.6-28-19-47.2-19-19.2 0-34.8 6.4-47.2 19-14 12.6-18.8 28-19.4 46.4v66.6c0.6 18.2 7.4 33.8 20 46.4 12.6 12.6 28.2 19.2 46.6 20 18.4-0.8 34-7.4 46.6-20z"  horiz-adv-x="1024" />
      
      <glyph glyph-name="paper-plane1" unicode="&#58978;" d="M996.022225 884.794683c20.195814-13.997099 30.793617-38.192083 26.994405-62.387068l-127.973473-831.827575c-2.999378-19.39598-14.796933-36.392456-31.993368-45.990467s-37.792166-10.797762-55.988395-3.199337L567.910966 40.769637l-136.971607-148.169287c-17.796311-19.39598-45.790508-25.794653-70.385411-16.196643S319.962362-90.203215 319.962362-63.808686v167.165349c0 7.998342 2.999378 15.596767 8.39826 21.395565l335.130532 365.724191c11.597596 12.597389 11.197679 31.993368-0.799834 43.990881s-31.393493 12.797347-43.990881 1.39971L211.984745 174.541908l-176.563401 88.381679C14.225737 273.521391 0.628556 294.716997 0.02868 318.312106s11.797555 45.59055 32.193327 57.388104l895.814311 511.893892c21.395565 12.197472 47.790094 10.99772 67.985907-2.799419z"  horiz-adv-x="1024" />
      
      <glyph glyph-name="hashtag" unicode="&#58979;" d="M426.6 831.2c34.8-5.8 58.4-38.8 52.6-73.6l-19.6-117.6h190.2l23 138.6c5.8 34.8 38.8 58.4 73.6 52.6s58.4-38.8 52.6-73.6l-19.4-117.6H896c35.4 0 64-28.6 64-64s-28.6-64-64-64h-137.8l-42.6-256H832c35.4 0 64-28.6 64-64s-28.6-64-64-64h-137.8l-23-138.6c-5.8-34.8-38.8-58.4-73.6-52.6s-58.4 38.8-52.6 73.6l19.6 117.4h-190.4l-23-138.6c-5.8-34.8-38.8-58.4-73.6-52.6s-58.4 38.8-52.6 73.6l19.4 117.8H128c-35.4 0-64 28.6-64 64s28.6 64 64 64h137.8l42.6 256H192c-35.4 0-64 28.6-64 64s28.6 64 64 64h137.8l23 138.6c5.8 34.8 38.8 58.4 73.6 52.6z m11.6-319.2l-42.6-256h190.2l42.6 256h-190.2z"  horiz-adv-x="1024" />
      
      <glyph glyph-name="hand-heart-fill" unicode="&#58980;" d="M398.293333 405.248h92.586667a192 192 0 0 0 192-192H384.170667v-42.666667h341.333333v42.666667a237.994667 237.994667 0 0 1-37.76 128h123.136a213.333333 213.333333 0 0 0 192.682667-121.685333c-100.906667-133.12-264.277333-219.690667-448.682667-219.690667-117.802667 0-217.6 25.216-298.666667 69.333333v396.970667a297.216 297.216 0 0 0 142.08-60.928z m-227.413333 106.666667a42.666667 42.666667 0 0 0 42.368-37.717334l0.298667-4.949333v-384a42.666667 42.666667 0 0 0-42.666667-42.666667h-85.333333a42.666667 42.666667 0 0 0-42.666667 42.666667v384a42.666667 42.666667 0 0 0 42.666667 42.666667h85.333333z m411.562667 231.424l15.104-15.104 15.061333 15.104a106.666667 106.666667 0 0 0 150.869333-150.826667l-165.973333-165.973333-165.888 165.973333a106.666667 106.666667 0 1 0 150.826667 150.826667z"  horiz-adv-x="1024" />
      
      <glyph glyph-name="plant-fill" unicode="&#58981;" d="M895.914667 768v-85.333333a298.666667 298.666667 0 0 0-298.666667-298.666667h-42.666667v-42.666667h213.333334v-298.666666a85.333333 85.333333 0 0 0-85.333334-85.333334h-341.333333a85.333333 85.333333 0 0 0-85.333333 85.333334v298.666666h213.333333v128a298.666667 298.666667 0 0 0 298.666667 298.666667h128z m-661.333334 42.666667a319.573333 319.573333 0 0 0 261.290667-135.210667A339.712 339.712 0 0 1 426.581333 469.333333v-42.666666h-21.333333a320 320 0 0 0-320 320V810.666667h149.333333z"  horiz-adv-x="1024" />
      
      <glyph glyph-name="qrcode" unicode="&#58982;" d="M85.333333 853.333333h341.333334a42.666667 42.666667 0 0 0 42.666666-42.666666v-341.333334a42.666667 42.666667 0 0 0-42.666666-42.666666H85.333333a42.666667 42.666667 0 0 0-42.666666 42.666666V810.666667a42.666667 42.666667 0 0 0 42.666666 42.666666z m42.666667-85.333333v-256h256V768H128zM213.333333 682.666667h85.333334v-85.333334H213.333333zM597.333333 853.333333h341.333334a42.666667 42.666667 0 0 0 42.666666-42.666666v-341.333334a42.666667 42.666667 0 0 0-42.666666-42.666666h-341.333334a42.666667 42.666667 0 0 0-42.666666 42.666666V810.666667a42.666667 42.666667 0 0 0 42.666666 42.666666z m42.666667-85.333333v-256h256V768h-256zM725.333333 682.666667h85.333334v-85.333334h-85.333334zM85.333333 341.333333h341.333334a42.666667 42.666667 0 0 0 42.666666-42.666666v-341.333334a42.666667 42.666667 0 0 0-42.666666-42.666666H85.333333a42.666667 42.666667 0 0 0-42.666666 42.666666v341.333334a42.666667 42.666667 0 0 0 42.666666 42.666666z m42.666667-85.333333v-256h256v256H128zM213.333333 170.666667h85.333334v-85.333334H213.333333zM981.333333 85.333333h-170.666666v-170.666666h-213.333334a42.666667 42.666667 0 0 0-42.666666 42.666666v341.333334-213.333334h85.333333v-85.333333h85.333333v256h-85.333333v85.333333h-42.666667 128v-85.333333h85.333334v-85.333333h85.333333v170.666666h42.666667a42.666667 42.666667 0 0 0 42.666666-42.666666v-213.333334z m0-85.333333v-42.666667a42.666667 42.666667 0 0 0-42.666666-42.666666h-42.666667v85.333333h85.333333z"  horiz-adv-x="1024" />
      
      <glyph glyph-name="weibo" unicode="&#58983;" d="M814 540.8c15.2 48-26.8 93.6-74.8 83.4-44-9.6-57.6 56.2-14.2 65.6 100.2 21.8 184.6-74.2 153-169.6-13.6-42.4-77.6-21.6-64 20.6zM429.6 2.6C217 2.6 0 105.4 0 275.2c0 88.6 56 190.8 152.6 287.4C352 762 559 764.4 499.8 574c-8-26.2 24.6-11.4 24.6-12 159 67.2 281 33.6 228-102.8-7.4-18.8 2.2-21.8 16.6-26.2 271.4-84.6 69.6-430.4-339.4-430.4z m287.4 292.6c-10.8 111.4-157 188-326.8 171.4-169.6-17.2-297.6-120.6-286.8-232s157-188 326.8-171.4c169.6 17.2 297.6 120.6 286.8 232zM695.8 825.8c-51.8-11.2-33.6-87.4 16.6-76.6 144.6 30.4 269.6-105.6 223.4-248-14.8-48.4 58.2-74 74.8-24 63.8 199.6-110.2 391.8-314.8 348.6z m-157-622c-34.2-77.6-133.6-120-218.2-92.6-81.6 26.2-116 106.8-80.6 179.4 35.4 70.8 126.2 110.8 206.8 90.2 84-21.6 126.2-100.4 92-177z m-172.6 60c-25.8 10.8-60-0.6-76-25.8-16.6-25.8-8.6-56 17.2-68 26.2-12 61.6-0.6 78.2 25.8 16 26.2 7.4 56.6-19.4 68z m65.2 26.8c-10.2 3.4-22.8-1.2-28.6-10.8-5.8-10.2-2.8-21.2 7.4-25.8 10.2-4 23.4 0.6 29.2 10.8 5.6 10.4 2.2 21.8-8 25.8z"  horiz-adv-x="1024" />
      
      <glyph glyph-name="copyright" unicode="&#58984;" d="M512-128a512 512 0 1 1 0 1024 512 512 0 1 1 0-1024z m-113.2 398.8c62.4-62.4 163.8-62.4 226.2 0 18.8 18.8 49.2 18.8 67.8 0s18.8-49.2 0-67.8c-100-100-262-100-362 0s-100 262 0 362 262 100 362 0c18.8-18.8 18.8-49.2 0-67.8s-49.2-18.8-67.8 0c-62.4 62.4-163.8 62.4-226.2 0s-62.4-163.8 0-226.2z"  horiz-adv-x="1024" />
      
      <glyph glyph-name="bolt" unicode="&#58985;" d="M762.791139 806.785052c11.799583 27.399032 2.999894 59.397901-21.199251 76.99728s-57.197979 15.999435-79.797181-3.599873l-511.98191-447.984172c-19.999293-17.599378-27.199039-45.798382-17.799371-70.597506S165.412246 320.002251 192.011306 320.002251h222.992121L261.208861-38.785072c-11.799583-27.399032-2.999894-59.397901 21.199251-76.99728s57.197979-15.999435 79.797181 3.599873l511.98191 447.984172c19.999293 17.599378 27.199039 45.798382 17.799371 70.597506s-33.198827 41.398537-59.99788 41.398537H608.996573l153.794566 358.987316z"  horiz-adv-x="1024" />
      
      <glyph glyph-name="circle-info" unicode="&#58986;" d="M512-128a512 512 0 1 1 0 1024 512 512 0 1 1 0-1024z m-80 352h48v128h-48c-26.6 0-48 21.4-48 48s21.4 48 48 48h96c26.6 0 48-21.4 48-48v-176h16c26.6 0 48-21.4 48-48s-21.4-48-48-48h-160c-26.6 0-48 21.4-48 48s21.4 48 48 48z m80 416a64 64 0 1 0 0-128 64 64 0 1 0 0 128z"  horiz-adv-x="1024" />
      
      <glyph glyph-name="triangle-exclamation" unicode="&#58987;" d="M512 832c28.4 0 54.6-15 69-39.6l432-736c14.6-24.8 14.6-55.4 0.4-80.2S972.6-64 944-64H80c-28.6 0-55.2 15.4-69.4 40.2s-14 55.6 0.4 80.2l432 736C457.4 817 483.6 832 512 832z m0-256c-26.6 0-48-21.4-48-48v-224c0-26.6 21.4-48 48-48s48 21.4 48 48V528c0 26.6-21.4 48-48 48z m64-448a64 64 0 1 1-128 0 64 64 0 1 1 128 0z"  horiz-adv-x="1024" />
      
      <glyph glyph-name="circle-check" unicode="&#58988;" d="M512-128a512 512 0 1 1 0 1024 512 512 0 1 1 0-1024z m226 606L482 222c-18.8-18.8-49.2-18.8-67.8 0l-128 128c-18.8 18.8-18.8 49.2 0 67.8s49.2 18.8 67.8 0l94-94L670 546c18.8 18.8 49.2 18.8 67.8 0s18.8-49.2 0-67.8z"  horiz-adv-x="1024" />
      
      <glyph glyph-name="circle-minus" unicode="&#58989;" d="M512-128a512 512 0 1 1 0 1024 512 512 0 1 1 0-1024z m-144 560h288c26.6 0 48-21.4 48-48s-21.4-48-48-48H368c-26.6 0-48 21.4-48 48s21.4 48 48 48z"  horiz-adv-x="1024" />
      
      <glyph glyph-name="circle-plus" unicode="&#58990;" d="M512-128a512 512 0 1 1 0 1024 512 512 0 1 1 0-1024z m-48 336v128h-128c-26.6 0-48 21.4-48 48s21.4 48 48 48h128v128c0 26.6 21.4 48 48 48s48-21.4 48-48v-128h128c26.6 0 48-21.4 48-48s-21.4-48-48-48h-128v-128c0-26.6-21.4-48-48-48s-48 21.4-48 48z"  horiz-adv-x="1024" />
      
      <glyph glyph-name="circle-dot" unicode="&#58991;" d="M512-128a512 512 0 1 1 0 1024 512 512 0 1 1 0-1024z m0 704a192 192 0 1 0 0-384 192 192 0 1 0 0 384z"  horiz-adv-x="1024" />
      
      <glyph glyph-name="scissors" unicode="&#58992;" d="M512 512l-79 79c9.8 25.2 15 52.4 15 81C448 795.8 347.8 896 224 896S0 795.8 0 672s100.2-224 224-224c28.6 0 55.8 5.4 81 15L384 384l-79-79c-25.2 9.8-52.4 15-81 15C100.2 320 0 219.8 0 96s100.2-224 224-224 224 100.2 224 224c0 28.6-5.4 55.8-15 81L998.4 742.4c14.2 14.2 14.2 37 0 51.2-56.6 56.6-148.2 56.6-204.8 0L512 512z m45.2-301.2l236.4-236.4c56.6-56.6 148.2-56.6 204.8 0 14.2 14.2 14.2 37 0 51.2L685.2 338.8l-128-128zM128 672a96 96 0 1 0 192 0 96 96 0 1 0-192 0z m96-480a96 96 0 1 0 0-192 96 96 0 1 0 0 192z"  horiz-adv-x="1024" />
      
      <glyph glyph-name="arrow-down" unicode="&#58993;" d="M466.8-45.2c25-25 65.6-25 90.6 0l320 320c25 25 25 65.6 0 90.6s-65.6 25-90.6 0L576 154.4V768c0 35.4-28.6 64-64 64s-64-28.6-64-64v-613.4L237.2 365.2c-25 25-65.6 25-90.6 0s-25-65.6 0-90.6l320-320z"  horiz-adv-x="1024" />
      
      <glyph glyph-name="dengpao" unicode="&#58994;" d="M513.3 656.1c-73.5 0-142.6-28.6-194.6-80.6-52-52-80.6-121.1-80.6-194.6s28.6-142.6 80.6-194.6c52-52 121.1-80.6 194.6-80.6s142.6 28.6 194.6 80.6c52 52 80.6 121.1 80.6 194.6s-28.6 142.6-80.6 194.6c-52 52-121.1 80.6-194.6 80.6z m0-482.3c-114.2 0-207.2 92.9-207.2 207.2S399 588.2 513.3 588.2c114.2 0 207.2-92.9 207.2-207.2s-92.9-207.2-207.2-207.2z m124.6-81.4H388.7c-18.8 0-34-15.2-34-34s15.2-34 34-34h249.2c18.8 0 34 15.2 34 34s-15.2 34-34 34zM588.1 11H438.6c-18.8 0-34-15.2-34-34s15.2-34 34-34h149.5c18.8 0 34 15.2 34 34s-15.2 34-34 34z m-74.8 657.5c18.8 0 34 15.2 34 34V799c0 18.8-15.2 34-34 34s-34-15.2-34-34v-96.5c0-18.7 15.2-34 34-34z m188-49.4c5.9-4.2 12.7-6.2 19.5-6.2 10.7 0 21.3 5.1 27.9 14.5l55.3 79c10.8 15.4 7 36.6-8.3 47.4-15.4 10.8-36.6 7-47.4-8.3l-55.3-79c-10.8-15.4-7.1-36.6 8.3-47.4zM938 538.4c-6.6 17.6-26.2 26.5-43.8 19.9l-90.4-33.8c-17.6-6.6-26.5-26.2-19.9-43.8 5.1-13.7 18.1-22.1 31.9-22.1 4 0 8 0.7 11.9 2.2l90.4 33.8c17.6 6.6 26.5 26.2 19.9 43.8zM283.4 643.5c6.6-9.4 17.2-14.5 27.9-14.5 6.7 0 13.5 2 19.5 6.2 15.4 10.8 19.1 32 8.3 47.4l-55.3 79c-10.8 15.4-32 19.1-47.4 8.3-15.4-10.8-19.1-32-8.3-47.4l55.3-79z m-35.3-146.6c6.6 17.6-2.4 37.2-19.9 43.8l-90.4 33.8c-17.6 6.6-37.2-2.4-43.8-19.9-6.6-17.6 2.4-37.2 19.9-43.8l90.4-33.8c3.9-1.5 7.9-2.2 11.9-2.2 13.8 0 26.8 8.4 31.9 22.1z"  horiz-adv-x="1024" />
      
      <glyph glyph-name="danmu" unicode="&#58995;" d="M628.01 425.97h88.851v-71.575h-88.85V425.97zM628.01 534.574h88.851v-69.107h-88.85v69.107zM497.184 425.97h86.382v-71.575h-86.382V425.97zM798.06 830.71H225.939c-81.839 0-148.204-68.834-148.204-153.746V100.48c0-84.93 67.835-163.189 151.559-163.189h565.393c83.724 0 151.577 78.277 151.577 163.189V676.964c0.001 84.911-66.344 153.746-148.202 153.746zM541.61 682.675c11.497-21.402 23.032-49.363 34.567-83.922-14.815-4.938-31.287-11.535-49.383-19.744-6.596 29.62-16.453 56.771-29.611 81.454l44.427 22.212zM400.927 309.96l-9.876-116.01c-3.318-32.91-17.718-52.644-43.201-59.26a631.2 631.2 0 0 0-77.75-14.796c-3.317 21.412-9.065 41.966-17.284 61.71 37.847-1.658 62.52-1.235 74.056 1.234 11.479 2.47 18.076 13.572 19.735 33.323l9.876 123.42h-118.48c6.558 52.651 9.875 109.413 9.875 170.321H358.97v91.32c-54.32 0-97.125-0.848-128.357-2.469v44.435c26.294-1.668 51.832-2.47 76.505-2.47h98.747a1257.144 1257.144 0 0 1-2.488-78.983c0-26.341 0.83-56.78 2.488-91.34H292.323l-4.938-88.86h120.93c-3.318-23.05-5.767-46.884-7.388-71.575z m397.398-101.205c-32.947 1.611-60.9 2.469-83.932 2.469h-86.382c0-37.877 0.79-74.045 2.469-108.614h-49.363c1.62 37.884 2.45 74.055 2.45 108.614H487.31c-26.33-1.67-49.363-3.318-69.116-4.948v46.903c19.753-1.648 42.785-3.307 69.116-4.928h96.258v66.648H447.821c1.62 41.108 2.469 85.543 2.469 133.286 0 47.715-0.848 88.86-2.47 123.418h180.19c14.816 34.558 27.952 69.918 39.506 106.145 18.058-8.256 37-15.664 56.753-22.223-16.474-18.123-32.08-46.084-46.895-83.922h86.382c-1.658-31.278-2.469-73.234-2.469-125.878 0-52.681 0.81-96.268 2.47-130.827H628.01v-66.648h83.913c21.374 0 50.174 0.81 86.4 2.47v-41.965zM497.184 534.574h86.382v-69.107h-86.382v69.107z"  horiz-adv-x="1024" />
      
      <glyph glyph-name="zonglan" unicode="&#58996;" d="M869.76 755.2a76.8 76.8 0 0 0 76.8-76.8v-398.72a76.8 76.8 0 0 0-76.8-76.8H153.6a76.8 76.8 0 0 0-76.8 76.8V678.4a76.8 76.8 0 0 0 76.8 76.8h716.16m0 76.8H153.6A153.6 153.6 0 0 1 0 678.4v-398.72A153.6 153.6 0 0 1 153.6 128h716.16A153.6 153.6 0 0 1 1024 279.68V678.4A153.6 153.6 0 0 1 869.76 832zM812.8-64H209.92a38.4 38.4 0 1 0 0 76.8H812.8a38.4 38.4 0 1 0 0-76.8zM512-40.32a38.4 38.4 0 0 0-38.4 38.4V144a38.4 38.4 0 1 0 76.8 0v-144a38.4 38.4 0 0 0-38.4-40.32zM234.88 341.76a38.4 38.4 0 0 0-25.6 67.2L399.36 576a38.4 38.4 0 0 0 52.48 0l140.8-142.08L768 605.44a38.4 38.4 0 1 0 53.76-55.04L618.88 352.64a38.4 38.4 0 0 0-53.76 0l-142.08 140.8-162.56-142.08a38.4 38.4 0 0 0-25.6-9.6z"  horiz-adv-x="1024" />
      
      <glyph glyph-name="linggan" unicode="&#58997;" d="M514.408 666.483c-137.23 0-247.975-111.549-247.975-247.975 0-77.843 36.112-150.07 97.906-197.417 15.247-11.235 36.915-8.828 48.15 6.42s8.828 36.915-6.42 48.15c-44.94 34.508-70.62 86.671-70.62 142.847 0 98.708 80.25 178.96 178.959 178.96s178.959-80.252 178.959-178.96c0-65.003-35.31-125.191-92.289-156.49-0.802-0.802-1.605-0.802-1.605-1.604-0.802-0.803-1.605-0.803-1.605-0.803-12.037-8.827-18.457-14.445-20.062-105.93l-174.947 40.125c-18.458 4.012-36.915-7.223-41.73-25.68-4.013-18.458 7.222-36.916 25.68-41.731l217.48-49.756c2.407-0.802 4.814-0.802 8.024-0.802 8.026 0 15.248 2.408 21.668 7.223 8.025 6.42 12.84 16.852 12.84 27.285v18.458c0 46.545 1.605 69.818 2.408 81.855 70.62 45.743 113.956 124.389 113.956 208.652-0.803 136.427-112.351 247.173-248.777 247.173z m77.843-616.326L398.846 95.9c-18.457 4.012-36.915-7.223-41.73-25.68-4.013-18.458 7.223-36.916 25.68-41.731l193.405-45.743c2.407-0.802 5.617-0.802 8.025-0.802 16.05 0 29.692 10.432 33.705 26.482 4.815 19.26-7.223 37.718-25.68 41.73z m-38.52-87.474l-133.217 31.298c-18.458 4.013-36.915-7.222-41.73-25.68-4.013-18.458 7.222-36.915 25.68-41.73l133.216-31.298c2.408-0.803 5.618-0.803 8.025-0.803 16.05 0 29.693 10.433 33.706 26.483 4.815 18.458-7.223 36.915-25.68 41.73zM574.596 418.508c0-19.26 15.247-34.508 34.507-34.508s34.508 15.248 34.508 34.508c0 81.856-60.188 138.031-146.859 138.031-19.26 0-34.507-15.247-34.507-34.508s15.247-34.507 34.507-34.507c17.656 0 77.844-4.816 77.844-69.016z m-60.188 334.646c19.26 0 34.507 15.247 34.507 34.507v51.36c0 19.261-15.247 34.509-34.507 34.509S479.9 858.282 479.9 839.022v-51.36c0-19.26 15.247-34.508 34.508-34.508z m-225.505-44.138l-36.916 36.915c-13.642 13.643-35.31 13.643-48.953 0-13.642-13.643-13.642-35.31 0-48.953l36.916-36.915c13.642-13.643 35.31-13.643 48.953 0 13.642 12.84 13.642 35.31 0 48.953z m-118.771-239.95h-51.36c-19.261 0-34.509-15.248-34.509-34.508s15.248-34.508 34.508-34.508h51.36c19.26 0 34.508 15.248 34.508 34.508s-16.05 34.508-34.507 34.508z m654.846 276.063c-13.643 13.642-35.31 13.642-48.953 0l-36.915-36.916c-13.643-13.642-13.643-35.31 0-48.953 13.642-13.642 35.31-13.642 48.953 0l36.915 36.916c13.643 13.642 13.643 35.31 0 48.953z m85.868-276.063h-52.163c-19.26 0-34.507-15.248-34.507-34.508s15.247-34.508 34.507-34.508h51.36c19.261 0 34.509 15.248 34.509 34.508 0.802 19.26-15.248 34.508-33.706 34.508z"  horiz-adv-x="1024" />
      
      <glyph glyph-name="sanmingzhi" unicode="&#58998;" d="M916.582 512.205c0 1.177-0.153 2.406-0.358 3.584-0.051 0.307-0.154 0.563-0.205 0.87-0.205 0.922-0.512 1.843-0.819 2.714-0.102 0.256-0.205 0.563-0.307 0.819-0.41 0.973-0.922 1.894-1.485 2.816l-61.798 96.666c-2.304 31.13-20.07 57.958-45.722 72.806 18.586 23.552 39.322 31.898 40.858 32.46a20.47 20.47 0 0 1-14.03 38.452c-1.791-0.666-28.466-10.65-53.452-38.963a66.452 66.452 0 0 1-60.262 9.625l-68.608-22.579c-24.116 55.04-79.104 93.645-143.002 93.645-15.309 0-30.464-2.202-45.005-6.605-32.46-9.779-61.389-30.361-81.408-57.907a20.48 20.48 0 0 1 4.557-28.62 20.531 20.531 0 0 1 28.62 4.556c14.746 20.378 36.097 35.533 60.007 42.752 10.701 3.226 21.914 4.864 33.229 4.864 52.787 0 97.382-35.738 110.848-84.275a122.88 122.88 0 0 0 3.072-14.695l0.154-1.126c0.256-1.997 0.46-4.045 0.614-6.042l0.154-1.74c0.153-2.407 0.256-4.813 0.256-7.22 0-63.436-51.61-115.097-115.098-115.097-2.714 0-5.427 0.102-8.09 0.307-0.46 0.051-0.972 0.051-1.433 0.102-31.847 2.714-60.98 18.688-80.538 43.213l-0.665 0.82c-1.639 2.099-3.226 4.249-4.71 6.45-0.103 0.154-0.206 0.359-0.36 0.513a141.173 141.173 0 0 0-3.686 5.888c-0.358 0.665-0.768 1.28-1.126 1.945a125.628 125.628 0 0 0-3.328 6.4 28.993 28.993 0 0 0-0.82 1.843c-0.87 1.895-1.689 3.79-2.406 5.735-5.068 13.005-7.936 27.085-7.936 41.881 0 11.316-9.164 20.48-20.48 20.48s-20.48-9.164-20.48-20.48c0-11.93 1.383-23.552 3.943-34.713l-236.032-77.67c-8.039-2.663-13.722-9.217-15.411-17.05-9.012-8.55-14.695-20.583-14.695-33.946v-86.323c0-11.315 9.165-20.48 20.48-20.48s20.48 9.165 20.48 20.48v86.272a5.834 5.834 0 0 0 5.837 5.837h409.6c5.478 0 9.882-4.455 9.882-9.882v-125.85c0-20.428 8.038-39.526 22.579-53.81 11.878-11.674 26.982-18.893 43.213-20.941l1.177-0.154c1.741-0.205 3.533-0.307 5.325-0.358 0.563 0 1.126-0.103 1.74-0.103h1.434c0.256 0 0.461 0.051 0.717 0.051h0.666c0.768 0 1.536 0.103 2.304 0.154 1.587 0.102 3.174 0.154 4.761 0.358a19.239 19.239 0 0 1 1.69 0.256c16.026 2.15 30.925 9.268 42.65 20.839 13.772 13.517 21.606 31.334 22.425 50.483h169.575v-130.816h-79.156c-30.668 0-55.603-24.934-55.603-55.603v-43.571c0-7.578-3.02-14.541-8.55-19.764a27.044 27.044 0 0 0-20.327-7.27c-13.875 0.922-25.19 13.722-25.19 28.62v41.934c0 30.668-24.934 55.603-55.603 55.603H610.97c-30.67 0-55.604-24.935-55.604-55.603v-140.954c0-0.563-0.153-1.075-0.153-1.587-0.103-1.536-0.256-3.123-0.615-4.557-0.05-0.205-0.153-0.41-0.204-0.666-0.359-1.484-0.82-2.918-1.434-4.3-0.256-0.615-0.666-1.178-0.973-1.792-0.512-0.922-0.921-1.844-1.536-2.714a26.686 26.686 0 0 0-3.584-4.096c-0.153-0.154-0.358-0.256-0.512-0.41a25.408 25.408 0 0 0-3.789-2.867c-0.358-0.205-0.716-0.358-1.075-0.563-1.229-0.666-2.457-1.28-3.737-1.792-0.461-0.154-0.922-0.256-1.332-0.41-1.228-0.41-2.508-0.716-3.788-0.921-0.615-0.103-1.28-0.154-1.895-0.205a36.188 36.188 0 0 0-3.328-0.154c-0.819 0.052-1.638 0.154-2.457 0.256-1.024 0.154-2.048 0.256-3.072 0.512l-1.024 0.308c-11.162 3.481-19.559 14.694-19.559 27.494v54.323c0 11.315-9.165 20.48-20.48 20.48s-20.48-9.165-20.48-20.48v-37.069H144.077c-7.731 0-13.978 6.298-13.978 13.978v171.52c0 11.315-9.165 20.48-20.48 20.48s-20.48-9.165-20.48-20.48v-171.52c0-30.31 24.679-54.938 54.938-54.938h319.795c8.602-25.446 31.693-43.827 59.494-45.772 0.103 0 0.256-0.052 0.359-0.052 1.382-0.102 2.713-0.102 4.096-0.153h0.973a64.37 64.37 0 0 1 5.478 0.256c0.768 0.051 1.485 0.153 2.253 0.256 1.229 0.153 2.509 0.307 3.686 0.512l2.304 0.46a75.474 75.474 0 0 1 3.635 0.871c0.666 0.205 1.332 0.358 1.997 0.563 1.434 0.461 2.867 0.922 4.301 1.485 0.358 0.154 0.768 0.256 1.126 0.41a67.414 67.414 0 0 1 39.015 41.113h269.056c30.31 0 54.937 24.679 54.937 54.938v454.4zM710.861 627.968c5.017 16.026 17.664 28.672 33.69 33.69-1.28-4.199-2.51-8.5-3.533-13.005a20.526 20.526 0 0 1 19.968-25.19 20.48 20.48 0 0 1 19.916 15.82c1.434 6.195 3.277 11.879 5.223 17.255a51.159 51.159 0 0 0 24.832-43.572v-0.358c0-1.229-0.103-2.458-0.205-3.635-0.051-0.563-0.051-1.127-0.102-1.639-0.103-1.177-0.308-2.304-0.512-3.481-0.103-0.512-0.154-1.075-0.256-1.587a63.13 63.13 0 0 0-0.87-3.328c-0.154-0.512-0.257-1.024-0.41-1.536-0.359-1.076-0.768-2.15-1.178-3.226-0.205-0.46-0.358-0.973-0.563-1.434a55.117 55.117 0 0 0-1.485-3.02c-0.256-0.461-0.46-0.973-0.717-1.434-0.512-0.973-1.126-1.894-1.74-2.816-0.308-0.46-0.564-0.922-0.871-1.382-0.614-0.87-1.28-1.741-1.946-2.612-0.358-0.46-0.665-0.921-1.024-1.33a30.8 30.8 0 0 0-2.15-2.356c-0.41-0.41-0.768-0.87-1.178-1.28-0.716-0.717-1.536-1.382-2.304-2.1-0.46-0.409-0.87-0.818-1.33-1.228a41.896 41.896 0 0 0-2.407-1.792c-0.512-0.358-0.973-0.768-1.536-1.126-0.82-0.564-1.69-1.024-2.509-1.536-0.563-0.359-1.126-0.717-1.69-1.024-0.87-0.461-1.74-0.87-2.662-1.28-0.614-0.308-1.178-0.615-1.792-0.87-0.922-0.36-1.843-0.666-2.765-1.025-0.665-0.205-1.28-0.512-1.894-0.717-0.973-0.307-1.946-0.512-2.919-0.768-0.665-0.153-1.28-0.358-1.945-0.512-1.075-0.204-2.15-0.358-3.226-0.512-0.614-0.102-1.229-0.204-1.843-0.256a57.54 57.54 0 0 0-5.222-0.256c-28.212 0-51.2 22.99-51.2 51.2a53.414 53.414 0 0 0 2.355 15.258z m99.891-91.904c0.46 0.307 0.87 0.614 1.331 0.922 1.895 1.33 3.738 2.662 5.53 4.147 0.358 0.307 0.717 0.563 1.075 0.819 1.997 1.69 3.942 3.43 5.786 5.274l1.177 1.177c1.639 1.639 3.175 3.38 4.66 5.171l0.767 0.922a83.96 83.96 0 0 1 4.71 6.298c0.308 0.46 0.615 0.921 0.922 1.433l1.536 2.304 20.48-32.051h-53.862a69.451 69.451 0 0 1 5.888 3.584zM703.795 685.926c-0.665-0.512-1.28-1.075-1.945-1.587-0.359-0.307-0.768-0.614-1.127-0.921-1.945-1.639-3.84-3.328-5.632-5.12-0.358-0.359-0.665-0.717-1.024-1.024-1.843-1.895-3.635-3.79-5.273-5.837a2.84 2.84 0 0 1-0.308-0.41c-1.638-1.997-3.123-4.045-4.608-6.144l-0.716-1.024a87.045 87.045 0 0 1-4.71-7.936 89.356 89.356 0 0 1-3.38-7.065c-0.154-0.308-0.256-0.666-0.41-0.973a109.95 109.95 0 0 1-2.662-7.22c-0.102-0.255-0.154-0.511-0.256-0.767a101.97 101.97 0 0 1-2.304-9.268 102.296 102.296 0 0 1-1.229-7.936c-0.051-0.46-0.102-0.921-0.102-1.433a93.77 93.77 0 0 1-0.41-8.55c0-2.817 0.154-5.633 0.41-8.397 0.051-0.717 0.153-1.434 0.205-2.15 0.307-2.56 0.665-5.07 1.177-7.527 0.051-0.205 0.051-0.41 0.103-0.615a103.235 103.235 0 0 1 2.61-9.83 91.859 91.859 0 0 1 2.407-6.605c0.154-0.307 0.256-0.665 0.41-1.024 1.024-2.406 2.201-4.761 3.43-7.065 0.307-0.615 0.666-1.178 0.973-1.741 1.075-1.946 2.253-3.84 3.482-5.735 0.256-0.41 0.512-0.768 0.768-1.177a93.165 93.165 0 0 1 4.659-6.195c0.41-0.512 0.819-0.973 1.229-1.485a97.061 97.061 0 0 1 4.352-4.813c0.358-0.41 0.716-0.768 1.126-1.178a111.973 111.973 0 0 1 5.734-5.222c0.461-0.41 0.973-0.768 1.434-1.126 1.69-1.332 3.43-2.663 5.171-3.892 0.512-0.358 0.973-0.716 1.485-1.024a115.538 115.538 0 0 1 5.94-3.686c-0.666 0-1.28-0.102-1.946-0.154-0.82-0.05-1.639-0.102-2.458-0.204-0.87-0.103-1.74-0.256-2.56-0.41-0.82-0.154-1.587-0.256-2.406-0.41-0.82-0.204-1.639-0.41-2.51-0.665-0.767-0.205-1.586-0.41-2.303-0.666-0.82-0.256-1.587-0.563-2.355-0.87-0.768-0.307-1.485-0.563-2.253-0.87-0.768-0.359-1.536-0.717-2.253-1.076-0.717-0.358-1.434-0.665-2.1-1.075-0.716-0.41-1.433-0.87-2.15-1.28-0.665-0.41-1.33-0.82-1.996-1.28s-1.332-0.973-1.997-1.485c-0.615-0.46-1.229-0.921-1.843-1.433-0.666-0.564-1.23-1.127-1.844-1.69-0.563-0.512-1.126-1.024-1.69-1.587-0.614-0.615-1.177-1.28-1.74-1.895l-1.536-1.69c-0.563-0.665-1.024-1.382-1.536-2.047-0.46-0.615-0.922-1.178-1.331-1.843-0.461-0.717-0.922-1.485-1.383-2.253-0.358-0.666-0.768-1.28-1.126-1.946-0.41-0.768-0.768-1.638-1.178-2.457-0.307-0.666-0.665-1.28-0.921-1.997-0.359-0.87-0.666-1.741-0.973-2.663-0.256-0.665-0.512-1.33-0.717-1.996-0.307-0.973-0.512-1.946-0.768-2.919-0.153-0.665-0.358-1.28-0.46-1.945-0.205-1.076-0.359-2.202-0.513-3.328-0.05-0.564-0.204-1.127-0.256-1.69a57.327 57.327 0 0 1-0.256-5.171v-124.007c0-18.278-13.107-33.587-29.9-35.942-0.205-0.051-0.461-0.051-0.666-0.102-0.717-0.103-1.382-0.103-2.1-0.154-0.46 0-0.92-0.051-1.382-0.051a38.451 38.451 0 0 0-9.472 1.331c-0.358 0.102-0.716 0.205-1.024 0.307a22.474 22.474 0 0 1-0.972 0.307c-13.568 4.916-23.348 18.484-23.348 34.304V481.536c0 1.638-0.102 3.277-0.256 4.864-0.05 0.512-0.153 1.024-0.204 1.587-0.154 1.075-0.308 2.15-0.512 3.175-0.103 0.614-0.256 1.177-0.41 1.792-0.205 0.972-0.46 1.894-0.717 2.816a18.33 18.33 0 0 1-0.563 1.792 40.798 40.798 0 0 1-0.973 2.662c-0.256 0.563-0.46 1.178-0.717 1.74-0.41 0.871-0.819 1.793-1.28 2.612l-0.768 1.536c-0.563 0.973-1.126 1.946-1.74 2.867-0.205 0.359-0.41 0.717-0.666 1.024-0.82 1.229-1.74 2.407-2.662 3.584l1.228 0.768c2.048 1.229 4.096 2.458 6.093 3.789 0.563 0.358 1.178 0.717 1.741 1.126 2.509 1.69 4.966 3.43 7.373 5.223 0.563 0.41 1.126 0.87 1.69 1.331a148.726 148.726 0 0 1 5.478 4.454l2.099 1.792a165.647 165.647 0 0 1 5.427 5.018c0.41 0.41 0.87 0.82 1.28 1.229 2.15 2.099 4.199 4.3 6.195 6.553 0.512 0.564 0.973 1.127 1.485 1.69 1.536 1.74 3.021 3.533 4.506 5.376l1.69 2.15a174.758 174.758 0 0 1 4.556 6.196c0.256 0.41 0.563 0.768 0.82 1.177a149.297 149.297 0 0 1 4.863 7.68c0.41 0.666 0.768 1.383 1.178 2.048a141.48 141.48 0 0 1 3.38 6.093c0.409 0.82 0.818 1.587 1.228 2.406a120.837 120.837 0 0 1 3.43 7.373c0.154 0.359 0.308 0.666 0.461 0.973a173.56 173.56 0 0 1 3.328 8.55c0.256 0.768 0.563 1.588 0.82 2.407 0.767 2.201 1.433 4.454 2.099 6.707a145.285 145.285 0 0 1 2.816 11.11l0.153 0.666a184.152 184.152 0 0 1 1.587 9.267c0.103 0.87 0.205 1.792 0.359 2.663 0.307 2.355 0.563 4.71 0.717 7.116 0.05 0.922 0.153 1.895 0.204 2.816a140.221 140.221 0 0 1-0.102 20.122l-0.154 2.253c-0.256 3.481-0.665 6.912-1.126 10.291l41.78 13.926zM369.51 575.898c0.103-0.205 0.256-0.359 0.359-0.564a151.474 151.474 0 0 1 6.195-10.444l1.075-1.69a159.251 159.251 0 0 1 7.322-10.138c0.256-0.307 0.46-0.614 0.717-0.921a161.454 161.454 0 0 1 18.636-19.712H237.312l132.198 43.469z m336.743-182.58v88.218c0 5.478 4.454 9.882 9.881 9.882h159.488v-98.1h-169.37zM861.645 43.93h-265.37V165.94a14.643 14.643 0 0 0 14.643 14.642h20.276a14.643 14.643 0 0 0 14.643-14.643v-41.933c0-36.659 27.904-67.174 63.539-69.478 18.995-1.229 37.12 5.222 50.995 18.227 13.67 12.8 21.504 30.925 21.504 49.613v43.571a14.643 14.643 0 0 0 14.643 14.643h79.156v-122.675a14.075 14.075 0 0 0-14.03-13.977zM109.62 272.845c11.314 0 20.48 9.165 20.48 20.48v23.757c0 11.315-9.166 20.48-20.48 20.48s-20.48-9.165-20.48-20.48v-23.757c0-11.315 9.164-20.48 20.48-20.48z m371.097-137.78c11.315 0 20.48 9.165 20.48 20.48V165.94c0 30.669-24.935 55.603-55.603 55.603H183.706c-11.316 0-20.48-9.164-20.48-20.48s9.164-20.48 20.48-20.48h261.888a14.643 14.643 0 0 0 14.643-14.643v-10.393c0-11.316 9.165-20.48 20.48-20.48zM250.47 393.319h-67.174c-11.315 0-20.48-9.164-20.48-20.48s9.165-20.48 20.48-20.48h67.174c3.533 0 6.4-2.867 6.4-6.4v-2.048c0-22.374 8.807-43.315 24.781-59.033 15.616-15.309 36.096-23.706 57.959-23.706h1.536c44.748 0.82 81.152 38.861 81.152 84.736 0 3.533 2.867 6.4 6.4 6.4h78.49c11.314 0 20.48 9.165 20.48 20.48s-9.166 20.48-20.48 20.48h-78.542c-26.112 0-47.36-21.248-47.36-47.36 0-23.757-18.38-43.417-40.96-43.827-11.264-0.205-21.964 4.045-30.054 11.93s-12.493 18.483-12.493 29.798v2.048c0 26.266-21.248 47.462-47.309 47.462z m228.916 220.468a20.475 20.475 0 0 1 20.326 20.633c-0.256 29.184 18.842 36.147 22.784 37.274a20.49 20.49 0 0 1 14.797 24.678 20.408 20.408 0 0 1-24.73 15.053c-18.79-4.557-54.22-26.573-53.811-77.312 0.102-11.264 9.267-20.326 20.48-20.326h0.154z"  horiz-adv-x="1024" />
      
      <glyph glyph-name="keyboard" unicode="&#58999;" d="M128 768C57.4 768 0 710.6 0 640v-512c0-70.6 57.4-128 128-128h896c70.6 0 128 57.4 128 128V640c0 70.6-57.4 128-128 128H128z m32-128h64c17.6 0 32-14.4 32-32v-64c0-17.6-14.4-32-32-32H160c-17.6 0-32 14.4-32 32v64c0 17.6 14.4 32 32 32zM128 416c0 17.6 14.4 32 32 32h64c17.6 0 32-14.4 32-32v-64c0-17.6-14.4-32-32-32H160c-17.6 0-32 14.4-32 32v64z m32-160h64c17.6 0 32-14.4 32-32v-64c0-17.6-14.4-32-32-32H160c-17.6 0-32 14.4-32 32v64c0 17.6 14.4 32 32 32z m160 352c0 17.6 14.4 32 32 32h64c17.6 0 32-14.4 32-32v-64c0-17.6-14.4-32-32-32h-64c-17.6 0-32 14.4-32 32v64z m32-160h64c17.6 0 32-14.4 32-32v-64c0-17.6-14.4-32-32-32h-64c-17.6 0-32 14.4-32 32v64c0 17.6 14.4 32 32 32z m-32-224c0 17.6 14.4 32 32 32h448c17.6 0 32-14.4 32-32v-64c0-17.6-14.4-32-32-32H352c-17.6 0-32 14.4-32 32v64z m224 416h64c17.6 0 32-14.4 32-32v-64c0-17.6-14.4-32-32-32h-64c-17.6 0-32 14.4-32 32v64c0 17.6 14.4 32 32 32z m-32-224c0 17.6 14.4 32 32 32h64c17.6 0 32-14.4 32-32v-64c0-17.6-14.4-32-32-32h-64c-17.6 0-32 14.4-32 32v64z m224 224h64c17.6 0 32-14.4 32-32v-64c0-17.6-14.4-32-32-32h-64c-17.6 0-32 14.4-32 32v64c0 17.6 14.4 32 32 32z m-32-224c0 17.6 14.4 32 32 32h64c17.6 0 32-14.4 32-32v-64c0-17.6-14.4-32-32-32h-64c-17.6 0-32 14.4-32 32v64z m224 224h64c17.6 0 32-14.4 32-32v-64c0-17.6-14.4-32-32-32h-64c-17.6 0-32 14.4-32 32v64c0 17.6 14.4 32 32 32z m-32-224c0 17.6 14.4 32 32 32h64c17.6 0 32-14.4 32-32v-64c0-17.6-14.4-32-32-32h-64c-17.6 0-32 14.4-32 32v64z m32-160h64c17.6 0 32-14.4 32-32v-64c0-17.6-14.4-32-32-32h-64c-17.6 0-32 14.4-32 32v64c0 17.6 14.4 32 32 32z"  horiz-adv-x="1152" />
      
      <glyph glyph-name="tiktok" unicode="&#59000;" d="M960 476.18a420.12 420.12 0 0 0-245.54 78.5v-357.44A325.1 325.1 0 1 0 434 519.38v-179.78a149.24 149.24 0 1 1 104.46-142.36V896h176a242.36 242.36 0 0 1 3.72-44.34A244.36 244.36 0 0 1 826 691.22a242.86 242.86 0 0 1 134-40.28z"  horiz-adv-x="1024" />
      
      <glyph glyph-name="creative-commons-nd-line" unicode="&#59001;" d="M341.333333 512h341.333334v-85.333333H341.333333V512z m0-256v85.333333h341.333334v-85.333333H341.333333z m-256 128C85.333333 619.648 276.352 810.666667 512 810.666667s426.666667-191.018667 426.666667-426.666667-191.018667-426.666667-426.666667-426.666667S85.333333 148.352 85.333333 384z m426.666667 341.333333a341.333333 341.333333 0 1 1 0-682.666666 341.333333 341.333333 0 0 1 0 682.666666z"  horiz-adv-x="1024" />
      
      <glyph glyph-name="creative-commons-by-line" unicode="&#59002;" d="M597.333333 597.333333a85.333333 85.333333 0 1 0-170.666666 0 85.333333 85.333333 0 0 0 170.666666 0z m42.666667-170.666666a42.666667 42.666667 0 0 1-42.666667 42.666666h-170.666666a42.666667 42.666667 0 0 1-42.666667-42.666666v-170.666667h64v-170.666667h128v170.666667H640v170.666667z m-128 384C276.352 810.666667 85.333333 619.648 85.333333 384s191.018667-426.666667 426.666667-426.666667 426.666667 191.018667 426.666667 426.666667S747.648 810.666667 512 810.666667zM170.666667 384a341.333333 341.333333 0 1 0 682.666666 0 341.333333 341.333333 0 0 0-682.666666 0z"  horiz-adv-x="1024" />
      
      <glyph glyph-name="creative-commons-nc-line" unicode="&#59003;" d="M512 810.666667C276.352 810.666667 85.333333 619.648 85.333333 384s191.018667-426.666667 426.666667-426.666667 426.666667 191.018667 426.666667 426.666667S747.648 810.666667 512 810.666667zM302.677333 653.653333A341.333333 341.333333 0 0 0 781.653333 174.72l-91.904 91.904A106.666667 106.666667 0 0 1 597.333333 426.666667h-170.666666a21.333333 21.333333 0 0 0 0 42.709333h234.666666V554.666667H554.666667V640h-85.333334v-85.333333h-42.666666c-7.765333 0-15.317333-0.853333-22.613334-2.389334L302.677333 653.653333zM242.346667 593.322667L334.293333 501.333333A106.666667 106.666667 0 0 1 426.666667 341.333333h170.666666a21.333333 21.333333 0 0 0 0-42.709333H362.666667v-85.333333H469.333333v-85.333334h85.333334v85.333334h42.666666c7.765333 0 15.317333 0.853333 22.613334 2.389333l101.376-101.376A341.333333 341.333333 0 0 0 242.346667 593.28z"  horiz-adv-x="1024" />
      
      <glyph glyph-name="copyright-line" unicode="&#59004;" d="M694.954667 493.738667A213.290667 213.290667 0 0 1 298.666667 384a213.290667 213.290667 0 0 1 396.288-109.738667l-73.173334 43.861334A128 128 0 1 0 512 512c46.634667 0 87.466667-24.917333 109.781333-62.165333l73.173334 43.946666zM938.666667 384c0 235.52-191.146667 426.666667-426.666667 426.666667S85.333333 619.52 85.333333 384s191.146667-426.666667 426.666667-426.666667 426.666667 191.146667 426.666667 426.666667zM170.666667 384c0 188.586667 152.746667 341.333333 341.333333 341.333333s341.333333-152.746667 341.333333-341.333333-152.746667-341.333333-341.333333-341.333333-341.333333 152.746667-341.333333 341.333333z"  horiz-adv-x="1024" />
      
      <glyph glyph-name="font" unicode="&#59005;" d="M572 790.4C562.6 815.4 538.6 832 512 832s-50.6-16.6-60-41.6L179.6 64H128c-35.4 0-64-28.6-64-64s28.6-64 64-64h192c35.4 0 64 28.6 64 64s-28.6 64-64 64h-3.6l36 96h319.2l36-96H704c-35.4 0-64-28.6-64-64s28.6-64 64-64h192c35.4 0 64 28.6 64 64s-28.6 64-64 64h-51.6L572 790.4zM623.6 288H400.4L512 585.8 623.6 288z"  horiz-adv-x="1024" />
      
      <glyph glyph-name="stopwatch" unicode="&#59006;" d="M416 896c-35.4 0-64-28.6-64-64s28.6-64 64-64h32v-68.8C248.6 668.4 96 496 96 288c0-229.8 186.2-416 416-416s416 186.2 416 416c0 83.6-24.6 161.4-67 226.4l48.2 48.2c25 25 25 65.6 0 90.6s-65.6 25-90.6 0L775.4 610c-56.2 46-124.4 77.6-199.4 89.2V768h32c35.4 0 64 28.6 64 64S643.4 896 608 896h-192z m144-384v-256c0-26.6-21.4-48-48-48s-48 21.4-48 48V512c0 26.6 21.4 48 48 48s48-21.4 48-48z"  horiz-adv-x="1024" />
      
      <glyph glyph-name="file-lines" unicode="&#59007;" d="M256 896C185.4 896 128 838.6 128 768v-768c0-70.6 57.4-128 128-128h512c70.6 0 128 57.4 128 128V576H640c-35.4 0-64 28.6-64 64V896H256z m384 0v-256h256L640 896zM352 384h320c17.6 0 32-14.4 32-32s-14.4-32-32-32H352c-17.6 0-32 14.4-32 32s14.4 32 32 32z m0-128h320c17.6 0 32-14.4 32-32s-14.4-32-32-32H352c-17.6 0-32 14.4-32 32s14.4 32 32 32z m0-128h320c17.6 0 32-14.4 32-32s-14.4-32-32-32H352c-17.6 0-32 14.4-32 32s14.4 32 32 32z"  horiz-adv-x="1024" />
      
      <glyph glyph-name="square-poll-vertical" unicode="&#59008;" d="M192 832C121.4 832 64 774.6 64 704v-640c0-70.6 57.4-128 128-128h640c70.6 0 128 57.4 128 128V704c0 70.6-57.4 128-128 128H192z m128-384c35.4 0 64-28.6 64-64v-192c0-35.4-28.6-64-64-64s-64 28.6-64 64v192c0 35.4 28.6 64 64 64z m128 128c0 35.4 28.6 64 64 64s64-28.6 64-64v-384c0-35.4-28.6-64-64-64s-64 28.6-64 64V576z m256-256c35.4 0 64-28.6 64-64v-64c0-35.4-28.6-64-64-64s-64 28.6-64 64v64c0 35.4 28.6 64 64 64z"  horiz-adv-x="1024" />
      
      <glyph glyph-name="universal-access" unicode="&#59009;" d="M0 384a512 512 0 1 0 1024 0 512 512 0 1 0-1024 0z m323 172.2c-24.4 10.4-52.6-0.8-63-25.2s0.8-52.6 25.2-63l23.8-10.2c34.6-14.8 70.4-25.8 107.2-32.6v-100.2c0-8.6-1.4-17.2-4.2-25.2l-57.4-172.2c-8.4-25.2 5.2-52.4 30.4-60.8s52.4 5.2 60.8 30.4l48.8 146.4c2.6 7.6 9.6 12.8 17.6 12.8s15.2-5.2 17.6-12.8l48.8-146.4c8.4-25.2 35.6-38.8 60.8-30.4s38.8 35.6 30.4 60.8l-57.4 172.2c-2.8 8.2-4.2 16.6-4.2 25.2v100c36.8 7 72.6 17.8 107.2 32.6l23.8 10.2c24.4 10.4 35.6 38.6 25.2 63s-38.6 35.6-63 25.2l-24-10c-52.2-22.4-108.4-34-165.4-34s-113 11.6-165.4 34l-23.8 10.2zM512 576a80 80 0 1 1 0 160 80 80 0 1 1 0-160z"  horiz-adv-x="1024" />
      
      <glyph glyph-name="hourglass-start" unicode="&#59010;" d="M191.9 896C156.5 896 127.9 867.4 127.9 832s28.6-64 64-64v-22c0-84.8 33.8-166.2 93.8-226.2l135.6-135.8-135.6-135.8C225.7 188.2 191.9 106.8 191.9 22v-22c-35.4 0-64-28.6-64-64s28.6-64 64-64h640c35.4 0 64 28.6 64 64s-28.6 64-64 64v22c0 84.8-33.8 166.2-93.8 226.2L602.5 384l135.8 135.8c60 60 93.8 141.4 93.8 226.2V768c35.4 0 64 28.6 64 64s-28.6 64-64 64H191.9z m512-874v-22H319.9v22c0 51 20.2 99.8 56.2 135.8l135.8 135.6 135.8-135.8c36-36 56.2-84.8 56.2-135.8z"  horiz-adv-x="1024" />
      
      <glyph glyph-name="anzhiyu" unicode="&#59011;" d="M1074.548442-14.035803c-25.231334 28.890841-60.927573 77.555857-57.563395 116.577753 124.834113 160.645915 143.29857 413.665478 44.273609 594.175451a30.816897 30.816897 0 0 1-35.619197 14.638026C889.557179 672.205127 774.956844 569.713265 711.384154 444.018847c-12.737651-25.821991-25.411099-52.863818-56.035391-58.526423-36.248375-6.689835-99.872426-57.563395-124.551624-94.415268l0.089882-0.218286c-10.811595-10.439224-2.568075-30.547249 12.737651-30.007953 3.09453 0.256807 100.154915 9.078144 103.339327 9.347792 31.895488-272.729537-371.47201-305.254203-383.15675-30.341803-2.105821 108.719444 81.08696 127.119699 51.87511 169.968026-27.683846 38.957694-75.450036-12.288238-103.198083-25.398259-69.928675-52.645532-108.822167-0.077042-109.823716 78.68581-5.983614 48.074359 3.659506 87.532827-21.032532 125.257845C66.437865 609.441381 33.412424 606.513776 23.140125 582.59216c-152.697724-508.055065 485.057956-930.323593 893.998177-584.635054 39.689595-19.851218 96.842098-41.423045 141.346833-41.191919 15.896383-3.133051 26.964785 17.565631 16.037627 29.160489zM994.013619 385.209936c-58.988677-11.466454-76.438744 76.682712-18.156289 88.893906 58.821752 11.286688 76.207618-76.515787 18.156289-88.893906zM122.177928 661.355012c68.901445-70.622055-8.140797-236.41696 59.848981-234.234097a26.707977 26.707977 0 0 1 21.404903 14.715068c38.431238 46.661918 77.504495 68.439192 141.411035 77.209167 27.195911 3.10737 50.077457-33.616098 98.049094-19.709973 59.669216 17.295983 46.135463 88.598578 16.461359 104.546322-40.177529 30.662812-128.930192 28.685395-165.640821 0 87.725433 80.637547 251.594282 96.533929 286.122047-43.99112 20.300631-73.934872 95.391136-78.326279 120.699512-5.277394 30.675653 161.17237-168.02913 289.319299-313.073991 237.546913 35.426591 17.976523 76.015012 23.112673 111.133435 40.88375 22.984269 14.689387 27.632484 47.393819 0.166924 61.235742C381.386551 911.524012 257.130255 791.86457 217.132491 688.409679c-17.000655 42.732764-72.792078 92.617615-122.407282 87.584189-25.963236-5.521361-35.73476-37.391168-17.783918-56.754452 17.154739-20.737203 30.162038-35.888844 45.236637-57.884404zM587.88544 834.109399a3.351338 3.351338 0 0 1 0.616338 0.064202c86.621161 9.96413 97.959211-51.040485 150.938592-42.668562 49.551002 9.720163 45.737411 75.321632-1.284037 86.454236-47.663467 14.843472-114.651696-2.259906-153.044414-37.968985a3.608145 3.608145 0 0 1 2.773521-5.880891z"  horiz-adv-x="1124" />
      
      <glyph glyph-name="arrow-right" unicode="&#58880;" d="M128 384a64 64 0 0 0 64 64h506.88L530.773333 616.106667a64 64 0 0 0 90.453334 90.453333l277.333333-277.333333a64 64 0 0 0 0-90.453334L621.226667 61.44a64 64 0 0 0-90.453334 90.453333l168.106667 168.106667H192A64 64 0 0 0 128 384z"  horiz-adv-x="1024" />
      
      <glyph glyph-name="arrow-left" unicode="&#58881;" d="M896 384a64 64 0 0 1-64 64H325.12l168.106667 168.106667a64 64 0 0 1-90.453334 90.453333L125.44 429.226667a64 64 0 0 1 0-90.453334l277.333333-277.333333a64 64 0 0 1 90.453334 90.453333L325.12 320h506.88A64 64 0 0 1 896 384z"  horiz-adv-x="1024" />
      
      <glyph glyph-name="dice" unicode="&#58882;" d="M549.8 827.4c-56.2 56.2-147.4 56.2-203.6 0L68.6 549.8c-56.2-56.2-56.2-147.4 0-203.6l277.6-277.6c56.2-56.2 147.4-56.2 203.6 0l277.6 277.6c56.2 56.2 56.2 147.4 0 203.6L549.8 827.4zM400 448a48 48 0 1 0 96 0 48 48 0 1 0-96 0zM192 496a48 48 0 1 0 0-96 48 48 0 1 0 0 96z m256-352a48 48 0 1 0 0 96 48 48 0 1 0 0-96z m256 352a48 48 0 1 0 0-96 48 48 0 1 0 0 96z m-256 160a48 48 0 1 0 0 96 48 48 0 1 0 0-96z m192-656c0-70.6 57.4-128 128-128h384c70.6 0 128 57.4 128 128V384c0 70.6-57.4 128-128 128H923.4c23.2-72 6.2-154-50.8-211L640 68.4V0z m320 240a48 48 0 1 0 0-96 48 48 0 1 0 0 96z"  horiz-adv-x="1280" />
      
      <glyph glyph-name="copy" unicode="&#58883;" d="M544 896h248.2C817.6 896 842 885.8 860 867.8L995.8 732c18-18 28.2-42.4 28.2-67.8V224c0-53-43-96-96-96H544c-53 0-96 43-96 96V800c0 53 43 96 96 96zM96 640h288v-128H128v-512h384v64h128v-96c0-53-43-96-96-96H96c-53 0-96 43-96 96V544c0 53 43 96 96 96z"  horiz-adv-x="1024" />
      
      <glyph glyph-name="cube" unicode="&#58884;" d="M469 884.6c27.8 10 58.2 10 86.2 0l384-137.2c50.8-18.2 84.8-66.4 84.8-120.6v-485.6c0-54-34-102.4-85-120.6l-384-137.2c-27.8-10-58.2-10-86.2 0l-384 137.2C34 38.8 0 87 0 141.2V626.8c0 54 34 102.4 85 120.6l384 137.2zM512 764L164.6 640 512 516l347.4 124L512 764z m64-737.2l320 114.2v376l-320-114.2v-376z"  horiz-adv-x="1024" />
      
      <glyph glyph-name="circle-arrow-right" unicode="&#58885;" d="M0 384a512 512 0 1 1 1024 0 512 512 0 1 1-1024 0z m562-258c-18.8-18.8-49.2-18.8-67.8 0s-18.8 49.2 0 67.8l142 142L272 336c-26.6 0-48 21.4-48 48s21.4 48 48 48h364.2l-142 142c-18.8 18.8-18.8 49.2 0 67.8s49.2 18.8 67.8 0L786 418c18.8-18.8 18.8-49.2 0-67.8L562 126z"  horiz-adv-x="1024" />
      
      <glyph glyph-name="clock" unicode="&#58886;" d="M512 896a512 512 0 1 0 0-1024 512 512 0 1 0 0 1024z m-48-240v-272c0-16 8-31 21.4-40l192-128c22-14.8 51.8-8.8 66.6 13.4s8.8 51.8-13.4 66.6L560 409.6V656c0 26.6-21.4 48-48 48s-48-21.4-48-48z"  horiz-adv-x="1024" />
      
      <glyph glyph-name="book" unicode="&#58887;" d="M256 896C150 896 64 810 64 704v-640c0-106 86-192 192-192h640c35.4 0 64 28.6 64 64s-28.6 64-64 64v128c35.4 0 64 28.6 64 64V832c0 35.4-28.6 64-64 64H256z m0-768h512v-128H256c-35.4 0-64 28.6-64 64s28.6 64 64 64z m64 480c0 17.6 14.4 32 32 32h384c17.6 0 32-14.4 32-32s-14.4-32-32-32H352c-17.6 0-32 14.4-32 32z m32-96h384c17.6 0 32-14.4 32-32s-14.4-32-32-32H352c-17.6 0-32 14.4-32 32s14.4 32 32 32z"  horiz-adv-x="1024" />
      
      <glyph glyph-name="calendar-alt" unicode="&#58888;" d="M512 85.333333a42.666667 42.666667 0 1 1-42.666667 42.666667 42.666667 42.666667 0 0 1 42.666667-42.666667z m213.333333 0a42.666667 42.666667 0 1 1-42.666666 42.666667 42.666667 42.666667 0 0 1 42.666666-42.666667z m0 170.666667a42.666667 42.666667 0 1 1-42.666666 42.666667 42.666667 42.666667 0 0 1 42.666666-42.666667z m-213.333333 0a42.666667 42.666667 0 1 1-42.666667 42.666667 42.666667 42.666667 0 0 1 42.666667-42.666667z m298.666667 512h-42.666667V810.666667a42.666667 42.666667 0 0 1-85.333333 0v-42.666667H341.333333V810.666667a42.666667 42.666667 0 0 1-85.333333 0v-42.666667H213.333333a128 128 0 0 1-128-128v-597.333333a128 128 0 0 1 128-128h597.333334a128 128 0 0 1 128 128V640a128 128 0 0 1-128 128z m42.666666-725.333333a42.666667 42.666667 0 0 0-42.666666-42.666667H213.333333a42.666667 42.666667 0 0 0-42.666666 42.666667v384h682.666666z m0 469.333333H170.666667V640a42.666667 42.666667 0 0 0 42.666666 42.666667h42.666667v-42.666667a42.666667 42.666667 0 0 1 85.333333 0V682.666667h341.333334v-42.666667a42.666667 42.666667 0 0 1 85.333333 0V682.666667h42.666667a42.666667 42.666667 0 0 0 42.666666-42.666667zM298.666667 256a42.666667 42.666667 0 1 1-42.666667 42.666667 42.666667 42.666667 0 0 1 42.666667-42.666667z m0-170.666667a42.666667 42.666667 0 1 1-42.666667 42.666667 42.666667 42.666667 0 0 1 42.666667-42.666667z"  horiz-adv-x="1024" />
      
      <glyph glyph-name="eye-outline" unicode="&#58889;" d="M512 512a128 128 0 0 0 128-128 128 128 0 0 0-128-128 128 128 0 0 0-128 128 128 128 0 0 0 128 128m0 192c213.333333 0 395.52-132.693333 469.333333-320-73.813333-187.306667-256-320-469.333333-320S116.48 196.693333 42.666667 384c73.813333 187.306667 256 320 469.333333 320M135.68 384a419.029333 419.029333 0 0 1 752.64 0 419.029333 419.029333 0 0 1-752.64 0z"  horiz-adv-x="1024" />
      
      <glyph glyph-name="circle-half-stroke" unicode="&#58890;" d="M896 384c0 212-172 384-384 384v-768c212 0 384 172 384 384zM0 384a512 512 0 1 0 1024 0 512 512 0 1 0-1024 0z"  horiz-adv-x="1024" />
      
      <glyph glyph-name="arrow-up" unicode="&#58891;" d="M512 0a64 64 0 0 1 64 64V570.88l168.106667-168.106667a64 64 0 0 1 90.453333 90.453334L557.226667 770.56a64 64 0 0 1-90.453334 0L189.44 493.226667a64 64 0 1 1 90.453333-90.453334l168.106667 168.106667v-506.88c0-35.328 28.672-64 64-64z"  horiz-adv-x="1024" />
      
      <glyph glyph-name="file-word" unicode="&#58892;" d="M224 0V768c0 17.6 14.4 32 32 32h320v-160c0-35.4 28.6-64 64-64h160v-576c0-17.6-14.4-32-32-32H256c-17.6 0-32 14.4-32 32zM256 896C185.4 896 128 838.6 128 768v-768c0-70.6 57.4-128 128-128h512c70.6 0 128 57.4 128 128V587c0 34-13.4 66.6-37.4 90.6l-181.2 181C653.4 882.6 621 896 587 896H256z m110-482.2c-7.6 25.4-34.4 39.8-59.8 32.2S266.4 411.6 274 386.2l96-320c6-20.4 24.8-34.2 46-34.2s39.8 14 46 34.2l50 166.8 50-166.8c6-20.4 24.8-34.2 46-34.2s39.8 14 46 34.2l96 320c7.6 25.4-6.8 52.2-32.2 59.8s-52.2-6.8-59.8-32.2l-50-166.8-50 166.8c-6 20.4-24.8 34.2-46 34.2s-39.8-14-46-34.2l-50-166.8-50 166.8z"  horiz-adv-x="1024" />
      
      <glyph glyph-name="fire" unicode="&#58893;" d="M512-128c212.096 0 384 128 384 352 0 96-32 256-160 384 16-96-80-128-80-128C704 640 576 864 384 896c22.848-128 32-256-128-384-80-64-128-174.656-128-288C128 0 299.904-128 512-128z m0 64c-106.048 0-192 64-192 176 0 48 16 128 80 192C392 256 448 224 448 224c-24 80 32 208 128 224-11.456-64-16-128 64-192 40-32 64-87.296 64-144C704 0 618.048-64 512-64z"  horiz-adv-x="1024" />
      
      <glyph glyph-name="dove" unicode="&#58894;" d="M321.6 703c28-34 62-61.8 99-84.4 51.8-31.6 107.4-51.8 155.4-63.2v63c-44.4 60.6-76 134.6-78.8 221.6-0.8 22.6-15 43-36.8 48.8-15.2 4-31.6 0.4-42-11.6-26.6-30.8-65.4-89.2-96.8-174.4zM640 608v-128c-121.6 10.2-370 87.6-438.6 314.4C194.8 816 175.8 832 153.2 832c-15.8 0-30.6-7.8-37.6-22C93.6 764.2 64 671.8 64 544c0-233.8 160.2-361 236.8-405.6L23.6 62.8C13.4 60 5.2 52.4 1.8 42.4s-1.6-21.2 4.6-29.6C43.4-36.4 154.6-128 320-128c7.2 0 14.4 2.4 20 7l151.2 121H640c176.8 0 320 143.2 320 320V640l59.8 89.8c2.6 4 4.2 8.8 4.2 13.6 0 13.6-11 24.6-24.6 24.6H800c-88.4 0-160-71.6-160-160z m160 32a32 32 0 1 0 0-64 32 32 0 1 0 0 64z"  horiz-adv-x="1024" />
      
      <glyph glyph-name="gear" unicode="&#58895;" d="M991.8 562.8c6.4-17.4 1-36.8-12.8-49.2l-86.6-78.8c2.2-16.6 3.4-33.6 3.4-50.8s-1.2-34.2-3.4-50.8l86.6-78.8c13.8-12.4 19.2-31.8 12.8-49.2-8.8-23.8-19.4-46.6-31.6-68.6l-9.4-16.2c-13.2-22-28-42.8-44.2-62.4-11.8-14.4-31.4-19.2-49-13.6l-111.4 35.4c-26.8-20.6-56.4-37.8-88-50.8l-25-114.2c-4-18.2-18-32.6-36.4-35.6-27.6-4.6-56-7-85-7s-57.4 2.4-85 7c-18.4 3-32.4 17.4-36.4 35.6l-25 114.2c-31.6 13-61.2 30.2-88 50.8l-111.2-35.6c-17.6-5.6-37.2-0.6-49 13.6-16.2 19.6-31 40.4-44.2 62.4l-9.4 16.2c-12.2 22-22.8 44.8-31.6 68.6-6.4 17.4-1 36.8 12.8 49.2l86.6 78.8c-2.2 16.8-3.4 33.8-3.4 51s1.2 34.2 3.4 50.8l-86.6 78.8c-13.8 12.4-19.2 31.8-12.8 49.2 8.8 23.8 19.4 46.6 31.6 68.6l9.4 16.2c13.2 22 28 42.8 44.2 62.4 11.8 14.4 31.4 19.2 49 13.6l111.4-35.4c26.8 20.6 56.4 37.8 88 50.8l25 114.2c4 18.2 18 32.6 36.4 35.6C454.6 893.6 483 896 512 896s57.4-2.4 85-7c18.4-3 32.4-17.4 36.4-35.6l25-114.2c31.6-13 61.2-30.2 88-50.8l111.4 35.4c17.6 5.6 37.2 0.6 49-13.6 16.2-19.6 31-40.4 44.2-62.4l9.4-16.2c12.2-22 22.8-44.8 31.6-68.6zM512 224a160 160 0 1 1 0 320 160 160 0 1 1 0-320z"  horiz-adv-x="1024" />
      
      <glyph glyph-name="inbox" unicode="&#58896;" d="M242 832c-58.8 0-110-40-124.2-97l-114-455.8C1.2 269 0 258.6 0 248.2V64c0-70.6 57.4-128 128-128h768c70.6 0 128 57.4 128 128v184.2c0 10.4-1.2 20.8-3.8 31l-114 455.8C892 792 840.8 832 782 832H242z m0-128h540l96-384h-102.4c-24.2 0-46.4-13.6-57.2-35.4l-28.6-57.2c-10.8-21.6-33-35.4-57.2-35.4H391.6c-24.2 0-46.4 13.6-57.2 35.4l-28.6 57.2c-10.8 21.6-33 35.4-57.2 35.4H146l96 384z"  horiz-adv-x="1024" />
      
      <glyph glyph-name="history" unicode="&#58897;" d="M307.587194 853.424665A511.992 511.992 0 1 0 39.175388 187.51507a47.99925 47.99925 0 1 0 88.638615 36.799425A415.9935 415.9935 0 1 1 161.477477 607.9885H272.00375a47.99925 47.99925 0 0 0 0-95.9985H0.008V783.98575a47.99925 47.99925 0 0 0 95.9985 0v-101.502414A511.992 511.992 0 0 0 307.587194 853.360666zM512 703.987a47.99925 47.99925 0 0 0 47.99925-47.99925v-252.15606l130.173966-130.173966a47.99925 47.99925 0 1 0-67.83894-67.83894L478.08053 350.07253l-14.07978 14.07978V655.98775A47.99925 47.99925 0 0 0 512 703.987z"  horiz-adv-x="1024" />
      
      <glyph glyph-name="magnifying-glass" unicode="&#58898;" d="M831.903143 480.060929c0-91.786555-29.795635-176.574135-79.988283-245.364058l253.162915-253.362887c24.996338-24.996338 24.996338-65.590392 0-90.58673s-65.590392-24.996338-90.58673 0L661.328129 144.11014c-68.789923-50.392618-153.577503-79.988283-245.364058-79.988283C186.197729 64.121857 0.025 250.294586 0.025 480.060929S186.197729 896 415.964071 896s415.939071-186.172729 415.939072-415.939071zM415.964071 192.10311a287.957819 287.957819 0 1 1 0 575.915637 287.957819 287.957819 0 1 1 0-575.915637z"  horiz-adv-x="1024" />
      
      <glyph glyph-name="message" unicode="&#58899;" d="M128 896C57.4 896 0 838.6 0 768v-576c0-70.6 57.4-128 128-128h192v-160c0-12.2 6.8-23.2 17.6-28.6s23.8-4.2 33.6 3L618.6 64H896c70.6 0 128 57.4 128 128V768c0 70.6-57.4 128-128 128H128z"  horiz-adv-x="1024" />
      
      <glyph glyph-name="moon" unicode="&#58900;" d="M574.85555 832C327.85555 832 127.85555 631.4 127.85555 384s200-448 447-448c121.2 0 231 48.4 311.6 126.8 10 9.8 12.6 25 6.2 37.4s-20.2 19.4-34 17c-19.6-3.4-39.6-5.2-60.2-5.2-193.8 0-351 157.6-351 352 0 131.6 72 246.2 178.6 306.6 12.2 7 18.4 21 15.4 34.6s-14.6 23.8-28.6 25c-12.6 1-25.2 1.6-38 1.6z"  horiz-adv-x="1024" />
      
      <glyph glyph-name="shapes" unicode="&#58901;" d="M630.8 865C619.4 884.2 598.4 896 576 896s-43.4-11.8-54.8-31l-192-320c-11.8-19.8-12.2-44.4-0.8-64.4s32.6-32.4 55.6-32.4h384c23 0 44.4 12.4 55.6 32.4s11 44.6-0.8 64.4l-192 320zM576 272v-288c0-44.2 35.8-80 80-80h288c44.2 0 80 35.8 80 80V272c0 44.2-35.8 80-80 80H656c-44.2 0-80-35.8-80-80zM256-128a256 256 0 1 1 0 512 256 256 0 1 1 0-512z"  horiz-adv-x="1024" />
      
      <glyph glyph-name="shuffle" unicode="&#58902;" d="M807.6 827.2c24 10 51.4 4.4 69.8-13.8l128-128c12-12 18.8-28.2 18.8-45.2s-6.8-33.2-18.8-45.2l-128-128c-18.4-18.4-45.8-23.8-69.8-13.8S768 486.4 768 512.4V576h-64c-20.2 0-39.2-9.4-51.2-25.6L568 437.4 488 544l62.4 83.2C586.6 675.6 643.6 704 704 704h64V768c0 25.8 15.6 49.2 39.6 59.2zM328 330.6l80-106.6-62.4-83.2C309.4 92.4 252.4 64 192 64H64c-35.4 0-64 28.6-64 64s28.6 64 64 64h128c20.2 0 39.2 9.4 51.2 25.6l84.8 113z m549.2-376c-18.4-18.4-45.8-23.8-69.8-13.8S767.8-26 767.8 0v64H704c-60.4 0-117.4 28.4-153.6 76.8L243.2 550.4c-12 16.2-31 25.6-51.2 25.6H64c-35.4 0-64 28.6-64 64s28.6 64 64 64h128c60.4 0 117.4-28.4 153.6-76.8l307.2-409.6c12-16.2 31-25.6 51.2-25.6h64v64c0 25.8 15.6 49.2 39.6 59.2s51.4 4.4 69.8-13.8l128-128c12-12 18.8-28.2 18.8-45.2s-6.8-33.2-18.8-45.2l-128-128z"  horiz-adv-x="1024" />
      
      <glyph glyph-name="language" unicode="&#58903;" d="M0 640c0 70.6 57.4 128 128 128h1024c70.6 0 128-57.4 128-128v-512c0-70.6-57.4-128-128-128H128c-70.6 0-128 57.4-128 128V640z m640 0v-512h512V640H640z m-283.4-95.8c-6.4 14.4-20.8 23.8-36.6 23.8s-30.2-9.4-36.6-23.8l-128-288c-9-20.2 0.2-43.8 20.4-52.8s43.8 0.2 52.8 20.4l17.8 40.2h147.2l17.8-40.2c9-20.2 32.6-29.2 52.8-20.4s29.2 32.6 20.4 52.8l-128 288zM320 429.6l38-85.6h-76l38 85.6zM896 568c22 0 40-18 40-40v-8h120c22 0 40-18 40-40s-18-40-40-40h-4l-3.2-9c-17.8-48.8-44.8-93.2-79.2-130.8 1.8-1.2 3.6-2.2 5.4-3.2l37.8-22.6c19-11.4 25-36 13.8-54.8s-36-25-54.8-13.8L934 228.4c-9 5.4-17.6 11-26.2 17-21.2-15-43.8-28-68-38.8l-7.2-3.2c-20.2-9-43.8 0.2-52.8 20.4s0.2 43.8 20.4 52.8l7.2 3.2c12.8 5.8 25.2 12.2 37 19.6L820 323.8c-15.6 15.6-15.6 41 0 56.6s41 15.6 56.6 0l29.2-29.2 1-1c24.8 26.2 45 56.6 59.6 90H752c-22 0-40 18-40 40s18 40 40 40h104v8c0 22 18 40 40 40z"  horiz-adv-x="1280" />
      
      <glyph glyph-name="tags" unicode="&#58904;" d="M690 817.8l255.6-258.6c104.8-106 104.8-276.4 0-382.4l-224-226.6c-18.6-18.8-49-19-67.8-0.4s-19 49-0.4 67.8l223.8 226.6c67.8 68.6 67.8 178.8 0 247.4L621.8 750.2c-18.6 18.8-18.4 49.2 0.4 67.8s49.2 18.4 67.8-0.4zM0 437V736c0 53 43 96 96 96h299c34 0 66.6-13.4 90.6-37.4l336-336c50-50 50-131 0-181L554.6 10.6c-50-50-131-50-181 0l-336 336C13.4 370.6 0 403 0 437zM288 608a64 64 0 1 1-128 0 64 64 0 1 1 128 0z"  horiz-adv-x="1024" />
      
      <glyph glyph-name="train" unicode="&#58905;" d="M256 896C150 896 64 810 64 704v-512c0-96 70.4-175.4 162.2-189.8l-92-92c-14-14-4-38.2 15.8-38.2h79.4c17 0 33.2 6.8 45.2 18.8L384 0h256l109.2-109.2c12-12 28.2-18.8 45.2-18.8H874c20 0 30 24.2 15.8 38.2l-92 92c92 14.2 162.2 93.8 162.2 189.8V704c0 106-86 192-192 192H256zM192 704c0 35.4 28.6 64 64 64h512c35.4 0 64-28.6 64-64v-192c0-35.4-28.6-64-64-64H256c-35.4 0-64 28.6-64 64V704z m320-384a96 96 0 1 0 0-192 96 96 0 1 0 0 192z"  horiz-adv-x="1024" />
      
      <glyph glyph-name="warning" unicode="&#58906;" d="M512 832a448 448 0 1 0 0-896 448 448 0 0 0 0 896z m0-192a58.432 58.432 0 0 1-58.24-63.744l23.36-256.384a35.072 35.072 0 0 1 69.76 0l23.296 256.384A58.432 58.432 0 0 1 512 640z m0-512a51.2 51.2 0 1 1 0 102.4 51.2 51.2 0 0 1 0-102.4z"  horiz-adv-x="1024" />
      
      <glyph glyph-name="circle-arrow-up-right-1" unicode="&#58907;" d="M725.44 753.6c204.16-117.76 273.92-378.88 156.16-582.72-117.76-204.16-378.88-273.92-582.72-156.16-127.68 73.6-208.32 208.32-213.12 355.52V384v13.76c7.68 235.52 204.8 420.16 440.32 412.48 70.08-2.24 138.56-21.76 199.36-56.96zM640 554.88h-261.12c-21.44-2.88-37.76-21.12-37.76-42.56v-5.12c2.88-21.44 21.12-37.76 42.56-37.76h152.96l-183.04-183.04-3.52-4.16c-14.4-18.56-10.88-45.44 7.68-59.84 16.96-13.12 40.96-11.52 56.32 3.52l183.04 183.04v-158.08c3.2-23.36 24.32-40 47.68-37.44 21.44 2.56 37.76 20.8 37.76 42.24v261.44l-1.6 6.4-1.6 4.48-2.24 4.8-2.88 4.8c-1.28 1.6-2.56 3.2-4.16 4.8l-3.84 3.52-4.16 2.88-4.16 2.24-4.8 1.92-4.8 1.28-5.44 0.64h-3.2z"  horiz-adv-x="1024" />
      
      </font>
</defs>
</svg>
