<?xml version="1.0" standalone="no"?><!DOCTYPE svg PUBLIC "-//W3C//DTD SVG 1.1//EN" "http://www.w3.org/Graphics/SVG/1.1/DTD/svg11.dtd"><svg t="1709263319923" class="icon" viewBox="0 0 1024 1024" version="1.1" xmlns="http://www.w3.org/2000/svg" p-id="7644" xmlns:xlink="http://www.w3.org/1999/xlink" width="1000" height="1000"><path d="M489.8 203.3c-24.6 24.6-38.3 57.3-38.3 92.2v97l-17.9-1-26.7-1.6v-94.5c0-46.8 18.1-90.8 51.3-123.8 8.4-8.4 21.7-8.7 30.5-1 0.4 0.3 0.8 0.7 1 1 8.8 8.7 8.8 22.9 0.1 31.7z" fill="#4F4F56" p-id="7645"></path><path d="M489.8 203.3c-24.6 24.6-38.3 57.3-38.3 92.2v97l-17.9-1v-93.9c0-46.8 18.1-90.8 51.3-123.8 1.2-1.2 2.5-2.2 3.8-3 0.4 0.3 0.8 0.7 1 1 8.8 8.5 8.8 22.7 0.1 31.5z" fill="#383842" p-id="7646"></path><path d="M378.7 99.6c69.3 60.9 62.5 182.1 62.5 182.1s-119.3 22.4-188.7-38.5S190 61 190 61s119.3-22.3 188.7 38.6z" fill="#52DBC0" p-id="7647"></path><path d="M441.2 281.7s-119.3 22.4-188.7-38.5S190 61 190 61s14.2-2.6 35.5-3.7c3.1 40.5 15.7 107.4 61.6 147.7 45.4 39.9 112.4 44 153.1 42.1 1.8 20.8 1 34.6 1 34.6z" fill="#0DC6A5" p-id="7648"></path><path d="M771.5 623.7c0 189.6-151 343.3-343.8 343.3S84.1 813.3 84.1 623.7c0-150.6 85.9-320.3 230.5-324.9 76.3-2.4 115.8 37.8 115.8 37.8s61.7-38 130.9-30.3C697 321.4 771.5 480.6 771.5 623.7z" fill="#FFB255" p-id="7649"></path><path d="M771.5 623.7c0 189.6-151 343.3-343.8 343.3-21.5 0-42.5-1.9-62.9-5.6 162.7-29.1 286.1-169.3 286.1-337.8 0-127.7-63.4-268.1-173.5-307.6 23.2-7.4 52.7-13.2 83.9-9.7C697 321.4 771.5 480.6 771.5 623.7z" fill="#FF960B" p-id="7650"></path><path d="M939.9 765.8c0 111.1-91.5 201.2-204.4 201.2s-204.4-90.1-204.4-201.2c0-88.2 53.4-187.6 138.1-190.3 44.7-1.4 67.9 22.2 67.9 22.2s36.1-22.3 76.7-17.8c79.5 9 126.1 102.1 126.1 185.9z" fill="#F98923" p-id="7651"></path><path d="M822.8 777.5c0.9 62.1-80.9 113.7-80.9 113.7s-83.3-49.2-84.1-111.3c-0.9-62.1 80.9-113.7 80.9-113.7s83.1 49.2 84.1 111.3z" fill="#994D33" p-id="7652"></path><path d="M822.8 777.5c0.9 62.1-80.9 113.7-80.9 113.7s-8.3-4.9-19.7-13.5c24.2-20 59.7-56.5 59.1-97.6-0.6-42.5-39.8-79-64.5-97.8 12.4-10.3 21.7-16.2 21.7-16.2s83.3 49.4 84.3 111.4z" fill="#823722" p-id="7653"></path><path d="M939.9 765.8c0 111.1-91.5 201.2-204.4 201.2-10.1 0-20.1-0.8-29.8-2.1 98.9-14.2 174.8-97.8 174.8-199.1 0-77.4-39.8-162.7-108.4-182.3 12.2-3.2 26.6-5.2 41.7-3.6 79.5 9 126.1 102.1 126.1 185.9z" fill="#E87003" p-id="7654"></path></svg>