<?xml version="1.0" standalone="no"?><!DOCTYPE svg PUBLIC "-//W3C//DTD SVG 1.1//EN" "http://www.w3.org/Graphics/SVG/1.1/DTD/svg11.dtd"><svg t="1709263015646" class="icon" viewBox="0 0 1024 1024" version="1.1" xmlns="http://www.w3.org/2000/svg" p-id="2882" xmlns:xlink="http://www.w3.org/1999/xlink" width="1000" height="1000"><path d="M487.46496 642.39616l-50.9952 26.80832a30.72 30.72 0 0 1-44.56448-32.38912l9.728-56.77056a30.72 30.72 0 0 0-8.82688-27.19744l-41.24672-40.20224a30.72 30.72 0 0 1 17.01888-52.39808l57.00608-8.2944a30.72 30.72 0 0 0 23.1424-16.7936l25.48736-51.6608a30.72 30.72 0 0 1 55.0912 0l25.4976 51.6608a30.72 30.72 0 0 0 23.13216 16.7936l57.00608 8.2944a30.72 30.72 0 0 1 17.01888 52.39808l-41.24672 40.20224a30.72 30.72 0 0 0-8.83712 27.19744l9.73824 56.77056a30.72 30.72 0 0 1-44.57472 32.38912l-50.98496-26.80832a30.72 30.72 0 0 0-28.59008 0z" fill="#FC9A24" p-id="2883"></path><path d="M481.28 215.04m30.72 0l0 0q30.72 0 30.72 30.72l0 40.96q0 30.72-30.72 30.72l0 0q-30.72 0-30.72-30.72l0-40.96q0-30.72 30.72-30.72Z" fill="#ABE4FE" p-id="2884"></path><path d="M272.131879 320.69652m21.72232-21.722321l0 0q21.72232-21.72232 43.444641 0l65.166961 65.166961q21.72232 21.72232 0 43.444641l0 0q-21.72232 21.72232-43.444641 0l-65.166961-65.166961q-21.72232-21.72232 0-43.444641Z" fill="#ABE4FE" p-id="2885"></path><path d="M640.770586 679.095227m21.72232-21.722321l0 0q21.72232-21.72232 43.444641 0l14.481547 14.481547q21.72232 21.72232 0 43.444641l0 0q-21.72232 21.72232-43.444641 0l-14.481547-14.481547q-21.72232-21.72232 0-43.444641Z" fill="#ABE4FE" p-id="2886"></path><path d="M829.44 112.64a30.72 30.72 0 0 1 30.72 30.72v20.48h20.48a30.72 30.72 0 0 1 0 61.44h-20.48v20.48a30.72 30.72 0 0 1-61.44 0v-20.48h-20.48a30.72 30.72 0 0 1 0-61.44h20.48v-20.48a30.72 30.72 0 0 1 30.72-30.72zM235.52 153.6a30.72 30.72 0 0 1 30.72 30.72v20.48h20.48a30.72 30.72 0 0 1 0 61.44h-20.48v20.48a30.72 30.72 0 0 1-61.44 0v-20.48h-20.48a30.72 30.72 0 0 1 0-61.44h20.48v-20.48a30.72 30.72 0 0 1 30.72-30.72zM194.56 747.52a30.72 30.72 0 0 1 30.72 30.72v20.48h20.48a30.72 30.72 0 0 1 0 61.44h-20.48v20.48a30.72 30.72 0 0 1-61.44 0v-20.48h-20.48a30.72 30.72 0 0 1 0-61.44h20.48v-20.48a30.72 30.72 0 0 1 30.72-30.72zM778.24 696.32a30.72 30.72 0 0 1 30.72 30.72v20.48h20.48a30.72 30.72 0 0 1 0 61.44h-20.48v20.48a30.72 30.72 0 0 1-61.44 0v-20.48h-20.48a30.72 30.72 0 0 1 0-61.44h20.48v-20.48a30.72 30.72 0 0 1 30.72-30.72z" fill="#ABE4FE" p-id="2887"></path><path d="M792.314393 270.009632m-21.72232-21.72232l0 0q-21.72232-21.72232-43.444641 0l-115.852375 115.852375q-21.72232 21.72232 0 43.444641l0 0q21.72232 21.72232 43.44464 0l115.852376-115.852376q21.72232-21.72232 0-43.44464Z" fill="#ABE4FE" p-id="2888"></path><path d="M377.852521 679.352685m-21.72232-21.72232l0 0q-21.72232-21.72232-43.444641 0l-65.166961 65.166961q-21.72232 21.72232 0 43.44464l0 0q21.72232 21.72232 43.444641 0l65.166961-65.16696q21.72232-21.72232 0-43.444641Z" fill="#ABE4FE" p-id="2889"></path><path d="M204.8 481.28m30.72 0l40.96 0q30.72 0 30.72 30.72l0 0q0 30.72-30.72 30.72l-40.96 0q-30.72 0-30.72-30.72l0 0q0-30.72 30.72-30.72Z" fill="#ABE4FE" p-id="2890"></path><path d="M696.32 481.28m30.72 0l40.96 0q30.72 0 30.72 30.72l0 0q0 30.72-30.72 30.72l-40.96 0q-30.72 0-30.72-30.72l0 0q0-30.72 30.72-30.72Z" fill="#ABE4FE" p-id="2891"></path><path d="M481.28 696.32m30.72 0l0 0q30.72 0 30.72 30.72l0 40.96q0 30.72-30.72 30.72l0 0q-30.72 0-30.72-30.72l0-40.96q0-30.72 30.72-30.72Z" fill="#ABE4FE" p-id="2892"></path><path d="M512 153.6m-30.72 0a30.72 30.72 0 1 0 61.44 0 30.72 30.72 0 1 0-61.44 0Z" fill="#ABE4FE" p-id="2893"></path><path d="M512 860.16m-30.72 0a30.72 30.72 0 1 0 61.44 0 30.72 30.72 0 1 0-61.44 0Z" fill="#ABE4FE" p-id="2894"></path><path d="M604.16 235.52m-30.72 0a30.72 30.72 0 1 0 61.44 0 30.72 30.72 0 1 0-61.44 0Z" fill="#ABE4FE" p-id="2895"></path><path d="M604.16 768m-30.72 0a30.72 30.72 0 1 0 61.44 0 30.72 30.72 0 1 0-61.44 0Z" fill="#ABE4FE" p-id="2896"></path><path d="M419.84 235.52m-30.72 0a30.72 30.72 0 1 0 61.44 0 30.72 30.72 0 1 0-61.44 0Z" fill="#ABE4FE" p-id="2897"></path><path d="M235.52 419.84m-30.72 0a30.72 30.72 0 1 0 61.44 0 30.72 30.72 0 1 0-61.44 0Z" fill="#ABE4FE" p-id="2898"></path><path d="M768 419.84m-30.72 0a30.72 30.72 0 1 0 61.44 0 30.72 30.72 0 1 0-61.44 0Z" fill="#ABE4FE" p-id="2899"></path><path d="M143.36 512m-30.72 0a30.72 30.72 0 1 0 61.44 0 30.72 30.72 0 1 0-61.44 0Z" fill="#ABE4FE" p-id="2900"></path><path d="M860.16 512m-30.72 0a30.72 30.72 0 1 0 61.44 0 30.72 30.72 0 1 0-61.44 0Z" fill="#ABE4FE" p-id="2901"></path><path d="M235.52 604.16m-30.72 0a30.72 30.72 0 1 0 61.44 0 30.72 30.72 0 1 0-61.44 0Z" fill="#ABE4FE" p-id="2902"></path><path d="M768 604.16m-30.72 0a30.72 30.72 0 1 0 61.44 0 30.72 30.72 0 1 0-61.44 0Z" fill="#ABE4FE" p-id="2903"></path><path d="M419.84 768m-30.72 0a30.72 30.72 0 1 0 61.44 0 30.72 30.72 0 1 0-61.44 0Z" fill="#ABE4FE" p-id="2904"></path></svg>